SplineFontDB: 3.2
FontName: ElectronicHighwaySign
FullName: Electronic Highway Sign
FamilyName: Electronic Highway Sign
Weight: Book
Version: 1.000
ItalicAngle: 0
UnderlinePosition: -143
UnderlineWidth: 20
Ascent: 1120
Descent: 280
InvalidEm: 0
sfntRevision: 0x00010000
LayerCount: 2
Layer: 0 1 "Back" 1
Layer: 1 1 "Fore" 0
XUID: [1021 805 -985792073 24152]
StyleMap: 0x0040
FSType: 0
OS2Version: 3
OS2_WeightWidthSlopeOnly: 0
OS2_UseTypoMetrics: 0
CreationTime: 1020026288
ModificationTime: 1284799536
PfmFamily: 81
TTFWeight: 400
TTFWidth: 5
LineGap: 0
VLineGap: 0
Panose: 0 0 4 0 0 0 0 0 0 0
OS2TypoAscent: 1120
OS2TypoAOffset: 0
OS2TypoDescent: -225
OS2TypoDOffset: 0
OS2TypoLinegap: 0
OS2WinAscent: 1200
OS2WinAOffset: 0
OS2WinDescent: 225
OS2WinDOffset: 0
HheadAscent: 1200
HheadAOffset: 0
HheadDescent: -225
HheadDOffset: 0
OS2SubXSize: 980
OS2SubYSize: 910
OS2SubXOff: 0
OS2SubYOff: 200
OS2SupXSize: 980
OS2SupYSize: 910
OS2SupXOff: 0
OS2SupYOff: 634
OS2StrikeYSize: 70
OS2StrikeYPos: 362
OS2CapHeight: 1120
OS2XHeight: 1120
OS2Vendor: 'MACR'
OS2CodePages: 00000001.00000000
OS2UnicodeRanges: 00000003.00000000.00000000.00000000
DEI: 91125
TtTable: prep
PUSHW_1
 0
CALL
EndTTInstrs
TtTable: fpgm
PUSHW_1
 0
FDEF
MPPEM
PUSHW_1
 3
LT
IF
PUSHB_2
 1
 1
INSTCTRL
EIF
PUSHW_1
 511
SCANCTRL
PUSHW_1
 68
SCVTCI
PUSHW_2
 3
 3
SDS
SDB
ENDF
PUSHW_1
 1
FDEF
DUP
DUP
RCVT
ROUND[Black]
WCVTP
PUSHB_1
 1
ADD
ENDF
PUSHW_1
 2
FDEF
PUSHW_1
 1
LOOPCALL
POP
ENDF
PUSHW_1
 3
FDEF
DUP
GC[cur]
PUSHB_1
 3
CINDEX
GC[cur]
GT
IF
SWAP
EIF
DUP
ROLL
DUP
ROLL
MD[grid]
ABS
ROLL
DUP
GC[cur]
DUP
ROUND[Grey]
SUB
ABS
PUSHB_1
 4
CINDEX
GC[cur]
DUP
ROUND[Grey]
SUB
ABS
GT
IF
SWAP
NEG
ROLL
EIF
MDAP[rnd]
DUP
PUSHB_1
 0
GTEQ
IF
ROUND[Black]
DUP
PUSHB_1
 0
EQ
IF
POP
PUSHB_1
 64
EIF
ELSE
ROUND[Black]
DUP
PUSHB_1
 0
EQ
IF
POP
PUSHB_1
 64
NEG
EIF
EIF
MSIRP[no-rp0]
ENDF
PUSHW_1
 4
FDEF
DUP
GC[cur]
PUSHB_1
 4
CINDEX
GC[cur]
GT
IF
SWAP
ROLL
EIF
DUP
GC[cur]
DUP
ROUND[White]
SUB
ABS
PUSHB_1
 4
CINDEX
GC[cur]
DUP
ROUND[White]
SUB

StartChar: .notdef
Encoding: 65536 -1 0
Width: 857
GlyphClass: 1
Flags: W
LayerCount: 2
Fore
SplineSet
107 0 m 1,0,-1
 107 1200 l 1,1,-1
 750 1200 l 1,2,-1
 750 0 l 1,3,-1
 107 0 l 1,0,-1
214 107 m 1,4,-1
 643 107 l 1,5,-1
 643 1093 l 1,6,-1
 214 1093 l 1,7,-1
 214 107 l 1,4,-1
EndSplineSet
EndChar

StartChar: exclam
Encoding: 33 33 4
Width: 857
GlyphClass: 1
Flags: W
LayerCount: 2
Fore
SplineSet
375 73 m 1,0,-1
 375 210 l 1,1,-1
 513 210 l 1,2,-1
 513 73 l 1,3,-1
 375 73 l 1,0,-1
375 376 m 1,4,-1
 375 514 l 1,5,-1
 513 514 l 1,6,-1
 513 376 l 1,7,-1
 375 376 l 1,4,-1
375 527 m 1,8,-1
 375 665 l 1,9,-1
 513 665 l 1,10,-1
 513 527 l 1,11,-1
 375 527 l 1,8,-1
375 679 m 1,12,-1
 375 817 l 1,13,-1
 513 817 l 1,14,-1
 513 679 l 1,15,-1
 375 679 l 1,12,-1
375 830 m 1,16,-1
 375 968 l 1,17,-1
 513 968 l 1,18,-1
 513 830 l 1,19,-1
 375 830 l 1,16,-1
375 982 m 1,20,-1
 375 1120 l 1,21,-1
 513 1120 l 1,22,-1
 513 982 l 1,23,-1
 375 982 l 1,20,-1
EndSplineSet
EndChar

StartChar: quotedbl
Encoding: 34 34 5
Width: 857
GlyphClass: 1
Flags: W
LayerCount: 2
Fore
SplineSet
224 679 m 1,0,-1
 224 817 l 1,1,-1
 361 817 l 1,2,-1
 361 679 l 1,3,-1
 224 679 l 1,0,-1
527 679 m 1,4,-1
 527 817 l 1,5,-1
 665 817 l 1,6,-1
 665 679 l 1,7,-1
 527 679 l 1,4,-1
224 830 m 1,8,-1
 224 968 l 1,9,-1
 361 968 l 1,10,-1
 361 830 l 1,11,-1
 224 830 l 1,8,-1
526 830 m 1,12,-1
 526 968 l 1,13,-1
 665 968 l 1,14,-1
 665 830 l 1,15,-1
 526 830 l 1,12,-1
224 982 m 1,16,-1
 224 1120 l 1,17,-1
 361 1120 l 1,18,-1
 361 982 l 1,19,-1
 224 982 l 1,16,-1
526 982 m 1,20,-1
 526 1120 l 1,21,-1
 665 1120 l 1,22,-1
 665 982 l 1,23,-1
 526 982 l 1,20,-1
EndSplineSet
EndChar

StartChar: numbersign
Encoding: 35 35 6
Width: 857
GlyphClass: 1
Flags: W
LayerCount: 2
Fore
SplineSet
223 73 m 1,0,-1
 223 210 l 1,1,-1
 361 210 l 1,2,-1
 361 73 l 1,3,-1
 223 73 l 1,0,-1
526 73 m 1,4,-1
 526 210 l 1,5,-1
 664 210 l 1,6,-1
 664 73 l 1,7,-1
 526 73 l 1,4,-1
223 224 m 1,8,-1
 223 362 l 1,9,-1
 361 362 l 1,10,-1
 361 224 l 1,11,-1
 223 224 l 1,8,-1
526 224 m 1,12,-1
 526 362 l 1,13,-1
 664 362 l 1,14,-1
 664 224 l 1,15,-1
 526 224 l 1,12,-1
72 375 m 1,16,-1
 72 513 l 1,17,-1
 209 513 l 1,18,-1
 209 375 l 1,19,-1
 72 375 l 1,16,-1
223 375 m 1,20,-1
 223 513 l 1,21,-1
 361 513 l 1,22,-1
 361 375 l 1,23,-1
 223 375 l 1,20,-1
375 375 m 1,24,-1
 375 513 l 1,25,-1
 512 513 l 1,26,-1
 512 375 l 1,27,-1
 375 375 l 1,24,-1
526 376 m 1,28,-1
 526 514 l 1,29,-1
 664 514 l 1,30,-1
 664 376 l 1,31,-1
 526 376 l 1,28,-1
678 376 m 1,32,-1
 678 514 l 1,33,-1
 816 514 l 1,34,-1
 816 376 l 1,35,-1
 678 376 l 1,32,-1
223 527 m 1,36,-1
 223 665 l 1,37,-1
 361 665 l 1,38,-1
 361 527 l 1,39,-1
 223 527 l 1,36,-1
526 527 m 1,40,-1
 526 665 l 1,41,-1
 664 665 l 1,42,-1
 664 527 l 1,43,-1
 526 527 l 1,40,-1
72 678 m 1,44,-1
 72 816 l 1,45,-1
 209 816 l 1,46,-1
 209 678 l 1,47,-1
 72 678 l 1,44,-1
223 679 m 1,48,-1
 223 816 l 1,49,-1
 361 816 l 1,50,-1
 361 679 l 1,51,-1
 223 679 l 1,48,-1
375 679 m 1,52,-1
 375 816 l 1,53,-1
 512 816 l 1,54,-1
 512 679 l 1,55,-1
 375 679 l 1,52,-1
526 679 m 1,56,-1
 526 816 l 1,57,-1
 664 816 l 1,58,-1
 664 679 l 1,59,-1
 526 679 l 1,56,-1
678 679 m 1,60,-1
 678 817 l 1,61,-1
 816 817 l 1,62,-1
 816 679 l 1,63,-1
 678 679 l 1,60,-1
223 830 m 1,64,-1
 223 968 l 1,65,-1
 361 968 l 1,66,-1
 361 830 l 1,67,-1
 223 830 l 1,64,-1
526 830 m 1,68,-1
 526 968 l 1,69,-1
 664 968 l 1,70,-1
 664 830 l 1,71,-1
 526 830 l 1,68,-1
223 981 m 1,72,-1
 223 1120 l 1,73,-1
 361 1120 l 1,74,-1
 361 981 l 1,75,-1
 223 981 l 1,72,-1
526 982 m 1,76,-1
 526 1120 l 1,77,-1
 664 1120 l 1,78,-1
 664 982 l 1,79,-1
 526 982 l 1,76,-1
EndSplineSet
EndChar

StartChar: dollar
Encoding: 36 36 7
Width: 857
GlyphClass: 1
Flags: W
LayerCount: 2
Fore
SplineSet
375 73 m 1,0,-1
 375 210 l 1,1,-1
 512 210 l 1,2,-1
 512 73 l 1,3,-1
 375 73 l 1,0,-1
72 224 m 1,4,-1
 72 361 l 1,5,-1
 209 361 l 1,6,-1
 209 224 l 1,7,-1
 72 224 l 1,4,-1
223 224 m 1,8,-1
 223 362 l 1,9,-1
 361 362 l 1,10,-1
 361 224 l 1,11,-1
 223 224 l 1,8,-1
375 224 m 1,12,-1
 375 362 l 1,13,-1
 512 362 l 1,14,-1
 512 224 l 1,15,-1
 375 224 l 1,12,-1
526 224 m 1,16,-1
 526 362 l 1,17,-1
 664 362 l 1,18,-1
 664 224 l 1,19,-1
 526 224 l 1,16,-1
375 376 m 1,20,-1
 375 514 l 1,21,-1
 512 514 l 1,22,-1
 512 376 l 1,23,-1
 375 376 l 1,20,-1
678 376 m 1,24,-1
 678 514 l 1,25,-1
 816 514 l 1,26,-1
 816 376 l 1,27,-1
 678 376 l 1,24,-1
223 527 m 1,28,-1
 223 665 l 1,29,-1
 361 665 l 1,30,-1
 361 527 l 1,31,-1
 223 527 l 1,28,-1
375 527 m 1,32,-1
 375 665 l 1,33,-1
 512 665 l 1,34,-1
 512 527 l 1,35,-1
 375 527 l 1,32,-1
526 527 m 1,36,-1
 526 665 l 1,37,-1
 664 665 l 1,38,-1
 664 527 l 1,39,-1
 526 527 l 1,36,-1
72 679 m 1,40,-1
 72 816 l 1,41,-1
 209 816 l 1,42,-1
 209 679 l 1,43,-1
 72 679 l 1,40,-1
375 679 m 1,44,-1
 375 816 l 1,45,-1
 512 816 l 1,46,-1
 512 679 l 1,47,-1
 375 679 l 1,44,-1
223 830 m 1,48,-1
 223 968 l 1,49,-1
 361 968 l 1,50,-1
 361 830 l 1,51,-1
 223 830 l 1,48,-1
375 830 m 1,52,-1
 375 968 l 1,53,-1
 512 968 l 1,54,-1
 512 830 l 1,55,-1
 375 830 l 1,52,-1
526 830 m 1,56,-1
 526 968 l 1,57,-1
 664 968 l 1,58,-1
 664 830 l 1,59,-1
 526 830 l 1,56,-1
678 830 m 1,60,-1
 678 968 l 1,61,-1
 816 968 l 1,62,-1
 816 830 l 1,63,-1
 678 830 l 1,60,-1
375 982 m 1,64,-1
 375 1120 l 1,65,-1
 512 1120 l 1,66,-1
 512 982 l 1,67,-1
 375 982 l 1,64,-1
EndSplineSet
EndChar

StartChar: percent
Encoding: 37 37 8
Width: 857
GlyphClass: 1
Flags: W
LayerCount: 2
Fore
SplineSet
526 73 m 1,0,-1
 526 210 l 1,1,-1
 664 210 l 1,2,-1
 664 73 l 1,3,-1
 526 73 l 1,0,-1
678 73 m 1,4,-1
 678 210 l 1,5,-1
 816 210 l 1,6,-1
 816 73 l 1,7,-1
 678 73 l 1,4,-1
72 224 m 1,8,-1
 72 362 l 1,9,-1
 209 362 l 1,10,-1
 209 224 l 1,11,-1
 72 224 l 1,8,-1
526 224 m 1,12,-1
 526 362 l 1,13,-1
 664 362 l 1,14,-1
 664 224 l 1,15,-1
 526 224 l 1,12,-1
678 224 m 1,16,-1
 678 362 l 1,17,-1
 816 362 l 1,18,-1
 816 224 l 1,19,-1
 678 224 l 1,16,-1
223 376 m 1,20,-1
 223 514 l 1,21,-1
 361 514 l 1,22,-1
 361 376 l 1,23,-1
 223 376 l 1,20,-1
375 527 m 1,24,-1
 375 665 l 1,25,-1
 512 665 l 1,26,-1
 512 527 l 1,27,-1
 375 527 l 1,24,-1
526 679 m 1,28,-1
 526 816 l 1,29,-1
 664 816 l 1,30,-1
 664 679 l 1,31,-1
 526 679 l 1,28,-1
72 830 m 1,32,-1
 72 968 l 1,33,-1
 209 968 l 1,34,-1
 209 830 l 1,35,-1
 72 830 l 1,32,-1
223 830 m 1,36,-1
 223 968 l 1,37,-1
 361 968 l 1,38,-1
 361 830 l 1,39,-1
 223 830 l 1,36,-1
678 830 m 1,40,-1
 678 968 l 1,41,-1
 816 968 l 1,42,-1
 816 830 l 1,43,-1
 678 830 l 1,40,-1
72 982 m 1,44,-1
 72 1120 l 1,45,-1
 209 1120 l 1,46,-1
 209 982 l 1,47,-1
 72 982 l 1,44,-1
223 982 m 1,48,-1
 223 1120 l 1,49,-1
 361 1120 l 1,50,-1
 361 982 l 1,51,-1
 223 982 l 1,48,-1
EndSplineSet
EndChar

StartChar: ampersand
Encoding: 38 38 9
Width: 857
GlyphClass: 1
Flags: W
LayerCount: 2
Fore
SplineSet
223 73 m 1,0,-1
 223 210 l 1,1,-1
 361 210 l 1,2,-1
 361 73 l 1,3,-1
 223 73 l 1,0,-1
375 73 m 1,4,-1
 375 210 l 1,5,-1
 513 210 l 1,6,-1
 513 73 l 1,7,-1
 375 73 l 1,4,-1
678 73 m 1,8,-1
 678 210 l 1,9,-1
 816 210 l 1,10,-1
 816 73 l 1,11,-1
 678 73 l 1,8,-1
72 224 m 1,12,-1
 72 362 l 1,13,-1
 209 362 l 1,14,-1
 209 224 l 1,15,-1
 72 224 l 1,12,-1
526 224 m 1,16,-1
 526 362 l 1,17,-1
 664 362 l 1,18,-1
 664 224 l 1,19,-1
 526 224 l 1,16,-1
72 375 m 1,20,-1
 72 513 l 1,21,-1
 209 513 l 1,22,-1
 209 375 l 1,23,-1
 72 375 l 1,20,-1
375 376 m 1,24,-1
 375 514 l 1,25,-1
 512 514 l 1,26,-1
 512 376 l 1,27,-1
 375 376 l 1,24,-1
678 376 m 1,28,-1
 678 514 l 1,29,-1
 816 514 l 1,30,-1
 816 376 l 1,31,-1
 678 376 l 1,28,-1
223 527 m 1,32,-1
 223 665 l 1,33,-1
 361 665 l 1,34,-1
 361 527 l 1,35,-1
 223 527 l 1,32,-1
72 679 m 1,36,-1
 72 816 l 1,37,-1
 209 816 l 1,38,-1
 209 679 l 1,39,-1
 72 679 l 1,36,-1
375 679 m 1,40,-1
 375 816 l 1,41,-1
 512 816 l 1,42,-1
 512 679 l 1,43,-1
 375 679 l 1,40,-1
72 830 m 1,44,-1
 72 968 l 1,45,-1
 209 968 l 1,46,-1
 209 830 l 1,47,-1
 72 830 l 1,44,-1
526 830 m 1,48,-1
 526 968 l 1,49,-1
 664 968 l 1,50,-1
 664 830 l 1,51,-1
 526 830 l 1,48,-1
223 982 m 1,52,-1
 223 1120 l 1,53,-1
 361 1120 l 1,54,-1
 361 982 l 1,55,-1
 223 982 l 1,52,-1
375 982 m 1,56,-1
 375 1120 l 1,57,-1
 512 1120 l 1,58,-1
 512 982 l 1,59,-1
 375 982 l 1,56,-1
EndSplineSet
EndChar

StartChar: quotesingle
Encoding: 39 39 10
Width: 857
GlyphClass: 1
Flags: W
LayerCount: 2
Fore
SplineSet
360 679 m 1,0,-1
 360 817 l 1,1,-1
 497 817 l 1,2,-1
 497 679 l 1,3,-1
 360 679 l 1,0,-1
360 830 m 1,4,-1
 360 968 l 1,5,-1
 497 968 l 1,6,-1
 497 830 l 1,7,-1
 360 830 l 1,4,-1
360 982 m 1,8,-1
 360 1120 l 1,9,-1
 497 1120 l 1,10,-1
 497 982 l 1,11,-1
 360 982 l 1,8,-1
EndSplineSet
EndChar

StartChar: parenleft
Encoding: 40 40 11
Width: 857
GlyphClass: 1
Flags: W
LayerCount: 2
Fore
SplineSet
527 73 m 1,0,-1
 527 210 l 1,1,-1
 664 210 l 1,2,-1
 664 73 l 1,3,-1
 527 73 l 1,0,-1
375 224 m 1,4,-1
 375 362 l 1,5,-1
 513 362 l 1,6,-1
 513 224 l 1,7,-1
 375 224 l 1,4,-1
224 376 m 1,8,-1
 224 514 l 1,9,-1
 361 514 l 1,10,-1
 361 376 l 1,11,-1
 224 376 l 1,8,-1
224 527 m 1,12,-1
 224 665 l 1,13,-1
 361 665 l 1,14,-1
 361 527 l 1,15,-1
 224 527 l 1,12,-1
224 679 m 1,16,-1
 224 817 l 1,17,-1
 361 817 l 1,18,-1
 361 679 l 1,19,-1
 224 679 l 1,16,-1
375 830 m 1,20,-1
 375 968 l 1,21,-1
 513 968 l 1,22,-1
 513 830 l 1,23,-1
 375 830 l 1,20,-1
526 982 m 1,24,-1
 526 1120 l 1,25,-1
 664 1120 l 1,26,-1
 664 982 l 1,27,-1
 526 982 l 1,24,-1
EndSplineSet
EndChar

StartChar: parenright
Encoding: 41 41 12
Width: 857
GlyphClass: 1
Flags: W
LayerCount: 2
Fore
SplineSet
224 73 m 1,0,-1
 224 210 l 1,1,-1
 361 210 l 1,2,-1
 361 73 l 1,3,-1
 224 73 l 1,0,-1
375 224 m 1,4,-1
 375 362 l 1,5,-1
 513 362 l 1,6,-1
 513 224 l 1,7,-1
 375 224 l 1,4,-1
527 376 m 1,8,-1
 527 514 l 1,9,-1
 664 514 l 1,10,-1
 664 376 l 1,11,-1
 527 376 l 1,8,-1
526 527 m 1,12,-1
 526 665 l 1,13,-1
 664 665 l 1,14,-1
 664 527 l 1,15,-1
 526 527 l 1,12,-1
526 679 m 1,16,-1
 526 817 l 1,17,-1
 664 817 l 1,18,-1
 664 679 l 1,19,-1
 526 679 l 1,16,-1
375 830 m 1,20,-1
 375 968 l 1,21,-1
 513 968 l 1,22,-1
 513 830 l 1,23,-1
 375 830 l 1,20,-1
224 982 m 1,24,-1
 224 1120 l 1,25,-1
 361 1120 l 1,26,-1
 361 982 l 1,27,-1
 224 982 l 1,24,-1
EndSplineSet
EndChar

StartChar: asterisk
Encoding: 42 42 13
Width: 857
GlyphClass: 1
Flags: W
LayerCount: 2
Fore
SplineSet
375 224 m 1,0,-1
 375 362 l 1,1,-1
 513 362 l 1,2,-1
 513 224 l 1,3,-1
 375 224 l 1,0,-1
72 376 m 1,4,-1
 72 513 l 1,5,-1
 209 513 l 1,6,-1
 209 376 l 1,7,-1
 72 376 l 1,4,-1
375 376 m 1,8,-1
 375 514 l 1,9,-1
 513 514 l 1,10,-1
 513 376 l 1,11,-1
 375 376 l 1,8,-1
678 376 m 1,12,-1
 678 514 l 1,13,-1
 816 514 l 1,14,-1
 816 376 l 1,15,-1
 678 376 l 1,12,-1
223 527 m 1,16,-1
 223 665 l 1,17,-1
 361 665 l 1,18,-1
 361 527 l 1,19,-1
 223 527 l 1,16,-1
375 527 m 1,20,-1
 375 665 l 1,21,-1
 512 665 l 1,22,-1
 512 527 l 1,23,-1
 375 527 l 1,20,-1
526 527 m 1,24,-1
 526 665 l 1,25,-1
 664 665 l 1,26,-1
 664 527 l 1,27,-1
 526 527 l 1,24,-1
72 679 m 1,28,-1
 72 816 l 1,29,-1
 209 816 l 1,30,-1
 209 679 l 1,31,-1
 72 679 l 1,28,-1
375 679 m 1,32,-1
 375 816 l 1,33,-1
 512 816 l 1,34,-1
 512 679 l 1,35,-1
 375 679 l 1,32,-1
678 679 m 1,36,-1
 678 817 l 1,37,-1
 816 817 l 1,38,-1
 816 679 l 1,39,-1
 678 679 l 1,36,-1
375 830 m 1,40,-1
 375 969 l 1,41,-1
 512 969 l 1,42,-1
 512 830 l 1,43,-1
 375 830 l 1,40,-1
EndSplineSet
EndChar

StartChar: plus
Encoding: 43 43 14
Width: 857
GlyphClass: 1
Flags: W
LayerCount: 2
Fore
SplineSet
375 224 m 1,0,-1
 375 362 l 1,1,-1
 513 362 l 1,2,-1
 513 224 l 1,3,-1
 375 224 l 1,0,-1
375 376 m 1,4,-1
 375 514 l 1,5,-1
 513 514 l 1,6,-1
 513 376 l 1,7,-1
 375 376 l 1,4,-1
72 527 m 1,8,-1
 72 665 l 1,9,-1
 210 665 l 1,10,-1
 210 527 l 1,11,-1
 72 527 l 1,8,-1
223 527 m 1,12,-1
 223 665 l 1,13,-1
 361 665 l 1,14,-1
 361 527 l 1,15,-1
 223 527 l 1,12,-1
375 527 m 1,16,-1
 375 665 l 1,17,-1
 513 665 l 1,18,-1
 513 527 l 1,19,-1
 375 527 l 1,16,-1
526 527 m 1,20,-1
 526 665 l 1,21,-1
 664 665 l 1,22,-1
 664 527 l 1,23,-1
 526 527 l 1,20,-1
678 527 m 1,24,-1
 678 665 l 1,25,-1
 816 665 l 1,26,-1
 816 527 l 1,27,-1
 678 527 l 1,24,-1
375 679 m 1,28,-1
 375 816 l 1,29,-1
 512 816 l 1,30,-1
 512 679 l 1,31,-1
 375 679 l 1,28,-1
375 830 m 1,32,-1
 375 969 l 1,33,-1
 512 969 l 1,34,-1
 512 830 l 1,35,-1
 375 830 l 1,32,-1
EndSplineSet
EndChar

StartChar: comma
Encoding: 44 44 15
Width: 857
GlyphClass: 1
Flags: W
LayerCount: 2
Fore
SplineSet
224 73 m 1,0,-1
 224 210 l 1,1,-1
 361 210 l 1,2,-1
 361 73 l 1,3,-1
 224 73 l 1,0,-1
224 -225 m 1,4,-1
 224 -88 l 1,5,-1
 362 -88 l 1,6,-1
 362 -225 l 1,7,-1
 224 -225 l 1,4,-1
224 224 m 1,8,-1
 224 362 l 1,9,-1
 361 362 l 1,10,-1
 361 224 l 1,11,-1
 224 224 l 1,8,-1
375 224 m 1,12,-1
 375 362 l 1,13,-1
 513 362 l 1,14,-1
 513 224 l 1,15,-1
 375 224 l 1,12,-1
375 73 m 1,16,-1
 375 210 l 1,17,-1
 513 210 l 1,18,-1
 513 73 l 1,19,-1
 375 73 l 1,16,-1
375 -77 m 1,20,-1
 375 60 l 1,21,-1
 513 60 l 1,22,-1
 513 -77 l 1,23,-1
 375 -77 l 1,20,-1
EndSplineSet
EndChar

StartChar: hyphen
Encoding: 45 45 16
AltUni2: 002010.ffffffff.0 002010.ffffffff.0
Width: 857
GlyphClass: 1
Flags: W
LayerCount: 2
Fore
SplineSet
72 527 m 1,0,-1
 72 665 l 1,1,-1
 210 665 l 1,2,-1
 210 527 l 1,3,-1
 72 527 l 1,0,-1
223 527 m 1,4,-1
 223 665 l 1,5,-1
 361 665 l 1,6,-1
 361 527 l 1,7,-1
 223 527 l 1,4,-1
375 527 m 1,8,-1
 375 665 l 1,9,-1
 513 665 l 1,10,-1
 513 527 l 1,11,-1
 375 527 l 1,8,-1
526 527 m 1,12,-1
 526 665 l 1,13,-1
 664 665 l 1,14,-1
 664 527 l 1,15,-1
 526 527 l 1,12,-1
678 527 m 1,16,-1
 678 665 l 1,17,-1
 816 665 l 1,18,-1
 816 527 l 1,19,-1
 678 527 l 1,16,-1
EndSplineSet
EndChar

StartChar: period
Encoding: 46 46 17
Width: 857
GlyphClass: 1
Flags: W
LayerCount: 2
Fore
SplineSet
224 73 m 1,0,-1
 224 210 l 1,1,-1
 361 210 l 1,2,-1
 361 73 l 1,3,-1
 224 73 l 1,0,-1
375 73 m 1,4,-1
 375 210 l 1,5,-1
 513 210 l 1,6,-1
 513 73 l 1,7,-1
 375 73 l 1,4,-1
224 224 m 1,8,-1
 224 362 l 1,9,-1
 361 362 l 1,10,-1
 361 224 l 1,11,-1
 224 224 l 1,8,-1
375 224 m 1,12,-1
 375 362 l 1,13,-1
 513 362 l 1,14,-1
 513 224 l 1,15,-1
 375 224 l 1,12,-1
EndSplineSet
EndChar

StartChar: slash
Encoding: 47 47 18
Width: 857
GlyphClass: 1
Flags: W
LayerCount: 2
Fore
SplineSet
72 224 m 1,0,-1
 72 362 l 1,1,-1
 210 362 l 1,2,-1
 210 224 l 1,3,-1
 72 224 l 1,0,-1
223 376 m 1,4,-1
 223 514 l 1,5,-1
 361 514 l 1,6,-1
 361 376 l 1,7,-1
 223 376 l 1,4,-1
375 527 m 1,8,-1
 375 665 l 1,9,-1
 513 665 l 1,10,-1
 513 527 l 1,11,-1
 375 527 l 1,8,-1
526 679 m 1,12,-1
 526 817 l 1,13,-1
 664 817 l 1,14,-1
 664 679 l 1,15,-1
 526 679 l 1,12,-1
678 831 m 1,16,-1
 678 969 l 1,17,-1
 816 969 l 1,18,-1
 816 831 l 1,19,-1
 678 831 l 1,16,-1
EndSplineSet
EndChar

StartChar: zero
Encoding: 48 48 19
Width: 857
GlyphClass: 1
Flags: W
LayerCount: 2
Fore
SplineSet
223 73 m 1,0,-1
 223 210 l 1,1,-1
 361 210 l 1,2,-1
 361 73 l 1,3,-1
 223 73 l 1,0,-1
375 73 m 1,4,-1
 375 210 l 1,5,-1
 512 210 l 1,6,-1
 512 73 l 1,7,-1
 375 73 l 1,4,-1
526 73 m 1,8,-1
 526 210 l 1,9,-1
 664 210 l 1,10,-1
 664 73 l 1,11,-1
 526 73 l 1,8,-1
72 224 m 1,12,-1
 72 361 l 1,13,-1
 209 361 l 1,14,-1
 209 224 l 1,15,-1
 72 224 l 1,12,-1
678 224 m 1,16,-1
 678 362 l 1,17,-1
 816 362 l 1,18,-1
 816 224 l 1,19,-1
 678 224 l 1,16,-1
72 375 m 1,20,-1
 72 513 l 1,21,-1
 209 513 l 1,22,-1
 209 375 l 1,23,-1
 72 375 l 1,20,-1
223 375 m 1,24,-1
 223 513 l 1,25,-1
 361 513 l 1,26,-1
 361 375 l 1,27,-1
 223 375 l 1,24,-1
678 376 m 1,28,-1
 678 514 l 1,29,-1
 816 514 l 1,30,-1
 816 376 l 1,31,-1
 678 376 l 1,28,-1
72 527 m 1,32,-1
 72 665 l 1,33,-1
 209 665 l 1,34,-1
 209 527 l 1,35,-1
 72 527 l 1,32,-1
375 527 m 1,36,-1
 375 665 l 1,37,-1
 512 665 l 1,38,-1
 512 527 l 1,39,-1
 375 527 l 1,36,-1
678 527 m 1,40,-1
 678 665 l 1,41,-1
 816 665 l 1,42,-1
 816 527 l 1,43,-1
 678 527 l 1,40,-1
72 678 m 1,44,-1
 72 816 l 1,45,-1
 209 816 l 1,46,-1
 209 678 l 1,47,-1
 72 678 l 1,44,-1
526 679 m 1,48,-1
 526 816 l 1,49,-1
 664 816 l 1,50,-1
 664 679 l 1,51,-1
 526 679 l 1,48,-1
678 679 m 1,52,-1
 678 817 l 1,53,-1
 816 817 l 1,54,-1
 816 679 l 1,55,-1
 678 679 l 1,52,-1
72 830 m 1,56,-1
 72 968 l 1,57,-1
 209 968 l 1,58,-1
 209 830 l 1,59,-1
 72 830 l 1,56,-1
678 830 m 1,60,-1
 678 968 l 1,61,-1
 816 968 l 1,62,-1
 816 830 l 1,63,-1
 678 830 l 1,60,-1
223 982 m 1,64,-1
 223 1120 l 1,65,-1
 361 1120 l 1,66,-1
 361 982 l 1,67,-1
 223 982 l 1,64,-1
375 982 m 1,68,-1
 375 1120 l 1,69,-1
 512 1120 l 1,70,-1
 512 982 l 1,71,-1
 375 982 l 1,68,-1
526 982 m 1,72,-1
 526 1120 l 1,73,-1
 664 1120 l 1,74,-1
 664 982 l 1,75,-1
 526 982 l 1,72,-1
EndSplineSet
EndChar

StartChar: one
Encoding: 49 49 20
Width: 857
GlyphClass: 1
Flags: W
LayerCount: 2
Fore
SplineSet
224 73 m 1,0,-1
 224 210 l 1,1,-1
 361 210 l 1,2,-1
 361 73 l 1,3,-1
 224 73 l 1,0,-1
375 73 m 1,4,-1
 375 210 l 1,5,-1
 513 210 l 1,6,-1
 513 73 l 1,7,-1
 375 73 l 1,4,-1
527 73 m 1,8,-1
 527 210 l 1,9,-1
 664 210 l 1,10,-1
 664 73 l 1,11,-1
 527 73 l 1,8,-1
375 224 m 1,12,-1
 375 362 l 1,13,-1
 513 362 l 1,14,-1
 513 224 l 1,15,-1
 375 224 l 1,12,-1
375 376 m 1,16,-1
 375 514 l 1,17,-1
 513 514 l 1,18,-1
 513 376 l 1,19,-1
 375 376 l 1,16,-1
375 527 m 1,20,-1
 375 665 l 1,21,-1
 513 665 l 1,22,-1
 513 527 l 1,23,-1
 375 527 l 1,20,-1
375 679 m 1,24,-1
 375 816 l 1,25,-1
 512 816 l 1,26,-1
 512 679 l 1,27,-1
 375 679 l 1,24,-1
224 830 m 1,28,-1
 224 968 l 1,29,-1
 361 968 l 1,30,-1
 361 830 l 1,31,-1
 224 830 l 1,28,-1
375 830 m 1,32,-1
 375 968 l 1,33,-1
 512 968 l 1,34,-1
 512 830 l 1,35,-1
 375 830 l 1,32,-1
375 982 m 1,36,-1
 375 1120 l 1,37,-1
 512 1120 l 1,38,-1
 512 982 l 1,39,-1
 375 982 l 1,36,-1
EndSplineSet
EndChar

StartChar: two
Encoding: 50 50 21
Width: 857
GlyphClass: 1
Flags: W
LayerCount: 2
Fore
SplineSet
72 73 m 1,0,-1
 72 210 l 1,1,-1
 209 210 l 1,2,-1
 209 73 l 1,3,-1
 72 73 l 1,0,-1
223 73 m 1,4,-1
 223 210 l 1,5,-1
 361 210 l 1,6,-1
 361 73 l 1,7,-1
 223 73 l 1,4,-1
375 73 m 1,8,-1
 375 210 l 1,9,-1
 512 210 l 1,10,-1
 512 73 l 1,11,-1
 375 73 l 1,8,-1
526 73 m 1,12,-1
 526 210 l 1,13,-1
 664 210 l 1,14,-1
 664 73 l 1,15,-1
 526 73 l 1,12,-1
678 73 m 1,16,-1
 678 210 l 1,17,-1
 816 210 l 1,18,-1
 816 73 l 1,19,-1
 678 73 l 1,16,-1
526 527 m 1,20,-1
 526 665 l 1,21,-1
 664 665 l 1,22,-1
 664 527 l 1,23,-1
 526 527 l 1,20,-1
678 679 m 1,24,-1
 678 817 l 1,25,-1
 816 817 l 1,26,-1
 816 679 l 1,27,-1
 678 679 l 1,24,-1
72 830 m 1,28,-1
 72 968 l 1,29,-1
 209 968 l 1,30,-1
 209 830 l 1,31,-1
 72 830 l 1,28,-1
678 830 m 1,32,-1
 678 968 l 1,33,-1
 816 968 l 1,34,-1
 816 830 l 1,35,-1
 678 830 l 1,32,-1
223 982 m 1,36,-1
 223 1120 l 1,37,-1
 361 1120 l 1,38,-1
 361 982 l 1,39,-1
 223 982 l 1,36,-1
375 982 m 1,40,-1
 375 1120 l 1,41,-1
 512 1120 l 1,42,-1
 512 982 l 1,43,-1
 375 982 l 1,40,-1
526 982 m 1,44,-1
 526 1120 l 1,45,-1
 664 1120 l 1,46,-1
 664 982 l 1,47,-1
 526 982 l 1,44,-1
72 224 m 1,48,-1
 72 362 l 1,49,-1
 209 362 l 1,50,-1
 209 224 l 1,51,-1
 72 224 l 1,48,-1
375 527 m 1,52,-1
 375 665 l 1,53,-1
 512 665 l 1,54,-1
 512 527 l 1,55,-1
 375 527 l 1,52,-1
223 376 m 1,56,-1
 223 513 l 1,57,-1
 361 513 l 1,58,-1
 361 376 l 1,59,-1
 223 376 l 1,56,-1
EndSplineSet
EndChar

StartChar: three
Encoding: 51 51 22
Width: 857
GlyphClass: 1
Flags: W
LayerCount: 2
Fore
SplineSet
223 73 m 1,0,-1
 223 210 l 1,1,-1
 361 210 l 1,2,-1
 361 73 l 1,3,-1
 223 73 l 1,0,-1
375 73 m 1,4,-1
 375 210 l 1,5,-1
 512 210 l 1,6,-1
 512 73 l 1,7,-1
 375 73 l 1,4,-1
526 73 m 1,8,-1
 526 210 l 1,9,-1
 664 210 l 1,10,-1
 664 73 l 1,11,-1
 526 73 l 1,8,-1
72 224 m 1,12,-1
 72 362 l 1,13,-1
 209 362 l 1,14,-1
 209 224 l 1,15,-1
 72 224 l 1,12,-1
678 224 m 1,16,-1
 678 362 l 1,17,-1
 816 362 l 1,18,-1
 816 224 l 1,19,-1
 678 224 l 1,16,-1
678 376 m 1,20,-1
 678 514 l 1,21,-1
 816 514 l 1,22,-1
 816 376 l 1,23,-1
 678 376 l 1,20,-1
375 527 m 1,24,-1
 375 665 l 1,25,-1
 512 665 l 1,26,-1
 512 527 l 1,27,-1
 375 527 l 1,24,-1
526 527 m 1,28,-1
 526 665 l 1,29,-1
 664 665 l 1,30,-1
 664 527 l 1,31,-1
 526 527 l 1,28,-1
678 679 m 1,32,-1
 678 817 l 1,33,-1
 816 817 l 1,34,-1
 816 679 l 1,35,-1
 678 679 l 1,32,-1
72 830 m 1,36,-1
 72 968 l 1,37,-1
 209 968 l 1,38,-1
 209 830 l 1,39,-1
 72 830 l 1,36,-1
678 830 m 1,40,-1
 678 968 l 1,41,-1
 816 968 l 1,42,-1
 816 830 l 1,43,-1
 678 830 l 1,40,-1
223 982 m 1,44,-1
 223 1120 l 1,45,-1
 361 1120 l 1,46,-1
 361 982 l 1,47,-1
 223 982 l 1,44,-1
375 982 m 1,48,-1
 375 1120 l 1,49,-1
 512 1120 l 1,50,-1
 512 982 l 1,51,-1
 375 982 l 1,48,-1
526 982 m 1,52,-1
 526 1120 l 1,53,-1
 664 1120 l 1,54,-1
 664 982 l 1,55,-1
 526 982 l 1,52,-1
EndSplineSet
EndChar

StartChar: four
Encoding: 52 52 23
Width: 857
GlyphClass: 1
Flags: W
LayerCount: 2
Fore
SplineSet
526 73 m 1,0,-1
 526 210 l 1,1,-1
 664 210 l 1,2,-1
 664 73 l 1,3,-1
 526 73 l 1,0,-1
526 224 m 1,4,-1
 526 362 l 1,5,-1
 664 362 l 1,6,-1
 664 224 l 1,7,-1
 526 224 l 1,4,-1
72 376 m 1,8,-1
 72 513 l 1,9,-1
 209 513 l 1,10,-1
 209 376 l 1,11,-1
 72 376 l 1,8,-1
223 376 m 1,12,-1
 223 513 l 1,13,-1
 361 513 l 1,14,-1
 361 376 l 1,15,-1
 223 376 l 1,12,-1
375 376 m 1,16,-1
 375 513 l 1,17,-1
 512 513 l 1,18,-1
 512 376 l 1,19,-1
 375 376 l 1,16,-1
526 376 m 1,20,-1
 526 514 l 1,21,-1
 664 514 l 1,22,-1
 664 376 l 1,23,-1
 526 376 l 1,20,-1
678 376 m 1,24,-1
 678 514 l 1,25,-1
 816 514 l 1,26,-1
 816 376 l 1,27,-1
 678 376 l 1,24,-1
72 527 m 1,28,-1
 72 665 l 1,29,-1
 209 665 l 1,30,-1
 209 527 l 1,31,-1
 72 527 l 1,28,-1
526 527 m 1,32,-1
 526 665 l 1,33,-1
 664 665 l 1,34,-1
 664 527 l 1,35,-1
 526 527 l 1,32,-1
223 679 m 1,36,-1
 223 816 l 1,37,-1
 361 816 l 1,38,-1
 361 679 l 1,39,-1
 223 679 l 1,36,-1
526 679 m 1,40,-1
 526 816 l 1,41,-1
 664 816 l 1,42,-1
 664 679 l 1,43,-1
 526 679 l 1,40,-1
375 830 m 1,44,-1
 375 968 l 1,45,-1
 512 968 l 1,46,-1
 512 830 l 1,47,-1
 375 830 l 1,44,-1
526 830 m 1,48,-1
 526 968 l 1,49,-1
 664 968 l 1,50,-1
 664 830 l 1,51,-1
 526 830 l 1,48,-1
526 982 m 1,52,-1
 526 1120 l 1,53,-1
 664 1120 l 1,54,-1
 664 982 l 1,55,-1
 526 982 l 1,52,-1
EndSplineSet
EndChar

StartChar: five
Encoding: 53 53 24
Width: 857
GlyphClass: 1
Flags: W
LayerCount: 2
Fore
SplineSet
223 73 m 1,0,-1
 223 210 l 1,1,-1
 361 210 l 1,2,-1
 361 73 l 1,3,-1
 223 73 l 1,0,-1
375 73 m 1,4,-1
 375 210 l 1,5,-1
 512 210 l 1,6,-1
 512 73 l 1,7,-1
 375 73 l 1,4,-1
526 73 m 1,8,-1
 526 210 l 1,9,-1
 664 210 l 1,10,-1
 664 73 l 1,11,-1
 526 73 l 1,8,-1
72 224 m 1,12,-1
 72 362 l 1,13,-1
 209 362 l 1,14,-1
 209 224 l 1,15,-1
 72 224 l 1,12,-1
678 224 m 1,16,-1
 678 362 l 1,17,-1
 816 362 l 1,18,-1
 816 224 l 1,19,-1
 678 224 l 1,16,-1
678 376 m 1,20,-1
 678 514 l 1,21,-1
 816 514 l 1,22,-1
 816 376 l 1,23,-1
 678 376 l 1,20,-1
678 527 m 1,24,-1
 678 665 l 1,25,-1
 816 665 l 1,26,-1
 816 527 l 1,27,-1
 678 527 l 1,24,-1
72 679 m 1,28,-1
 72 816 l 1,29,-1
 209 816 l 1,30,-1
 209 679 l 1,31,-1
 72 679 l 1,28,-1
223 679 m 1,32,-1
 223 816 l 1,33,-1
 361 816 l 1,34,-1
 361 679 l 1,35,-1
 223 679 l 1,32,-1
375 679 m 1,36,-1
 375 816 l 1,37,-1
 512 816 l 1,38,-1
 512 679 l 1,39,-1
 375 679 l 1,36,-1
526 679 m 1,40,-1
 526 816 l 1,41,-1
 664 816 l 1,42,-1
 664 679 l 1,43,-1
 526 679 l 1,40,-1
72 830 m 1,44,-1
 72 968 l 1,45,-1
 209 968 l 1,46,-1
 209 830 l 1,47,-1
 72 830 l 1,44,-1
72 981 m 1,48,-1
 72 1120 l 1,49,-1
 209 1120 l 1,50,-1
 209 981 l 1,51,-1
 72 981 l 1,48,-1
223 982 m 1,52,-1
 223 1120 l 1,53,-1
 361 1120 l 1,54,-1
 361 982 l 1,55,-1
 223 982 l 1,52,-1
375 982 m 1,56,-1
 375 1120 l 1,57,-1
 512 1120 l 1,58,-1
 512 982 l 1,59,-1
 375 982 l 1,56,-1
526 982 m 1,60,-1
 526 1120 l 1,61,-1
 664 1120 l 1,62,-1
 664 982 l 1,63,-1
 526 982 l 1,60,-1
678 982 m 1,64,-1
 678 1120 l 1,65,-1
 816 1120 l 1,66,-1
 816 982 l 1,67,-1
 678 982 l 1,64,-1
EndSplineSet
EndChar

StartChar: six
Encoding: 54 54 25
Width: 857
GlyphClass: 1
Flags: W
LayerCount: 2
Fore
SplineSet
223 73 m 1,0,-1
 223 210 l 1,1,-1
 361 210 l 1,2,-1
 361 73 l 1,3,-1
 223 73 l 1,0,-1
375 73 m 1,4,-1
 375 210 l 1,5,-1
 512 210 l 1,6,-1
 512 73 l 1,7,-1
 375 73 l 1,4,-1
526 73 m 1,8,-1
 526 210 l 1,9,-1
 664 210 l 1,10,-1
 664 73 l 1,11,-1
 526 73 l 1,8,-1
72 224 m 1,12,-1
 72 362 l 1,13,-1
 209 362 l 1,14,-1
 209 224 l 1,15,-1
 72 224 l 1,12,-1
678 224 m 1,16,-1
 678 362 l 1,17,-1
 816 362 l 1,18,-1
 816 224 l 1,19,-1
 678 224 l 1,16,-1
72 375 m 1,20,-1
 72 513 l 1,21,-1
 209 513 l 1,22,-1
 209 375 l 1,23,-1
 72 375 l 1,20,-1
678 376 m 1,24,-1
 678 514 l 1,25,-1
 816 514 l 1,26,-1
 816 376 l 1,27,-1
 678 376 l 1,24,-1
72 527 m 1,28,-1
 72 665 l 1,29,-1
 209 665 l 1,30,-1
 209 527 l 1,31,-1
 72 527 l 1,28,-1
223 527 m 1,32,-1
 223 665 l 1,33,-1
 361 665 l 1,34,-1
 361 527 l 1,35,-1
 223 527 l 1,32,-1
375 527 m 1,36,-1
 375 665 l 1,37,-1
 512 665 l 1,38,-1
 512 527 l 1,39,-1
 375 527 l 1,36,-1
526 527 m 1,40,-1
 526 665 l 1,41,-1
 664 665 l 1,42,-1
 664 527 l 1,43,-1
 526 527 l 1,40,-1
72 679 m 1,44,-1
 72 816 l 1,45,-1
 209 816 l 1,46,-1
 209 679 l 1,47,-1
 72 679 l 1,44,-1
223 830 m 1,48,-1
 223 968 l 1,49,-1
 361 968 l 1,50,-1
 361 830 l 1,51,-1
 223 830 l 1,48,-1
375 982 m 1,52,-1
 375 1120 l 1,53,-1
 512 1120 l 1,54,-1
 512 982 l 1,55,-1
 375 982 l 1,52,-1
526 982 m 1,56,-1
 526 1120 l 1,57,-1
 664 1120 l 1,58,-1
 664 982 l 1,59,-1
 526 982 l 1,56,-1
EndSplineSet
EndChar

StartChar: seven
Encoding: 55 55 26
Width: 857
GlyphClass: 1
Flags: W
LayerCount: 2
Fore
SplineSet
223 73 m 1,0,-1
 223 210 l 1,1,-1
 361 210 l 1,2,-1
 361 73 l 1,3,-1
 223 73 l 1,0,-1
223 224 m 1,4,-1
 223 362 l 1,5,-1
 361 362 l 1,6,-1
 361 224 l 1,7,-1
 223 224 l 1,4,-1
223 376 m 1,8,-1
 223 513 l 1,9,-1
 361 513 l 1,10,-1
 361 376 l 1,11,-1
 223 376 l 1,8,-1
375 527 m 1,12,-1
 375 665 l 1,13,-1
 513 665 l 1,14,-1
 513 527 l 1,15,-1
 375 527 l 1,12,-1
526 679 m 1,16,-1
 526 817 l 1,17,-1
 664 817 l 1,18,-1
 664 679 l 1,19,-1
 526 679 l 1,16,-1
678 831 m 1,20,-1
 678 968 l 1,21,-1
 816 968 l 1,22,-1
 816 831 l 1,23,-1
 678 831 l 1,20,-1
72 982 m 1,24,-1
 72 1120 l 1,25,-1
 209 1120 l 1,26,-1
 209 982 l 1,27,-1
 72 982 l 1,24,-1
223 982 m 1,28,-1
 223 1120 l 1,29,-1
 361 1120 l 1,30,-1
 361 982 l 1,31,-1
 223 982 l 1,28,-1
375 982 m 1,32,-1
 375 1120 l 1,33,-1
 512 1120 l 1,34,-1
 512 982 l 1,35,-1
 375 982 l 1,32,-1
526 982 m 1,36,-1
 526 1120 l 1,37,-1
 664 1120 l 1,38,-1
 664 982 l 1,39,-1
 526 982 l 1,36,-1
678 982 m 1,40,-1
 678 1120 l 1,41,-1
 816 1120 l 1,42,-1
 816 982 l 1,43,-1
 678 982 l 1,40,-1
EndSplineSet
EndChar

StartChar: eight
Encoding: 56 56 27
Width: 857
GlyphClass: 1
Flags: W
LayerCount: 2
Fore
SplineSet
223 73 m 1,0,-1
 223 210 l 1,1,-1
 361 210 l 1,2,-1
 361 73 l 1,3,-1
 223 73 l 1,0,-1
375 73 m 1,4,-1
 375 210 l 1,5,-1
 512 210 l 1,6,-1
 512 73 l 1,7,-1
 375 73 l 1,4,-1
526 73 m 1,8,-1
 526 210 l 1,9,-1
 664 210 l 1,10,-1
 664 73 l 1,11,-1
 526 73 l 1,8,-1
72 224 m 1,12,-1
 72 362 l 1,13,-1
 209 362 l 1,14,-1
 209 224 l 1,15,-1
 72 224 l 1,12,-1
678 224 m 1,16,-1
 678 362 l 1,17,-1
 816 362 l 1,18,-1
 816 224 l 1,19,-1
 678 224 l 1,16,-1
72 375 m 1,20,-1
 72 513 l 1,21,-1
 209 513 l 1,22,-1
 209 375 l 1,23,-1
 72 375 l 1,20,-1
678 376 m 1,24,-1
 678 514 l 1,25,-1
 816 514 l 1,26,-1
 816 376 l 1,27,-1
 678 376 l 1,24,-1
223 527 m 1,28,-1
 223 665 l 1,29,-1
 361 665 l 1,30,-1
 361 527 l 1,31,-1
 223 527 l 1,28,-1
375 527 m 1,32,-1
 375 665 l 1,33,-1
 512 665 l 1,34,-1
 512 527 l 1,35,-1
 375 527 l 1,32,-1
526 527 m 1,36,-1
 526 665 l 1,37,-1
 664 665 l 1,38,-1
 664 527 l 1,39,-1
 526 527 l 1,36,-1
72 679 m 1,40,-1
 72 816 l 1,41,-1
 209 816 l 1,42,-1
 209 679 l 1,43,-1
 72 679 l 1,40,-1
678 679 m 1,44,-1
 678 817 l 1,45,-1
 816 817 l 1,46,-1
 816 679 l 1,47,-1
 678 679 l 1,44,-1
72 830 m 1,48,-1
 72 968 l 1,49,-1
 209 968 l 1,50,-1
 209 830 l 1,51,-1
 72 830 l 1,48,-1
678 830 m 1,52,-1
 678 968 l 1,53,-1
 816 968 l 1,54,-1
 816 830 l 1,55,-1
 678 830 l 1,52,-1
223 982 m 1,56,-1
 223 1120 l 1,57,-1
 361 1120 l 1,58,-1
 361 982 l 1,59,-1
 223 982 l 1,56,-1
375 982 m 1,60,-1
 375 1120 l 1,61,-1
 512 1120 l 1,62,-1
 512 982 l 1,63,-1
 375 982 l 1,60,-1
526 982 m 1,64,-1
 526 1120 l 1,65,-1
 664 1120 l 1,66,-1
 664 982 l 1,67,-1
 526 982 l 1,64,-1
EndSplineSet
EndChar

StartChar: nine
Encoding: 57 57 28
Width: 857
GlyphClass: 1
Flags: W
LayerCount: 2
Fore
SplineSet
223 73 m 1,0,-1
 223 210 l 1,1,-1
 361 210 l 1,2,-1
 361 73 l 1,3,-1
 223 73 l 1,0,-1
375 73 m 1,4,-1
 375 210 l 1,5,-1
 513 210 l 1,6,-1
 513 73 l 1,7,-1
 375 73 l 1,4,-1
527 224 m 1,8,-1
 527 362 l 1,9,-1
 665 362 l 1,10,-1
 665 224 l 1,11,-1
 527 224 l 1,8,-1
679 376 m 1,12,-1
 679 514 l 1,13,-1
 816 514 l 1,14,-1
 816 376 l 1,15,-1
 679 376 l 1,12,-1
223 527 m 1,16,-1
 223 665 l 1,17,-1
 361 665 l 1,18,-1
 361 527 l 1,19,-1
 223 527 l 1,16,-1
375 527 m 1,20,-1
 375 665 l 1,21,-1
 513 665 l 1,22,-1
 513 527 l 1,23,-1
 375 527 l 1,20,-1
527 527 m 1,24,-1
 527 665 l 1,25,-1
 665 665 l 1,26,-1
 665 527 l 1,27,-1
 527 527 l 1,24,-1
679 527 m 1,28,-1
 679 665 l 1,29,-1
 816 665 l 1,30,-1
 816 527 l 1,31,-1
 679 527 l 1,28,-1
72 679 m 1,32,-1
 72 816 l 1,33,-1
 210 816 l 1,34,-1
 210 679 l 1,35,-1
 72 679 l 1,32,-1
678 679 m 1,36,-1
 678 817 l 1,37,-1
 816 817 l 1,38,-1
 816 679 l 1,39,-1
 678 679 l 1,36,-1
72 830 m 1,40,-1
 72 968 l 1,41,-1
 210 968 l 1,42,-1
 210 830 l 1,43,-1
 72 830 l 1,40,-1
678 830 m 1,44,-1
 678 968 l 1,45,-1
 816 968 l 1,46,-1
 816 830 l 1,47,-1
 678 830 l 1,44,-1
223 982 m 1,48,-1
 223 1120 l 1,49,-1
 361 1120 l 1,50,-1
 361 982 l 1,51,-1
 223 982 l 1,48,-1
375 982 m 1,52,-1
 375 1120 l 1,53,-1
 513 1120 l 1,54,-1
 513 982 l 1,55,-1
 375 982 l 1,52,-1
527 982 m 1,56,-1
 527 1120 l 1,57,-1
 665 1120 l 1,58,-1
 665 982 l 1,59,-1
 527 982 l 1,56,-1
EndSplineSet
EndChar

StartChar: colon
Encoding: 59 59 29
Width: 857
GlyphClass: 1
Flags: W
LayerCount: 2
Fore
SplineSet
224 224 m 1,0,-1
 224 362 l 1,1,-1
 361 362 l 1,2,-1
 361 224 l 1,3,-1
 224 224 l 1,0,-1
375 224 m 1,4,-1
 375 362 l 1,5,-1
 513 362 l 1,6,-1
 513 224 l 1,7,-1
 375 224 l 1,4,-1
224 376 m 1,8,-1
 224 514 l 1,9,-1
 361 514 l 1,10,-1
 361 376 l 1,11,-1
 224 376 l 1,8,-1
375 376 m 1,12,-1
 375 514 l 1,13,-1
 513 514 l 1,14,-1
 513 376 l 1,15,-1
 375 376 l 1,12,-1
224 679 m 1,16,-1
 224 816 l 1,17,-1
 361 816 l 1,18,-1
 361 679 l 1,19,-1
 224 679 l 1,16,-1
375 679 m 1,20,-1
 375 817 l 1,21,-1
 513 817 l 1,22,-1
 513 679 l 1,23,-1
 375 679 l 1,20,-1
224 830 m 1,24,-1
 224 969 l 1,25,-1
 361 969 l 1,26,-1
 361 830 l 1,27,-1
 224 830 l 1,24,-1
375 830 m 1,28,-1
 375 969 l 1,29,-1
 513 969 l 1,30,-1
 513 830 l 1,31,-1
 375 830 l 1,28,-1
375 74 m 1,32,-1
 375 211 l 1,33,-1
 513 211 l 1,34,-1
 513 74 l 1,35,-1
 375 74 l 1,32,-1
224 -73 m 1,36,-1
 224 64 l 1,37,-1
 362 64 l 1,38,-1
 362 -73 l 1,39,-1
 224 -73 l 1,36,-1
EndSplineSet
EndChar

StartChar: semicolon
Encoding: 58 58 30
Width: 857
GlyphClass: 1
Flags: W
LayerCount: 2
Fore
SplineSet
224 224 m 1,0,-1
 224 362 l 1,1,-1
 361 362 l 1,2,-1
 361 224 l 1,3,-1
 224 224 l 1,0,-1
375 224 m 1,4,-1
 375 362 l 1,5,-1
 513 362 l 1,6,-1
 513 224 l 1,7,-1
 375 224 l 1,4,-1
224 376 m 1,8,-1
 224 514 l 1,9,-1
 361 514 l 1,10,-1
 361 376 l 1,11,-1
 224 376 l 1,8,-1
375 376 m 1,12,-1
 375 514 l 1,13,-1
 513 514 l 1,14,-1
 513 376 l 1,15,-1
 375 376 l 1,12,-1
224 679 m 1,16,-1
 224 816 l 1,17,-1
 361 816 l 1,18,-1
 361 679 l 1,19,-1
 224 679 l 1,16,-1
375 679 m 1,20,-1
 375 817 l 1,21,-1
 513 817 l 1,22,-1
 513 679 l 1,23,-1
 375 679 l 1,20,-1
224 830 m 1,24,-1
 224 969 l 1,25,-1
 361 969 l 1,26,-1
 361 830 l 1,27,-1
 224 830 l 1,24,-1
375 830 m 1,28,-1
 375 969 l 1,29,-1
 513 969 l 1,30,-1
 513 830 l 1,31,-1
 375 830 l 1,28,-1
EndSplineSet
EndChar

StartChar: less
Encoding: 60 60 31
Width: 857
GlyphClass: 1
Flags: W
LayerCount: 2
Fore
SplineSet
527 73 m 1,0,-1
 527 210 l 1,1,-1
 664 210 l 1,2,-1
 664 73 l 1,3,-1
 527 73 l 1,0,-1
375 224 m 1,4,-1
 375 362 l 1,5,-1
 513 362 l 1,6,-1
 513 224 l 1,7,-1
 375 224 l 1,4,-1
223 376 m 1,8,-1
 223 514 l 1,9,-1
 361 514 l 1,10,-1
 361 376 l 1,11,-1
 223 376 l 1,8,-1
72 527 m 1,12,-1
 72 665 l 1,13,-1
 210 665 l 1,14,-1
 210 527 l 1,15,-1
 72 527 l 1,12,-1
223 679 m 1,16,-1
 223 817 l 1,17,-1
 361 817 l 1,18,-1
 361 679 l 1,19,-1
 223 679 l 1,16,-1
375 830 m 1,20,-1
 375 968 l 1,21,-1
 513 968 l 1,22,-1
 513 830 l 1,23,-1
 375 830 l 1,20,-1
526 982 m 1,24,-1
 526 1120 l 1,25,-1
 664 1120 l 1,26,-1
 664 982 l 1,27,-1
 526 982 l 1,24,-1
EndSplineSet
EndChar

StartChar: equal
Encoding: 61 61 32
Width: 857
GlyphClass: 1
Flags: W
LayerCount: 2
Fore
SplineSet
72 376 m 1,0,-1
 72 513 l 1,1,-1
 210 513 l 1,2,-1
 210 376 l 1,3,-1
 72 376 l 1,0,-1
223 376 m 1,4,-1
 223 514 l 1,5,-1
 361 514 l 1,6,-1
 361 376 l 1,7,-1
 223 376 l 1,4,-1
375 376 m 1,8,-1
 375 514 l 1,9,-1
 513 514 l 1,10,-1
 513 376 l 1,11,-1
 375 376 l 1,8,-1
526 376 m 1,12,-1
 526 514 l 1,13,-1
 664 514 l 1,14,-1
 664 376 l 1,15,-1
 526 376 l 1,12,-1
678 376 m 1,16,-1
 678 514 l 1,17,-1
 816 514 l 1,18,-1
 816 376 l 1,19,-1
 678 376 l 1,16,-1
72 679 m 1,20,-1
 72 817 l 1,21,-1
 210 817 l 1,22,-1
 210 679 l 1,23,-1
 72 679 l 1,20,-1
223 679 m 1,24,-1
 223 817 l 1,25,-1
 361 817 l 1,26,-1
 361 679 l 1,27,-1
 223 679 l 1,24,-1
375 679 m 1,28,-1
 375 817 l 1,29,-1
 512 817 l 1,30,-1
 512 679 l 1,31,-1
 375 679 l 1,28,-1
526 679 m 1,32,-1
 526 817 l 1,33,-1
 664 817 l 1,34,-1
 664 679 l 1,35,-1
 526 679 l 1,32,-1
678 679 m 1,36,-1
 678 817 l 1,37,-1
 816 817 l 1,38,-1
 816 679 l 1,39,-1
 678 679 l 1,36,-1
EndSplineSet
EndChar

StartChar: greater
Encoding: 62 62 33
Width: 857
GlyphClass: 1
Flags: W
LayerCount: 2
Fore
SplineSet
72 73 m 1,0,-1
 72 210 l 1,1,-1
 210 210 l 1,2,-1
 210 73 l 1,3,-1
 72 73 l 1,0,-1
223 224 m 1,4,-1
 223 362 l 1,5,-1
 361 362 l 1,6,-1
 361 224 l 1,7,-1
 223 224 l 1,4,-1
375 376 m 1,8,-1
 375 514 l 1,9,-1
 513 514 l 1,10,-1
 513 376 l 1,11,-1
 375 376 l 1,8,-1
527 527 m 1,12,-1
 527 665 l 1,13,-1
 664 665 l 1,14,-1
 664 527 l 1,15,-1
 527 527 l 1,12,-1
375 679 m 1,16,-1
 375 817 l 1,17,-1
 513 817 l 1,18,-1
 513 679 l 1,19,-1
 375 679 l 1,16,-1
223 830 m 1,20,-1
 223 968 l 1,21,-1
 361 968 l 1,22,-1
 361 830 l 1,23,-1
 223 830 l 1,20,-1
72 982 m 1,24,-1
 72 1120 l 1,25,-1
 210 1120 l 1,26,-1
 210 982 l 1,27,-1
 72 982 l 1,24,-1
EndSplineSet
EndChar

StartChar: question
Encoding: 63 63 34
Width: 857
GlyphClass: 1
Flags: W
LayerCount: 2
Fore
SplineSet
375 73 m 1,0,-1
 375 210 l 1,1,-1
 513 210 l 1,2,-1
 513 73 l 1,3,-1
 375 73 l 1,0,-1
375 376 m 1,4,-1
 375 514 l 1,5,-1
 512 514 l 1,6,-1
 512 376 l 1,7,-1
 375 376 l 1,4,-1
526 527 m 1,8,-1
 526 665 l 1,9,-1
 664 665 l 1,10,-1
 664 527 l 1,11,-1
 526 527 l 1,8,-1
678 679 m 1,12,-1
 678 817 l 1,13,-1
 816 817 l 1,14,-1
 816 679 l 1,15,-1
 678 679 l 1,12,-1
72 830 m 1,16,-1
 72 968 l 1,17,-1
 210 968 l 1,18,-1
 210 830 l 1,19,-1
 72 830 l 1,16,-1
678 830 m 1,20,-1
 678 968 l 1,21,-1
 816 968 l 1,22,-1
 816 830 l 1,23,-1
 678 830 l 1,20,-1
223 982 m 1,24,-1
 223 1120 l 1,25,-1
 361 1120 l 1,26,-1
 361 982 l 1,27,-1
 223 982 l 1,24,-1
375 982 m 1,28,-1
 375 1120 l 1,29,-1
 512 1120 l 1,30,-1
 512 982 l 1,31,-1
 375 982 l 1,28,-1
526 982 m 1,32,-1
 526 1120 l 1,33,-1
 664 1120 l 1,34,-1
 664 982 l 1,35,-1
 526 982 l 1,32,-1
EndSplineSet
EndChar

StartChar: at
Encoding: 64 64 35
Width: 857
GlyphClass: 1
Flags: W
LayerCount: 2
Fore
SplineSet
223 73 m 1,0,-1
 223 210 l 1,1,-1
 361 210 l 1,2,-1
 361 73 l 1,3,-1
 223 73 l 1,0,-1
375 73 m 1,4,-1
 375 210 l 1,5,-1
 512 210 l 1,6,-1
 512 73 l 1,7,-1
 375 73 l 1,4,-1
526 73 m 1,8,-1
 526 210 l 1,9,-1
 664 210 l 1,10,-1
 664 73 l 1,11,-1
 526 73 l 1,8,-1
72 224 m 1,12,-1
 72 361 l 1,13,-1
 209 361 l 1,14,-1
 209 224 l 1,15,-1
 72 224 l 1,12,-1
678 224 m 1,16,-1
 678 362 l 1,17,-1
 816 362 l 1,18,-1
 816 224 l 1,19,-1
 678 224 l 1,16,-1
72 375 m 1,20,-1
 72 513 l 1,21,-1
 209 513 l 1,22,-1
 209 375 l 1,23,-1
 72 375 l 1,20,-1
375 375 m 1,24,-1
 375 513 l 1,25,-1
 512 513 l 1,26,-1
 512 375 l 1,27,-1
 375 375 l 1,24,-1
526 376 m 1,28,-1
 526 514 l 1,29,-1
 664 514 l 1,30,-1
 664 376 l 1,31,-1
 526 376 l 1,28,-1
72 527 m 1,32,-1
 72 665 l 1,33,-1
 209 665 l 1,34,-1
 209 527 l 1,35,-1
 72 527 l 1,32,-1
375 527 m 1,36,-1
 375 665 l 1,37,-1
 512 665 l 1,38,-1
 512 527 l 1,39,-1
 375 527 l 1,36,-1
678 527 m 1,40,-1
 678 665 l 1,41,-1
 816 665 l 1,42,-1
 816 527 l 1,43,-1
 678 527 l 1,40,-1
72 678 m 1,44,-1
 72 816 l 1,45,-1
 209 816 l 1,46,-1
 209 678 l 1,47,-1
 72 678 l 1,44,-1
375 679 m 1,48,-1
 375 816 l 1,49,-1
 512 816 l 1,50,-1
 512 679 l 1,51,-1
 375 679 l 1,48,-1
526 679 m 1,52,-1
 526 816 l 1,53,-1
 664 816 l 1,54,-1
 664 679 l 1,55,-1
 526 679 l 1,52,-1
678 679 m 1,56,-1
 678 817 l 1,57,-1
 816 817 l 1,58,-1
 816 679 l 1,59,-1
 678 679 l 1,56,-1
72 830 m 1,60,-1
 72 968 l 1,61,-1
 209 968 l 1,62,-1
 209 830 l 1,63,-1
 72 830 l 1,60,-1
678 830 m 1,64,-1
 678 968 l 1,65,-1
 816 968 l 1,66,-1
 816 830 l 1,67,-1
 678 830 l 1,64,-1
223 981 m 1,68,-1
 223 1120 l 1,69,-1
 361 1120 l 1,70,-1
 361 981 l 1,71,-1
 223 981 l 1,68,-1
375 982 m 1,72,-1
 375 1120 l 1,73,-1
 512 1120 l 1,74,-1
 512 982 l 1,75,-1
 375 982 l 1,72,-1
526 982 m 1,76,-1
 526 1120 l 1,77,-1
 664 1120 l 1,78,-1
 664 982 l 1,79,-1
 526 982 l 1,76,-1
EndSplineSet
EndChar

StartChar: A
Encoding: 65 65 36
Width: 857
GlyphClass: 1
Flags: W
LayerCount: 2
Fore
SplineSet
72 73 m 1,0,-1
 72 210 l 1,1,-1
 209 210 l 1,2,-1
 209 73 l 1,3,-1
 72 73 l 1,0,-1
678 73 m 1,4,-1
 678 210 l 1,5,-1
 816 210 l 1,6,-1
 816 73 l 1,7,-1
 678 73 l 1,4,-1
72 224 m 1,8,-1
 72 362 l 1,9,-1
 209 362 l 1,10,-1
 209 224 l 1,11,-1
 72 224 l 1,8,-1
678 224 m 1,12,-1
 678 362 l 1,13,-1
 816 362 l 1,14,-1
 816 224 l 1,15,-1
 678 224 l 1,12,-1
72 375 m 1,16,-1
 72 513 l 1,17,-1
 209 513 l 1,18,-1
 209 375 l 1,19,-1
 72 375 l 1,16,-1
223 375 m 1,20,-1
 223 513 l 1,21,-1
 361 513 l 1,22,-1
 361 375 l 1,23,-1
 223 375 l 1,20,-1
375 376 m 1,24,-1
 375 513 l 1,25,-1
 512 513 l 1,26,-1
 512 376 l 1,27,-1
 375 376 l 1,24,-1
526 376 m 1,28,-1
 526 514 l 1,29,-1
 664 514 l 1,30,-1
 664 376 l 1,31,-1
 526 376 l 1,28,-1
678 376 m 1,32,-1
 678 514 l 1,33,-1
 816 514 l 1,34,-1
 816 376 l 1,35,-1
 678 376 l 1,32,-1
72 527 m 1,36,-1
 72 665 l 1,37,-1
 209 665 l 1,38,-1
 209 527 l 1,39,-1
 72 527 l 1,36,-1
678 527 m 1,40,-1
 678 665 l 1,41,-1
 816 665 l 1,42,-1
 816 527 l 1,43,-1
 678 527 l 1,40,-1
72 679 m 1,44,-1
 72 816 l 1,45,-1
 209 816 l 1,46,-1
 209 679 l 1,47,-1
 72 679 l 1,44,-1
678 679 m 1,48,-1
 678 817 l 1,49,-1
 816 817 l 1,50,-1
 816 679 l 1,51,-1
 678 679 l 1,48,-1
223 830 m 1,52,-1
 223 968 l 1,53,-1
 360 968 l 1,54,-1
 360 830 l 1,55,-1
 223 830 l 1,52,-1
526 832 m 1,56,-1
 526 970 l 1,57,-1
 664 970 l 1,58,-1
 664 832 l 1,59,-1
 526 832 l 1,56,-1
375 982 m 1,60,-1
 375 1120 l 1,61,-1
 512 1120 l 1,62,-1
 512 982 l 1,63,-1
 375 982 l 1,60,-1
EndSplineSet
EndChar

StartChar: B
Encoding: 66 66 37
Width: 857
GlyphClass: 1
Flags: W
LayerCount: 2
Fore
SplineSet
72 73 m 1,0,-1
 72 210 l 1,1,-1
 209 210 l 1,2,-1
 209 73 l 1,3,-1
 72 73 l 1,0,-1
223 73 m 1,4,-1
 223 210 l 1,5,-1
 361 210 l 1,6,-1
 361 73 l 1,7,-1
 223 73 l 1,4,-1
375 73 m 1,8,-1
 375 210 l 1,9,-1
 512 210 l 1,10,-1
 512 73 l 1,11,-1
 375 73 l 1,8,-1
526 73 m 1,12,-1
 526 210 l 1,13,-1
 664 210 l 1,14,-1
 664 73 l 1,15,-1
 526 73 l 1,12,-1
72 224 m 1,16,-1
 72 361 l 1,17,-1
 209 361 l 1,18,-1
 209 224 l 1,19,-1
 72 224 l 1,16,-1
678 224 m 1,20,-1
 678 362 l 1,21,-1
 816 362 l 1,22,-1
 816 224 l 1,23,-1
 678 224 l 1,20,-1
72 375 m 1,24,-1
 72 513 l 1,25,-1
 209 513 l 1,26,-1
 209 375 l 1,27,-1
 72 375 l 1,24,-1
678 376 m 1,28,-1
 678 514 l 1,29,-1
 816 514 l 1,30,-1
 816 376 l 1,31,-1
 678 376 l 1,28,-1
72 527 m 1,32,-1
 72 665 l 1,33,-1
 209 665 l 1,34,-1
 209 527 l 1,35,-1
 72 527 l 1,32,-1
223 527 m 1,36,-1
 223 665 l 1,37,-1
 361 665 l 1,38,-1
 361 527 l 1,39,-1
 223 527 l 1,36,-1
375 527 m 1,40,-1
 375 665 l 1,41,-1
 512 665 l 1,42,-1
 512 527 l 1,43,-1
 375 527 l 1,40,-1
526 527 m 1,44,-1
 526 665 l 1,45,-1
 664 665 l 1,46,-1
 664 527 l 1,47,-1
 526 527 l 1,44,-1
72 678 m 1,48,-1
 72 816 l 1,49,-1
 209 816 l 1,50,-1
 209 678 l 1,51,-1
 72 678 l 1,48,-1
678 679 m 1,52,-1
 678 817 l 1,53,-1
 816 817 l 1,54,-1
 816 679 l 1,55,-1
 678 679 l 1,52,-1
72 830 m 1,56,-1
 72 968 l 1,57,-1
 209 968 l 1,58,-1
 209 830 l 1,59,-1
 72 830 l 1,56,-1
678 830 m 1,60,-1
 678 968 l 1,61,-1
 816 968 l 1,62,-1
 816 830 l 1,63,-1
 678 830 l 1,60,-1
72 981 m 1,64,-1
 72 1120 l 1,65,-1
 209 1120 l 1,66,-1
 209 981 l 1,67,-1
 72 981 l 1,64,-1
223 982 m 1,68,-1
 223 1120 l 1,69,-1
 361 1120 l 1,70,-1
 361 982 l 1,71,-1
 223 982 l 1,68,-1
375 982 m 1,72,-1
 375 1120 l 1,73,-1
 512 1120 l 1,74,-1
 512 982 l 1,75,-1
 375 982 l 1,72,-1
526 982 m 1,76,-1
 526 1120 l 1,77,-1
 664 1120 l 1,78,-1
 664 982 l 1,79,-1
 526 982 l 1,76,-1
EndSplineSet
EndChar

StartChar: C
Encoding: 67 67 38
Width: 857
GlyphClass: 1
Flags: W
LayerCount: 2
Fore
SplineSet
223 73 m 1,0,-1
 223 210 l 1,1,-1
 361 210 l 1,2,-1
 361 73 l 1,3,-1
 223 73 l 1,0,-1
375 73 m 1,4,-1
 375 210 l 1,5,-1
 513 210 l 1,6,-1
 513 73 l 1,7,-1
 375 73 l 1,4,-1
526 73 m 1,8,-1
 526 210 l 1,9,-1
 664 210 l 1,10,-1
 664 73 l 1,11,-1
 526 73 l 1,8,-1
72 224 m 1,12,-1
 72 362 l 1,13,-1
 210 362 l 1,14,-1
 210 224 l 1,15,-1
 72 224 l 1,12,-1
678 224 m 1,16,-1
 678 362 l 1,17,-1
 816 362 l 1,18,-1
 816 224 l 1,19,-1
 678 224 l 1,16,-1
72 376 m 1,20,-1
 72 513 l 1,21,-1
 209 513 l 1,22,-1
 209 376 l 1,23,-1
 72 376 l 1,20,-1
72 527 m 1,24,-1
 72 665 l 1,25,-1
 209 665 l 1,26,-1
 209 527 l 1,27,-1
 72 527 l 1,24,-1
72 679 m 1,28,-1
 72 816 l 1,29,-1
 209 816 l 1,30,-1
 209 679 l 1,31,-1
 72 679 l 1,28,-1
72 830 m 1,32,-1
 72 968 l 1,33,-1
 209 968 l 1,34,-1
 209 830 l 1,35,-1
 72 830 l 1,32,-1
678 830 m 1,36,-1
 678 968 l 1,37,-1
 816 968 l 1,38,-1
 816 830 l 1,39,-1
 678 830 l 1,36,-1
223 982 m 1,40,-1
 223 1120 l 1,41,-1
 361 1120 l 1,42,-1
 361 982 l 1,43,-1
 223 982 l 1,40,-1
375 982 m 1,44,-1
 375 1120 l 1,45,-1
 512 1120 l 1,46,-1
 512 982 l 1,47,-1
 375 982 l 1,44,-1
526 982 m 1,48,-1
 526 1120 l 1,49,-1
 664 1120 l 1,50,-1
 664 982 l 1,51,-1
 526 982 l 1,48,-1
EndSplineSet
EndChar

StartChar: D
Encoding: 68 68 39
Width: 857
GlyphClass: 1
Flags: W
LayerCount: 2
Fore
SplineSet
72 73 m 1,0,-1
 72 210 l 1,1,-1
 209 210 l 1,2,-1
 209 73 l 1,3,-1
 72 73 l 1,0,-1
223 73 m 1,4,-1
 223 210 l 1,5,-1
 361 210 l 1,6,-1
 361 73 l 1,7,-1
 223 73 l 1,4,-1
375 73 m 1,8,-1
 375 210 l 1,9,-1
 512 210 l 1,10,-1
 512 73 l 1,11,-1
 375 73 l 1,8,-1
72 224 m 1,12,-1
 72 362 l 1,13,-1
 209 362 l 1,14,-1
 209 224 l 1,15,-1
 72 224 l 1,12,-1
526 224 m 1,16,-1
 526 362 l 1,17,-1
 664 362 l 1,18,-1
 664 224 l 1,19,-1
 526 224 l 1,16,-1
72 375 m 1,20,-1
 72 513 l 1,21,-1
 209 513 l 1,22,-1
 209 375 l 1,23,-1
 72 375 l 1,20,-1
678 376 m 1,24,-1
 678 514 l 1,25,-1
 816 514 l 1,26,-1
 816 376 l 1,27,-1
 678 376 l 1,24,-1
72 527 m 1,28,-1
 72 665 l 1,29,-1
 209 665 l 1,30,-1
 209 527 l 1,31,-1
 72 527 l 1,28,-1
678 527 m 1,32,-1
 678 665 l 1,33,-1
 816 665 l 1,34,-1
 816 527 l 1,35,-1
 678 527 l 1,32,-1
72 679 m 1,36,-1
 72 816 l 1,37,-1
 209 816 l 1,38,-1
 209 679 l 1,39,-1
 72 679 l 1,36,-1
678 679 m 1,40,-1
 678 817 l 1,41,-1
 816 817 l 1,42,-1
 816 679 l 1,43,-1
 678 679 l 1,40,-1
72 830 m 1,44,-1
 72 968 l 1,45,-1
 209 968 l 1,46,-1
 209 830 l 1,47,-1
 72 830 l 1,44,-1
526 830 m 1,48,-1
 526 968 l 1,49,-1
 664 968 l 1,50,-1
 664 830 l 1,51,-1
 526 830 l 1,48,-1
72 981 m 1,52,-1
 72 1120 l 1,53,-1
 209 1120 l 1,54,-1
 209 981 l 1,55,-1
 72 981 l 1,52,-1
223 982 m 1,56,-1
 223 1120 l 1,57,-1
 361 1120 l 1,58,-1
 361 982 l 1,59,-1
 223 982 l 1,56,-1
375 982 m 1,60,-1
 375 1120 l 1,61,-1
 512 1120 l 1,62,-1
 512 982 l 1,63,-1
 375 982 l 1,60,-1
EndSplineSet
EndChar

StartChar: E
Encoding: 69 69 40
Width: 857
GlyphClass: 1
Flags: W
LayerCount: 2
Fore
SplineSet
72 73 m 1,0,-1
 72 210 l 1,1,-1
 209 210 l 1,2,-1
 209 73 l 1,3,-1
 72 73 l 1,0,-1
223 73 m 1,4,-1
 223 210 l 1,5,-1
 361 210 l 1,6,-1
 361 73 l 1,7,-1
 223 73 l 1,4,-1
375 73 m 1,8,-1
 375 210 l 1,9,-1
 512 210 l 1,10,-1
 512 73 l 1,11,-1
 375 73 l 1,8,-1
526 73 m 1,12,-1
 526 210 l 1,13,-1
 664 210 l 1,14,-1
 664 73 l 1,15,-1
 526 73 l 1,12,-1
678 73 m 1,16,-1
 678 210 l 1,17,-1
 816 210 l 1,18,-1
 816 73 l 1,19,-1
 678 73 l 1,16,-1
72 224 m 1,20,-1
 72 362 l 1,21,-1
 209 362 l 1,22,-1
 209 224 l 1,23,-1
 72 224 l 1,20,-1
72 375 m 1,24,-1
 72 513 l 1,25,-1
 209 513 l 1,26,-1
 209 375 l 1,27,-1
 72 375 l 1,24,-1
72 527 m 1,28,-1
 72 665 l 1,29,-1
 209 665 l 1,30,-1
 209 527 l 1,31,-1
 72 527 l 1,28,-1
223 527 m 1,32,-1
 223 665 l 1,33,-1
 361 665 l 1,34,-1
 361 527 l 1,35,-1
 223 527 l 1,32,-1
375 527 m 1,36,-1
 375 665 l 1,37,-1
 512 665 l 1,38,-1
 512 527 l 1,39,-1
 375 527 l 1,36,-1
526 527 m 1,40,-1
 526 665 l 1,41,-1
 664 665 l 1,42,-1
 664 527 l 1,43,-1
 526 527 l 1,40,-1
72 679 m 1,44,-1
 72 816 l 1,45,-1
 209 816 l 1,46,-1
 209 679 l 1,47,-1
 72 679 l 1,44,-1
72 830 m 1,48,-1
 72 968 l 1,49,-1
 209 968 l 1,50,-1
 209 830 l 1,51,-1
 72 830 l 1,48,-1
72 981 m 1,52,-1
 72 1120 l 1,53,-1
 209 1120 l 1,54,-1
 209 981 l 1,55,-1
 72 981 l 1,52,-1
223 982 m 1,56,-1
 223 1120 l 1,57,-1
 361 1120 l 1,58,-1
 361 982 l 1,59,-1
 223 982 l 1,56,-1
375 982 m 1,60,-1
 375 1120 l 1,61,-1
 512 1120 l 1,62,-1
 512 982 l 1,63,-1
 375 982 l 1,60,-1
526 982 m 1,64,-1
 526 1120 l 1,65,-1
 664 1120 l 1,66,-1
 664 982 l 1,67,-1
 526 982 l 1,64,-1
678 982 m 1,68,-1
 678 1120 l 1,69,-1
 816 1120 l 1,70,-1
 816 982 l 1,71,-1
 678 982 l 1,68,-1
EndSplineSet
EndChar

StartChar: F
Encoding: 70 70 41
Width: 857
GlyphClass: 1
Flags: W
LayerCount: 2
Fore
SplineSet
72 73 m 1,0,-1
 72 210 l 1,1,-1
 210 210 l 1,2,-1
 210 73 l 1,3,-1
 72 73 l 1,0,-1
72 224 m 1,4,-1
 72 362 l 1,5,-1
 210 362 l 1,6,-1
 210 224 l 1,7,-1
 72 224 l 1,4,-1
72 376 m 1,8,-1
 72 513 l 1,9,-1
 209 513 l 1,10,-1
 209 376 l 1,11,-1
 72 376 l 1,8,-1
72 527 m 1,12,-1
 72 665 l 1,13,-1
 209 665 l 1,14,-1
 209 527 l 1,15,-1
 72 527 l 1,12,-1
223 527 m 1,16,-1
 223 665 l 1,17,-1
 361 665 l 1,18,-1
 361 527 l 1,19,-1
 223 527 l 1,16,-1
375 527 m 1,20,-1
 375 665 l 1,21,-1
 513 665 l 1,22,-1
 513 527 l 1,23,-1
 375 527 l 1,20,-1
526 527 m 1,24,-1
 526 665 l 1,25,-1
 664 665 l 1,26,-1
 664 527 l 1,27,-1
 526 527 l 1,24,-1
72 679 m 1,28,-1
 72 816 l 1,29,-1
 209 816 l 1,30,-1
 209 679 l 1,31,-1
 72 679 l 1,28,-1
72 830 m 1,32,-1
 72 968 l 1,33,-1
 209 968 l 1,34,-1
 209 830 l 1,35,-1
 72 830 l 1,32,-1
72 982 m 1,36,-1
 72 1120 l 1,37,-1
 209 1120 l 1,38,-1
 209 982 l 1,39,-1
 72 982 l 1,36,-1
223 982 m 1,40,-1
 223 1120 l 1,41,-1
 361 1120 l 1,42,-1
 361 982 l 1,43,-1
 223 982 l 1,40,-1
375 982 m 1,44,-1
 375 1120 l 1,45,-1
 513 1120 l 1,46,-1
 513 982 l 1,47,-1
 375 982 l 1,44,-1
526 982 m 1,48,-1
 526 1120 l 1,49,-1
 664 1120 l 1,50,-1
 664 982 l 1,51,-1
 526 982 l 1,48,-1
678 982 m 1,52,-1
 678 1120 l 1,53,-1
 816 1120 l 1,54,-1
 816 982 l 1,55,-1
 678 982 l 1,52,-1
EndSplineSet
EndChar

StartChar: G
Encoding: 71 71 42
Width: 857
GlyphClass: 1
Flags: W
LayerCount: 2
Fore
SplineSet
223 73 m 1,0,-1
 223 210 l 1,1,-1
 361 210 l 1,2,-1
 361 73 l 1,3,-1
 223 73 l 1,0,-1
375 73 m 1,4,-1
 375 210 l 1,5,-1
 512 210 l 1,6,-1
 512 73 l 1,7,-1
 375 73 l 1,4,-1
526 73 m 1,8,-1
 526 210 l 1,9,-1
 664 210 l 1,10,-1
 664 73 l 1,11,-1
 526 73 l 1,8,-1
678 73 m 1,12,-1
 678 210 l 1,13,-1
 816 210 l 1,14,-1
 816 73 l 1,15,-1
 678 73 l 1,12,-1
72 224 m 1,16,-1
 72 362 l 1,17,-1
 209 362 l 1,18,-1
 209 224 l 1,19,-1
 72 224 l 1,16,-1
678 224 m 1,20,-1
 678 362 l 1,21,-1
 816 362 l 1,22,-1
 816 224 l 1,23,-1
 678 224 l 1,20,-1
72 375 m 1,24,-1
 72 513 l 1,25,-1
 209 513 l 1,26,-1
 209 375 l 1,27,-1
 72 375 l 1,24,-1
678 376 m 1,28,-1
 678 514 l 1,29,-1
 816 514 l 1,30,-1
 816 376 l 1,31,-1
 678 376 l 1,28,-1
72 527 m 1,32,-1
 72 665 l 1,33,-1
 209 665 l 1,34,-1
 209 527 l 1,35,-1
 72 527 l 1,32,-1
375 527 m 1,36,-1
 375 665 l 1,37,-1
 512 665 l 1,38,-1
 512 527 l 1,39,-1
 375 527 l 1,36,-1
526 527 m 1,40,-1
 526 665 l 1,41,-1
 664 665 l 1,42,-1
 664 527 l 1,43,-1
 526 527 l 1,40,-1
678 527 m 1,44,-1
 678 665 l 1,45,-1
 816 665 l 1,46,-1
 816 527 l 1,47,-1
 678 527 l 1,44,-1
72 679 m 1,48,-1
 72 816 l 1,49,-1
 209 816 l 1,50,-1
 209 679 l 1,51,-1
 72 679 l 1,48,-1
72 830 m 1,52,-1
 72 968 l 1,53,-1
 209 968 l 1,54,-1
 209 830 l 1,55,-1
 72 830 l 1,52,-1
678 830 m 1,56,-1
 678 968 l 1,57,-1
 816 968 l 1,58,-1
 816 830 l 1,59,-1
 678 830 l 1,56,-1
223 982 m 1,60,-1
 223 1120 l 1,61,-1
 361 1120 l 1,62,-1
 361 982 l 1,63,-1
 223 982 l 1,60,-1
375 982 m 1,64,-1
 375 1120 l 1,65,-1
 512 1120 l 1,66,-1
 512 982 l 1,67,-1
 375 982 l 1,64,-1
526 982 m 1,68,-1
 526 1120 l 1,69,-1
 664 1120 l 1,70,-1
 664 982 l 1,71,-1
 526 982 l 1,68,-1
EndSplineSet
EndChar

StartChar: H
Encoding: 72 72 43
Width: 857
GlyphClass: 1
Flags: W
LayerCount: 2
Fore
SplineSet
72 73 m 1,0,-1
 72 210 l 1,1,-1
 209 210 l 1,2,-1
 209 73 l 1,3,-1
 72 73 l 1,0,-1
678 73 m 1,4,-1
 678 210 l 1,5,-1
 816 210 l 1,6,-1
 816 73 l 1,7,-1
 678 73 l 1,4,-1
72 224 m 1,8,-1
 72 362 l 1,9,-1
 209 362 l 1,10,-1
 209 224 l 1,11,-1
 72 224 l 1,8,-1
678 224 m 1,12,-1
 678 362 l 1,13,-1
 816 362 l 1,14,-1
 816 224 l 1,15,-1
 678 224 l 1,12,-1
72 375 m 1,16,-1
 72 513 l 1,17,-1
 209 513 l 1,18,-1
 209 375 l 1,19,-1
 72 375 l 1,16,-1
678 376 m 1,20,-1
 678 514 l 1,21,-1
 816 514 l 1,22,-1
 816 376 l 1,23,-1
 678 376 l 1,20,-1
72 527 m 1,24,-1
 72 665 l 1,25,-1
 209 665 l 1,26,-1
 209 527 l 1,27,-1
 72 527 l 1,24,-1
223 527 m 1,28,-1
 223 665 l 1,29,-1
 361 665 l 1,30,-1
 361 527 l 1,31,-1
 223 527 l 1,28,-1
375 527 m 1,32,-1
 375 665 l 1,33,-1
 512 665 l 1,34,-1
 512 527 l 1,35,-1
 375 527 l 1,32,-1
526 527 m 1,36,-1
 526 665 l 1,37,-1
 664 665 l 1,38,-1
 664 527 l 1,39,-1
 526 527 l 1,36,-1
678 527 m 1,40,-1
 678 665 l 1,41,-1
 816 665 l 1,42,-1
 816 527 l 1,43,-1
 678 527 l 1,40,-1
72 679 m 1,44,-1
 72 816 l 1,45,-1
 209 816 l 1,46,-1
 209 679 l 1,47,-1
 72 679 l 1,44,-1
678 679 m 1,48,-1
 678 817 l 1,49,-1
 816 817 l 1,50,-1
 816 679 l 1,51,-1
 678 679 l 1,48,-1
72 830 m 1,52,-1
 72 968 l 1,53,-1
 209 968 l 1,54,-1
 209 830 l 1,55,-1
 72 830 l 1,52,-1
678 830 m 1,56,-1
 678 968 l 1,57,-1
 816 968 l 1,58,-1
 816 830 l 1,59,-1
 678 830 l 1,56,-1
72 981 m 1,60,-1
 72 1120 l 1,61,-1
 209 1120 l 1,62,-1
 209 981 l 1,63,-1
 72 981 l 1,60,-1
678 982 m 1,64,-1
 678 1120 l 1,65,-1
 816 1120 l 1,66,-1
 816 982 l 1,67,-1
 678 982 l 1,64,-1
EndSplineSet
EndChar

StartChar: I
Encoding: 73 73 44
Width: 857
GlyphClass: 1
Flags: W
LayerCount: 2
Fore
SplineSet
224 73 m 1,0,-1
 224 210 l 1,1,-1
 361 210 l 1,2,-1
 361 73 l 1,3,-1
 224 73 l 1,0,-1
375 73 m 1,4,-1
 375 210 l 1,5,-1
 513 210 l 1,6,-1
 513 73 l 1,7,-1
 375 73 l 1,4,-1
527 73 m 1,8,-1
 527 210 l 1,9,-1
 664 210 l 1,10,-1
 664 73 l 1,11,-1
 527 73 l 1,8,-1
375 224 m 1,12,-1
 375 362 l 1,13,-1
 513 362 l 1,14,-1
 513 224 l 1,15,-1
 375 224 l 1,12,-1
375 376 m 1,16,-1
 375 514 l 1,17,-1
 513 514 l 1,18,-1
 513 376 l 1,19,-1
 375 376 l 1,16,-1
375 527 m 1,20,-1
 375 665 l 1,21,-1
 512 665 l 1,22,-1
 512 527 l 1,23,-1
 375 527 l 1,20,-1
375 679 m 1,24,-1
 375 816 l 1,25,-1
 512 816 l 1,26,-1
 512 679 l 1,27,-1
 375 679 l 1,24,-1
375 830 m 1,28,-1
 375 968 l 1,29,-1
 512 968 l 1,30,-1
 512 830 l 1,31,-1
 375 830 l 1,28,-1
224 982 m 1,32,-1
 224 1120 l 1,33,-1
 361 1120 l 1,34,-1
 361 982 l 1,35,-1
 224 982 l 1,32,-1
375 982 m 1,36,-1
 375 1120 l 1,37,-1
 512 1120 l 1,38,-1
 512 982 l 1,39,-1
 375 982 l 1,36,-1
526 982 m 1,40,-1
 526 1120 l 1,41,-1
 664 1120 l 1,42,-1
 664 982 l 1,43,-1
 526 982 l 1,40,-1
EndSplineSet
EndChar

StartChar: J
Encoding: 74 74 45
Width: 857
GlyphClass: 1
Flags: W
LayerCount: 2
Fore
SplineSet
223 73 m 1,0,-1
 223 210 l 1,1,-1
 361 210 l 1,2,-1
 361 73 l 1,3,-1
 223 73 l 1,0,-1
375 73 m 1,4,-1
 375 210 l 1,5,-1
 512 210 l 1,6,-1
 512 73 l 1,7,-1
 375 73 l 1,4,-1
72 224 m 1,8,-1
 72 362 l 1,9,-1
 209 362 l 1,10,-1
 209 224 l 1,11,-1
 72 224 l 1,8,-1
526 224 m 1,12,-1
 526 362 l 1,13,-1
 664 362 l 1,14,-1
 664 224 l 1,15,-1
 526 224 l 1,12,-1
526 376 m 1,16,-1
 526 514 l 1,17,-1
 664 514 l 1,18,-1
 664 376 l 1,19,-1
 526 376 l 1,16,-1
526 527 m 1,20,-1
 526 665 l 1,21,-1
 664 665 l 1,22,-1
 664 527 l 1,23,-1
 526 527 l 1,20,-1
526 679 m 1,24,-1
 526 817 l 1,25,-1
 664 817 l 1,26,-1
 664 679 l 1,27,-1
 526 679 l 1,24,-1
526 830 m 1,28,-1
 526 968 l 1,29,-1
 664 968 l 1,30,-1
 664 830 l 1,31,-1
 526 830 l 1,28,-1
375 982 m 1,32,-1
 375 1120 l 1,33,-1
 512 1120 l 1,34,-1
 512 982 l 1,35,-1
 375 982 l 1,32,-1
526 982 m 1,36,-1
 526 1120 l 1,37,-1
 664 1120 l 1,38,-1
 664 982 l 1,39,-1
 526 982 l 1,36,-1
678 982 m 1,40,-1
 678 1120 l 1,41,-1
 816 1120 l 1,42,-1
 816 982 l 1,43,-1
 678 982 l 1,40,-1
EndSplineSet
EndChar

StartChar: K
Encoding: 75 75 46
Width: 857
GlyphClass: 1
Flags: W
LayerCount: 2
Fore
SplineSet
72 73 m 1,0,-1
 72 210 l 1,1,-1
 210 210 l 1,2,-1
 210 73 l 1,3,-1
 72 73 l 1,0,-1
678 73 m 1,4,-1
 678 210 l 1,5,-1
 816 210 l 1,6,-1
 816 73 l 1,7,-1
 678 73 l 1,4,-1
72 224 m 1,8,-1
 72 362 l 1,9,-1
 210 362 l 1,10,-1
 210 224 l 1,11,-1
 72 224 l 1,8,-1
526 224 m 1,12,-1
 526 362 l 1,13,-1
 664 362 l 1,14,-1
 664 224 l 1,15,-1
 526 224 l 1,12,-1
72 376 m 1,16,-1
 72 513 l 1,17,-1
 209 513 l 1,18,-1
 209 376 l 1,19,-1
 72 376 l 1,16,-1
375 376 m 1,20,-1
 375 514 l 1,21,-1
 513 514 l 1,22,-1
 513 376 l 1,23,-1
 375 376 l 1,20,-1
72 527 m 1,24,-1
 72 665 l 1,25,-1
 209 665 l 1,26,-1
 209 527 l 1,27,-1
 72 527 l 1,24,-1
223 527 m 1,28,-1
 223 665 l 1,29,-1
 361 665 l 1,30,-1
 361 527 l 1,31,-1
 223 527 l 1,28,-1
72 679 m 1,32,-1
 72 816 l 1,33,-1
 209 816 l 1,34,-1
 209 679 l 1,35,-1
 72 679 l 1,32,-1
375 679 m 1,36,-1
 375 816 l 1,37,-1
 512 816 l 1,38,-1
 512 679 l 1,39,-1
 375 679 l 1,36,-1
72 830 m 1,40,-1
 72 968 l 1,41,-1
 209 968 l 1,42,-1
 209 830 l 1,43,-1
 72 830 l 1,40,-1
526 830 m 1,44,-1
 526 968 l 1,45,-1
 664 968 l 1,46,-1
 664 830 l 1,47,-1
 526 830 l 1,44,-1
72 982 m 1,48,-1
 72 1120 l 1,49,-1
 209 1120 l 1,50,-1
 209 982 l 1,51,-1
 72 982 l 1,48,-1
678 982 m 1,52,-1
 678 1120 l 1,53,-1
 816 1120 l 1,54,-1
 816 982 l 1,55,-1
 678 982 l 1,52,-1
EndSplineSet
EndChar

StartChar: L
Encoding: 76 76 47
Width: 857
GlyphClass: 1
Flags: W
LayerCount: 2
Fore
SplineSet
72 73 m 1,0,-1
 72 210 l 1,1,-1
 210 210 l 1,2,-1
 210 73 l 1,3,-1
 72 73 l 1,0,-1
223 73 m 1,4,-1
 223 210 l 1,5,-1
 361 210 l 1,6,-1
 361 73 l 1,7,-1
 223 73 l 1,4,-1
375 73 m 1,8,-1
 375 210 l 1,9,-1
 513 210 l 1,10,-1
 513 73 l 1,11,-1
 375 73 l 1,8,-1
526 73 m 1,12,-1
 526 210 l 1,13,-1
 664 210 l 1,14,-1
 664 73 l 1,15,-1
 526 73 l 1,12,-1
678 73 m 1,16,-1
 678 210 l 1,17,-1
 816 210 l 1,18,-1
 816 73 l 1,19,-1
 678 73 l 1,16,-1
72 224 m 1,20,-1
 72 362 l 1,21,-1
 210 362 l 1,22,-1
 210 224 l 1,23,-1
 72 224 l 1,20,-1
72 376 m 1,24,-1
 72 514 l 1,25,-1
 210 514 l 1,26,-1
 210 376 l 1,27,-1
 72 376 l 1,24,-1
72 527 m 1,28,-1
 72 665 l 1,29,-1
 210 665 l 1,30,-1
 210 527 l 1,31,-1
 72 527 l 1,28,-1
72 679 m 1,32,-1
 72 816 l 1,33,-1
 210 816 l 1,34,-1
 210 679 l 1,35,-1
 72 679 l 1,32,-1
72 830 m 1,36,-1
 72 968 l 1,37,-1
 209 968 l 1,38,-1
 209 830 l 1,39,-1
 72 830 l 1,36,-1
72 982 m 1,40,-1
 72 1120 l 1,41,-1
 209 1120 l 1,42,-1
 209 982 l 1,43,-1
 72 982 l 1,40,-1
EndSplineSet
EndChar

StartChar: M
Encoding: 77 77 48
Width: 857
GlyphClass: 1
Flags: W
LayerCount: 2
Fore
SplineSet
72 73 m 1,0,-1
 72 210 l 1,1,-1
 209 210 l 1,2,-1
 209 73 l 1,3,-1
 72 73 l 1,0,-1
678 73 m 1,4,-1
 678 210 l 1,5,-1
 816 210 l 1,6,-1
 816 73 l 1,7,-1
 678 73 l 1,4,-1
72 224 m 1,8,-1
 72 362 l 1,9,-1
 209 362 l 1,10,-1
 209 224 l 1,11,-1
 72 224 l 1,8,-1
678 224 m 1,12,-1
 678 362 l 1,13,-1
 816 362 l 1,14,-1
 816 224 l 1,15,-1
 678 224 l 1,12,-1
72 375 m 1,16,-1
 72 513 l 1,17,-1
 209 513 l 1,18,-1
 209 375 l 1,19,-1
 72 375 l 1,16,-1
678 376 m 1,20,-1
 678 514 l 1,21,-1
 816 514 l 1,22,-1
 816 376 l 1,23,-1
 678 376 l 1,20,-1
72 527 m 1,24,-1
 72 665 l 1,25,-1
 209 665 l 1,26,-1
 209 527 l 1,27,-1
 72 527 l 1,24,-1
375 527 m 1,28,-1
 375 665 l 1,29,-1
 512 665 l 1,30,-1
 512 527 l 1,31,-1
 375 527 l 1,28,-1
678 527 m 1,32,-1
 678 665 l 1,33,-1
 816 665 l 1,34,-1
 816 527 l 1,35,-1
 678 527 l 1,32,-1
72 679 m 1,36,-1
 72 816 l 1,37,-1
 209 816 l 1,38,-1
 209 679 l 1,39,-1
 72 679 l 1,36,-1
375 679 m 1,40,-1
 375 816 l 1,41,-1
 512 816 l 1,42,-1
 512 679 l 1,43,-1
 375 679 l 1,40,-1
678 679 m 1,44,-1
 678 817 l 1,45,-1
 816 817 l 1,46,-1
 816 679 l 1,47,-1
 678 679 l 1,44,-1
72 830 m 1,48,-1
 72 968 l 1,49,-1
 209 968 l 1,50,-1
 209 830 l 1,51,-1
 72 830 l 1,48,-1
223 830 m 1,52,-1
 223 968 l 1,53,-1
 361 968 l 1,54,-1
 361 830 l 1,55,-1
 223 830 l 1,52,-1
526 830 m 1,56,-1
 526 968 l 1,57,-1
 664 968 l 1,58,-1
 664 830 l 1,59,-1
 526 830 l 1,56,-1
678 830 m 1,60,-1
 678 968 l 1,61,-1
 816 968 l 1,62,-1
 816 830 l 1,63,-1
 678 830 l 1,60,-1
72 981 m 1,64,-1
 72 1120 l 1,65,-1
 209 1120 l 1,66,-1
 209 981 l 1,67,-1
 72 981 l 1,64,-1
678 982 m 1,68,-1
 678 1120 l 1,69,-1
 816 1120 l 1,70,-1
 816 982 l 1,71,-1
 678 982 l 1,68,-1
EndSplineSet
EndChar

StartChar: N
Encoding: 78 78 49
Width: 857
GlyphClass: 1
Flags: W
LayerCount: 2
Fore
SplineSet
72 73 m 1,0,-1
 72 210 l 1,1,-1
 209 210 l 1,2,-1
 209 73 l 1,3,-1
 72 73 l 1,0,-1
678 73 m 1,4,-1
 678 210 l 1,5,-1
 816 210 l 1,6,-1
 816 73 l 1,7,-1
 678 73 l 1,4,-1
72 224 m 1,8,-1
 72 362 l 1,9,-1
 209 362 l 1,10,-1
 209 224 l 1,11,-1
 72 224 l 1,8,-1
678 224 m 1,12,-1
 678 362 l 1,13,-1
 816 362 l 1,14,-1
 816 224 l 1,15,-1
 678 224 l 1,12,-1
72 375 m 1,16,-1
 72 513 l 1,17,-1
 209 513 l 1,18,-1
 209 375 l 1,19,-1
 72 375 l 1,16,-1
526 376 m 1,20,-1
 526 514 l 1,21,-1
 664 514 l 1,22,-1
 664 376 l 1,23,-1
 526 376 l 1,20,-1
678 376 m 1,24,-1
 678 514 l 1,25,-1
 816 514 l 1,26,-1
 816 376 l 1,27,-1
 678 376 l 1,24,-1
72 527 m 1,28,-1
 72 665 l 1,29,-1
 209 665 l 1,30,-1
 209 527 l 1,31,-1
 72 527 l 1,28,-1
375 527 m 1,32,-1
 375 665 l 1,33,-1
 512 665 l 1,34,-1
 512 527 l 1,35,-1
 375 527 l 1,32,-1
678 527 m 1,36,-1
 678 665 l 1,37,-1
 816 665 l 1,38,-1
 816 527 l 1,39,-1
 678 527 l 1,36,-1
72 679 m 1,40,-1
 72 816 l 1,41,-1
 209 816 l 1,42,-1
 209 679 l 1,43,-1
 72 679 l 1,40,-1
223 679 m 1,44,-1
 223 816 l 1,45,-1
 361 816 l 1,46,-1
 361 679 l 1,47,-1
 223 679 l 1,44,-1
678 679 m 1,48,-1
 678 817 l 1,49,-1
 816 817 l 1,50,-1
 816 679 l 1,51,-1
 678 679 l 1,48,-1
72 830 m 1,52,-1
 72 968 l 1,53,-1
 209 968 l 1,54,-1
 209 830 l 1,55,-1
 72 830 l 1,52,-1
678 830 m 1,56,-1
 678 968 l 1,57,-1
 816 968 l 1,58,-1
 816 830 l 1,59,-1
 678 830 l 1,56,-1
72 981 m 1,60,-1
 72 1120 l 1,61,-1
 209 1120 l 1,62,-1
 209 981 l 1,63,-1
 72 981 l 1,60,-1
678 982 m 1,64,-1
 678 1120 l 1,65,-1
 816 1120 l 1,66,-1
 816 982 l 1,67,-1
 678 982 l 1,64,-1
EndSplineSet
EndChar

StartChar: O
Encoding: 79 79 50
Width: 857
GlyphClass: 1
Flags: W
LayerCount: 2
Fore
SplineSet
223 73 m 1,0,-1
 223 210 l 1,1,-1
 361 210 l 1,2,-1
 361 73 l 1,3,-1
 223 73 l 1,0,-1
375 73 m 1,4,-1
 375 210 l 1,5,-1
 512 210 l 1,6,-1
 512 73 l 1,7,-1
 375 73 l 1,4,-1
526 73 m 1,8,-1
 526 210 l 1,9,-1
 664 210 l 1,10,-1
 664 73 l 1,11,-1
 526 73 l 1,8,-1
72 224 m 1,12,-1
 72 362 l 1,13,-1
 209 362 l 1,14,-1
 209 224 l 1,15,-1
 72 224 l 1,12,-1
678 224 m 1,16,-1
 678 362 l 1,17,-1
 816 362 l 1,18,-1
 816 224 l 1,19,-1
 678 224 l 1,16,-1
72 375 m 1,20,-1
 72 513 l 1,21,-1
 209 513 l 1,22,-1
 209 375 l 1,23,-1
 72 375 l 1,20,-1
678 376 m 1,24,-1
 678 514 l 1,25,-1
 816 514 l 1,26,-1
 816 376 l 1,27,-1
 678 376 l 1,24,-1
72 527 m 1,28,-1
 72 665 l 1,29,-1
 209 665 l 1,30,-1
 209 527 l 1,31,-1
 72 527 l 1,28,-1
678 527 m 1,32,-1
 678 665 l 1,33,-1
 816 665 l 1,34,-1
 816 527 l 1,35,-1
 678 527 l 1,32,-1
72 679 m 1,36,-1
 72 816 l 1,37,-1
 209 816 l 1,38,-1
 209 679 l 1,39,-1
 72 679 l 1,36,-1
678 679 m 1,40,-1
 678 817 l 1,41,-1
 816 817 l 1,42,-1
 816 679 l 1,43,-1
 678 679 l 1,40,-1
72 830 m 1,44,-1
 72 968 l 1,45,-1
 209 968 l 1,46,-1
 209 830 l 1,47,-1
 72 830 l 1,44,-1
678 830 m 1,48,-1
 678 968 l 1,49,-1
 816 968 l 1,50,-1
 816 830 l 1,51,-1
 678 830 l 1,48,-1
223 982 m 1,52,-1
 223 1120 l 1,53,-1
 361 1120 l 1,54,-1
 361 982 l 1,55,-1
 223 982 l 1,52,-1
375 982 m 1,56,-1
 375 1120 l 1,57,-1
 512 1120 l 1,58,-1
 512 982 l 1,59,-1
 375 982 l 1,56,-1
526 982 m 1,60,-1
 526 1120 l 1,61,-1
 664 1120 l 1,62,-1
 664 982 l 1,63,-1
 526 982 l 1,60,-1
EndSplineSet
EndChar

StartChar: P
Encoding: 80 80 51
Width: 857
GlyphClass: 1
Flags: W
LayerCount: 2
Fore
SplineSet
72 73 m 1,0,-1
 72 210 l 1,1,-1
 210 210 l 1,2,-1
 210 73 l 1,3,-1
 72 73 l 1,0,-1
72 224 m 1,4,-1
 72 362 l 1,5,-1
 209 362 l 1,6,-1
 209 224 l 1,7,-1
 72 224 l 1,4,-1
72 375 m 1,8,-1
 72 513 l 1,9,-1
 209 513 l 1,10,-1
 209 375 l 1,11,-1
 72 375 l 1,8,-1
72 527 m 1,12,-1
 72 665 l 1,13,-1
 209 665 l 1,14,-1
 209 527 l 1,15,-1
 72 527 l 1,12,-1
223 527 m 1,16,-1
 223 665 l 1,17,-1
 361 665 l 1,18,-1
 361 527 l 1,19,-1
 223 527 l 1,16,-1
375 527 m 1,20,-1
 375 665 l 1,21,-1
 513 665 l 1,22,-1
 513 527 l 1,23,-1
 375 527 l 1,20,-1
526 527 m 1,24,-1
 526 665 l 1,25,-1
 664 665 l 1,26,-1
 664 527 l 1,27,-1
 526 527 l 1,24,-1
72 679 m 1,28,-1
 72 816 l 1,29,-1
 209 816 l 1,30,-1
 209 679 l 1,31,-1
 72 679 l 1,28,-1
678 679 m 1,32,-1
 678 817 l 1,33,-1
 816 817 l 1,34,-1
 816 679 l 1,35,-1
 678 679 l 1,32,-1
72 830 m 1,36,-1
 72 968 l 1,37,-1
 209 968 l 1,38,-1
 209 830 l 1,39,-1
 72 830 l 1,36,-1
678 830 m 1,40,-1
 678 968 l 1,41,-1
 816 968 l 1,42,-1
 816 830 l 1,43,-1
 678 830 l 1,40,-1
72 982 m 1,44,-1
 72 1120 l 1,45,-1
 209 1120 l 1,46,-1
 209 982 l 1,47,-1
 72 982 l 1,44,-1
223 982 m 1,48,-1
 223 1120 l 1,49,-1
 361 1120 l 1,50,-1
 361 982 l 1,51,-1
 223 982 l 1,48,-1
375 982 m 1,52,-1
 375 1120 l 1,53,-1
 512 1120 l 1,54,-1
 512 982 l 1,55,-1
 375 982 l 1,52,-1
526 982 m 1,56,-1
 526 1120 l 1,57,-1
 664 1120 l 1,58,-1
 664 982 l 1,59,-1
 526 982 l 1,56,-1
EndSplineSet
EndChar

StartChar: Q
Encoding: 81 81 52
Width: 857
GlyphClass: 1
Flags: W
LayerCount: 2
Fore
SplineSet
223 73 m 1,0,-1
 223 210 l 1,1,-1
 361 210 l 1,2,-1
 361 73 l 1,3,-1
 223 73 l 1,0,-1
375 73 m 1,4,-1
 375 210 l 1,5,-1
 512 210 l 1,6,-1
 512 73 l 1,7,-1
 375 73 l 1,4,-1
678 73 m 1,8,-1
 678 210 l 1,9,-1
 816 210 l 1,10,-1
 816 73 l 1,11,-1
 678 73 l 1,8,-1
72 224 m 1,12,-1
 72 362 l 1,13,-1
 209 362 l 1,14,-1
 209 224 l 1,15,-1
 72 224 l 1,12,-1
526 224 m 1,16,-1
 526 362 l 1,17,-1
 664 362 l 1,18,-1
 664 224 l 1,19,-1
 526 224 l 1,16,-1
72 375 m 1,20,-1
 72 513 l 1,21,-1
 209 513 l 1,22,-1
 209 375 l 1,23,-1
 72 375 l 1,20,-1
375 376 m 1,24,-1
 375 513 l 1,25,-1
 512 513 l 1,26,-1
 512 376 l 1,27,-1
 375 376 l 1,24,-1
678 376 m 1,28,-1
 678 514 l 1,29,-1
 816 514 l 1,30,-1
 816 376 l 1,31,-1
 678 376 l 1,28,-1
72 527 m 1,32,-1
 72 665 l 1,33,-1
 209 665 l 1,34,-1
 209 527 l 1,35,-1
 72 527 l 1,32,-1
678 527 m 1,36,-1
 678 665 l 1,37,-1
 816 665 l 1,38,-1
 816 527 l 1,39,-1
 678 527 l 1,36,-1
72 679 m 1,40,-1
 72 816 l 1,41,-1
 209 816 l 1,42,-1
 209 679 l 1,43,-1
 72 679 l 1,40,-1
678 679 m 1,44,-1
 678 817 l 1,45,-1
 816 817 l 1,46,-1
 816 679 l 1,47,-1
 678 679 l 1,44,-1
72 830 m 1,48,-1
 72 968 l 1,49,-1
 209 968 l 1,50,-1
 209 830 l 1,51,-1
 72 830 l 1,48,-1
678 830 m 1,52,-1
 678 968 l 1,53,-1
 816 968 l 1,54,-1
 816 830 l 1,55,-1
 678 830 l 1,52,-1
223 982 m 1,56,-1
 223 1120 l 1,57,-1
 361 1120 l 1,58,-1
 361 982 l 1,59,-1
 223 982 l 1,56,-1
375 982 m 1,60,-1
 375 1120 l 1,61,-1
 512 1120 l 1,62,-1
 512 982 l 1,63,-1
 375 982 l 1,60,-1
526 982 m 1,64,-1
 526 1120 l 1,65,-1
 664 1120 l 1,66,-1
 664 982 l 1,67,-1
 526 982 l 1,64,-1
EndSplineSet
EndChar

StartChar: R
Encoding: 82 82 53
Width: 857
GlyphClass: 1
Flags: W
LayerCount: 2
Fore
SplineSet
72 73 m 1,0,-1
 72 210 l 1,1,-1
 209 210 l 1,2,-1
 209 73 l 1,3,-1
 72 73 l 1,0,-1
678 73 m 1,4,-1
 678 210 l 1,5,-1
 816 210 l 1,6,-1
 816 73 l 1,7,-1
 678 73 l 1,4,-1
72 224 m 1,8,-1
 72 362 l 1,9,-1
 209 362 l 1,10,-1
 209 224 l 1,11,-1
 72 224 l 1,8,-1
526 224 m 1,12,-1
 526 362 l 1,13,-1
 664 362 l 1,14,-1
 664 224 l 1,15,-1
 526 224 l 1,12,-1
72 375 m 1,16,-1
 72 513 l 1,17,-1
 209 513 l 1,18,-1
 209 375 l 1,19,-1
 72 375 l 1,16,-1
375 376 m 1,20,-1
 375 514 l 1,21,-1
 512 514 l 1,22,-1
 512 376 l 1,23,-1
 375 376 l 1,20,-1
72 527 m 1,24,-1
 72 665 l 1,25,-1
 209 665 l 1,26,-1
 209 527 l 1,27,-1
 72 527 l 1,24,-1
223 527 m 1,28,-1
 223 665 l 1,29,-1
 361 665 l 1,30,-1
 361 527 l 1,31,-1
 223 527 l 1,28,-1
375 527 m 1,32,-1
 375 665 l 1,33,-1
 512 665 l 1,34,-1
 512 527 l 1,35,-1
 375 527 l 1,32,-1
526 527 m 1,36,-1
 526 665 l 1,37,-1
 664 665 l 1,38,-1
 664 527 l 1,39,-1
 526 527 l 1,36,-1
72 679 m 1,40,-1
 72 816 l 1,41,-1
 209 816 l 1,42,-1
 209 679 l 1,43,-1
 72 679 l 1,40,-1
678 679 m 1,44,-1
 678 817 l 1,45,-1
 816 817 l 1,46,-1
 816 679 l 1,47,-1
 678 679 l 1,44,-1
72 830 m 1,48,-1
 72 968 l 1,49,-1
 209 968 l 1,50,-1
 209 830 l 1,51,-1
 72 830 l 1,48,-1
678 830 m 1,52,-1
 678 968 l 1,53,-1
 816 968 l 1,54,-1
 816 830 l 1,55,-1
 678 830 l 1,52,-1
72 981 m 1,56,-1
 72 1120 l 1,57,-1
 209 1120 l 1,58,-1
 209 981 l 1,59,-1
 72 981 l 1,56,-1
223 982 m 1,60,-1
 223 1120 l 1,61,-1
 361 1120 l 1,62,-1
 361 982 l 1,63,-1
 223 982 l 1,60,-1
375 982 m 1,64,-1
 375 1120 l 1,65,-1
 512 1120 l 1,66,-1
 512 982 l 1,67,-1
 375 982 l 1,64,-1
526 982 m 1,68,-1
 526 1120 l 1,69,-1
 664 1120 l 1,70,-1
 664 982 l 1,71,-1
 526 982 l 1,68,-1
EndSplineSet
EndChar

StartChar: S
Encoding: 83 83 54
Width: 857
GlyphClass: 1
Flags: W
LayerCount: 2
Fore
SplineSet
223 73 m 1,0,-1
 223 210 l 1,1,-1
 361 210 l 1,2,-1
 361 73 l 1,3,-1
 223 73 l 1,0,-1
375 73 m 1,4,-1
 375 210 l 1,5,-1
 512 210 l 1,6,-1
 512 73 l 1,7,-1
 375 73 l 1,4,-1
526 73 m 1,8,-1
 526 210 l 1,9,-1
 664 210 l 1,10,-1
 664 73 l 1,11,-1
 526 73 l 1,8,-1
72 224 m 1,12,-1
 72 362 l 1,13,-1
 209 362 l 1,14,-1
 209 224 l 1,15,-1
 72 224 l 1,12,-1
678 224 m 1,16,-1
 678 362 l 1,17,-1
 816 362 l 1,18,-1
 816 224 l 1,19,-1
 678 224 l 1,16,-1
678 376 m 1,20,-1
 678 514 l 1,21,-1
 816 514 l 1,22,-1
 816 376 l 1,23,-1
 678 376 l 1,20,-1
223 527 m 1,24,-1
 223 665 l 1,25,-1
 361 665 l 1,26,-1
 361 527 l 1,27,-1
 223 527 l 1,24,-1
375 527 m 1,28,-1
 375 665 l 1,29,-1
 512 665 l 1,30,-1
 512 527 l 1,31,-1
 375 527 l 1,28,-1
526 527 m 1,32,-1
 526 665 l 1,33,-1
 664 665 l 1,34,-1
 664 527 l 1,35,-1
 526 527 l 1,32,-1
72 679 m 1,36,-1
 72 816 l 1,37,-1
 209 816 l 1,38,-1
 209 679 l 1,39,-1
 72 679 l 1,36,-1
72 830 m 1,40,-1
 72 968 l 1,41,-1
 209 968 l 1,42,-1
 209 830 l 1,43,-1
 72 830 l 1,40,-1
678 830 m 1,44,-1
 678 968 l 1,45,-1
 816 968 l 1,46,-1
 816 830 l 1,47,-1
 678 830 l 1,44,-1
223 982 m 1,48,-1
 223 1120 l 1,49,-1
 361 1120 l 1,50,-1
 361 982 l 1,51,-1
 223 982 l 1,48,-1
375 982 m 1,52,-1
 375 1120 l 1,53,-1
 512 1120 l 1,54,-1
 512 982 l 1,55,-1
 375 982 l 1,52,-1
526 982 m 1,56,-1
 526 1120 l 1,57,-1
 664 1120 l 1,58,-1
 664 982 l 1,59,-1
 526 982 l 1,56,-1
EndSplineSet
EndChar

StartChar: T
Encoding: 84 84 55
Width: 857
GlyphClass: 1
Flags: W
LayerCount: 2
Fore
SplineSet
375 73 m 1,0,-1
 375 210 l 1,1,-1
 513 210 l 1,2,-1
 513 73 l 1,3,-1
 375 73 l 1,0,-1
375 224 m 1,4,-1
 375 362 l 1,5,-1
 513 362 l 1,6,-1
 513 224 l 1,7,-1
 375 224 l 1,4,-1
375 376 m 1,8,-1
 375 514 l 1,9,-1
 513 514 l 1,10,-1
 513 376 l 1,11,-1
 375 376 l 1,8,-1
375 527 m 1,12,-1
 375 665 l 1,13,-1
 512 665 l 1,14,-1
 512 527 l 1,15,-1
 375 527 l 1,12,-1
375 679 m 1,16,-1
 375 816 l 1,17,-1
 512 816 l 1,18,-1
 512 679 l 1,19,-1
 375 679 l 1,16,-1
375 830 m 1,20,-1
 375 968 l 1,21,-1
 512 968 l 1,22,-1
 512 830 l 1,23,-1
 375 830 l 1,20,-1
72 982 m 1,24,-1
 72 1120 l 1,25,-1
 209 1120 l 1,26,-1
 209 982 l 1,27,-1
 72 982 l 1,24,-1
223 982 m 1,28,-1
 223 1120 l 1,29,-1
 361 1120 l 1,30,-1
 361 982 l 1,31,-1
 223 982 l 1,28,-1
375 982 m 1,32,-1
 375 1120 l 1,33,-1
 512 1120 l 1,34,-1
 512 982 l 1,35,-1
 375 982 l 1,32,-1
526 982 m 1,36,-1
 526 1120 l 1,37,-1
 664 1120 l 1,38,-1
 664 982 l 1,39,-1
 526 982 l 1,36,-1
678 982 m 1,40,-1
 678 1120 l 1,41,-1
 816 1120 l 1,42,-1
 816 982 l 1,43,-1
 678 982 l 1,40,-1
EndSplineSet
EndChar

StartChar: U
Encoding: 85 85 56
Width: 857
GlyphClass: 1
Flags: W
LayerCount: 2
Fore
SplineSet
223 73 m 1,0,-1
 223 210 l 1,1,-1
 361 210 l 1,2,-1
 361 73 l 1,3,-1
 223 73 l 1,0,-1
375 73 m 1,4,-1
 375 210 l 1,5,-1
 512 210 l 1,6,-1
 512 73 l 1,7,-1
 375 73 l 1,4,-1
526 73 m 1,8,-1
 526 210 l 1,9,-1
 664 210 l 1,10,-1
 664 73 l 1,11,-1
 526 73 l 1,8,-1
72 224 m 1,12,-1
 72 362 l 1,13,-1
 209 362 l 1,14,-1
 209 224 l 1,15,-1
 72 224 l 1,12,-1
678 224 m 1,16,-1
 678 362 l 1,17,-1
 816 362 l 1,18,-1
 816 224 l 1,19,-1
 678 224 l 1,16,-1
72 375 m 1,20,-1
 72 513 l 1,21,-1
 209 513 l 1,22,-1
 209 375 l 1,23,-1
 72 375 l 1,20,-1
678 376 m 1,24,-1
 678 514 l 1,25,-1
 816 514 l 1,26,-1
 816 376 l 1,27,-1
 678 376 l 1,24,-1
72 527 m 1,28,-1
 72 665 l 1,29,-1
 209 665 l 1,30,-1
 209 527 l 1,31,-1
 72 527 l 1,28,-1
678 527 m 1,32,-1
 678 665 l 1,33,-1
 816 665 l 1,34,-1
 816 527 l 1,35,-1
 678 527 l 1,32,-1
72 679 m 1,36,-1
 72 816 l 1,37,-1
 209 816 l 1,38,-1
 209 679 l 1,39,-1
 72 679 l 1,36,-1
678 679 m 1,40,-1
 678 817 l 1,41,-1
 816 817 l 1,42,-1
 816 679 l 1,43,-1
 678 679 l 1,40,-1
72 830 m 1,44,-1
 72 968 l 1,45,-1
 209 968 l 1,46,-1
 209 830 l 1,47,-1
 72 830 l 1,44,-1
678 830 m 1,48,-1
 678 968 l 1,49,-1
 816 968 l 1,50,-1
 816 830 l 1,51,-1
 678 830 l 1,48,-1
72 982 m 1,52,-1
 72 1120 l 1,53,-1
 209 1120 l 1,54,-1
 209 982 l 1,55,-1
 72 982 l 1,52,-1
678 982 m 1,56,-1
 678 1120 l 1,57,-1
 816 1120 l 1,58,-1
 816 982 l 1,59,-1
 678 982 l 1,56,-1
EndSplineSet
EndChar

StartChar: V
Encoding: 86 86 57
Width: 857
GlyphClass: 1
Flags: W
LayerCount: 2
Fore
SplineSet
375 73 m 1,0,-1
 375 210 l 1,1,-1
 512 210 l 1,2,-1
 512 73 l 1,3,-1
 375 73 l 1,0,-1
72 679 m 1,4,-1
 72 816 l 1,5,-1
 209 816 l 1,6,-1
 209 679 l 1,7,-1
 72 679 l 1,4,-1
678 679 m 1,8,-1
 678 817 l 1,9,-1
 816 817 l 1,10,-1
 816 679 l 1,11,-1
 678 679 l 1,8,-1
72 830 m 1,12,-1
 72 968 l 1,13,-1
 209 968 l 1,14,-1
 209 830 l 1,15,-1
 72 830 l 1,12,-1
678 830 m 1,16,-1
 678 968 l 1,17,-1
 816 968 l 1,18,-1
 816 830 l 1,19,-1
 678 830 l 1,16,-1
72 982 m 1,20,-1
 72 1120 l 1,21,-1
 209 1120 l 1,22,-1
 209 982 l 1,23,-1
 72 982 l 1,20,-1
678 982 m 1,24,-1
 678 1120 l 1,25,-1
 816 1120 l 1,26,-1
 816 982 l 1,27,-1
 678 982 l 1,24,-1
223 375 m 1,28,-1
 223 513 l 1,29,-1
 361 513 l 1,30,-1
 361 375 l 1,31,-1
 223 375 l 1,28,-1
526 376 m 1,32,-1
 526 514 l 1,33,-1
 664 514 l 1,34,-1
 664 376 l 1,35,-1
 526 376 l 1,32,-1
223 527 m 1,36,-1
 223 665 l 1,37,-1
 361 665 l 1,38,-1
 361 527 l 1,39,-1
 223 527 l 1,36,-1
526 527 m 1,40,-1
 526 665 l 1,41,-1
 664 665 l 1,42,-1
 664 527 l 1,43,-1
 526 527 l 1,40,-1
375 224 m 1,44,-1
 375 362 l 1,45,-1
 513 362 l 1,46,-1
 513 224 l 1,47,-1
 375 224 l 1,44,-1
EndSplineSet
EndChar

StartChar: W
Encoding: 87 87 58
Width: 857
GlyphClass: 1
Flags: W
LayerCount: 2
Fore
SplineSet
223 73 m 1,0,-1
 223 210 l 1,1,-1
 361 210 l 1,2,-1
 361 73 l 1,3,-1
 223 73 l 1,0,-1
526 73 m 1,4,-1
 526 210 l 1,5,-1
 664 210 l 1,6,-1
 664 73 l 1,7,-1
 526 73 l 1,4,-1
72 224 m 1,8,-1
 72 362 l 1,9,-1
 209 362 l 1,10,-1
 209 224 l 1,11,-1
 72 224 l 1,8,-1
375 224 m 1,12,-1
 375 362 l 1,13,-1
 512 362 l 1,14,-1
 512 224 l 1,15,-1
 375 224 l 1,12,-1
678 224 m 1,16,-1
 678 362 l 1,17,-1
 816 362 l 1,18,-1
 816 224 l 1,19,-1
 678 224 l 1,16,-1
72 375 m 1,20,-1
 72 513 l 1,21,-1
 209 513 l 1,22,-1
 209 375 l 1,23,-1
 72 375 l 1,20,-1
375 376 m 1,24,-1
 375 513 l 1,25,-1
 512 513 l 1,26,-1
 512 376 l 1,27,-1
 375 376 l 1,24,-1
678 376 m 1,28,-1
 678 514 l 1,29,-1
 816 514 l 1,30,-1
 816 376 l 1,31,-1
 678 376 l 1,28,-1
72 527 m 1,32,-1
 72 665 l 1,33,-1
 209 665 l 1,34,-1
 209 527 l 1,35,-1
 72 527 l 1,32,-1
375 527 m 1,36,-1
 375 665 l 1,37,-1
 512 665 l 1,38,-1
 512 527 l 1,39,-1
 375 527 l 1,36,-1
678 527 m 1,40,-1
 678 665 l 1,41,-1
 816 665 l 1,42,-1
 816 527 l 1,43,-1
 678 527 l 1,40,-1
72 679 m 1,44,-1
 72 816 l 1,45,-1
 209 816 l 1,46,-1
 209 679 l 1,47,-1
 72 679 l 1,44,-1
678 679 m 1,48,-1
 678 817 l 1,49,-1
 816 817 l 1,50,-1
 816 679 l 1,51,-1
 678 679 l 1,48,-1
72 830 m 1,52,-1
 72 968 l 1,53,-1
 209 968 l 1,54,-1
 209 830 l 1,55,-1
 72 830 l 1,52,-1
678 830 m 1,56,-1
 678 968 l 1,57,-1
 816 968 l 1,58,-1
 816 830 l 1,59,-1
 678 830 l 1,56,-1
72 981 m 1,60,-1
 72 1120 l 1,61,-1
 209 1120 l 1,62,-1
 209 981 l 1,63,-1
 72 981 l 1,60,-1
678 982 m 1,64,-1
 678 1120 l 1,65,-1
 816 1120 l 1,66,-1
 816 982 l 1,67,-1
 678 982 l 1,64,-1
EndSplineSet
EndChar

StartChar: X
Encoding: 88 88 59
Width: 857
GlyphClass: 1
Flags: W
LayerCount: 2
Fore
SplineSet
72 73 m 1,0,-1
 72 210 l 1,1,-1
 209 210 l 1,2,-1
 209 73 l 1,3,-1
 72 73 l 1,0,-1
678 73 m 1,4,-1
 678 210 l 1,5,-1
 816 210 l 1,6,-1
 816 73 l 1,7,-1
 678 73 l 1,4,-1
72 224 m 1,8,-1
 72 362 l 1,9,-1
 209 362 l 1,10,-1
 209 224 l 1,11,-1
 72 224 l 1,8,-1
678 224 m 1,12,-1
 678 362 l 1,13,-1
 816 362 l 1,14,-1
 816 224 l 1,15,-1
 678 224 l 1,12,-1
223 376 m 1,16,-1
 223 514 l 1,17,-1
 361 514 l 1,18,-1
 361 376 l 1,19,-1
 223 376 l 1,16,-1
526 376 m 1,20,-1
 526 514 l 1,21,-1
 664 514 l 1,22,-1
 664 376 l 1,23,-1
 526 376 l 1,20,-1
375 527 m 1,24,-1
 375 665 l 1,25,-1
 512 665 l 1,26,-1
 512 527 l 1,27,-1
 375 527 l 1,24,-1
223 679 m 1,28,-1
 223 816 l 1,29,-1
 361 816 l 1,30,-1
 361 679 l 1,31,-1
 223 679 l 1,28,-1
526 679 m 1,32,-1
 526 816 l 1,33,-1
 664 816 l 1,34,-1
 664 679 l 1,35,-1
 526 679 l 1,32,-1
72 830 m 1,36,-1
 72 968 l 1,37,-1
 209 968 l 1,38,-1
 209 830 l 1,39,-1
 72 830 l 1,36,-1
678 830 m 1,40,-1
 678 968 l 1,41,-1
 816 968 l 1,42,-1
 816 830 l 1,43,-1
 678 830 l 1,40,-1
72 982 m 1,44,-1
 72 1120 l 1,45,-1
 209 1120 l 1,46,-1
 209 982 l 1,47,-1
 72 982 l 1,44,-1
678 982 m 1,48,-1
 678 1120 l 1,49,-1
 816 1120 l 1,50,-1
 816 982 l 1,51,-1
 678 982 l 1,48,-1
EndSplineSet
EndChar

StartChar: Y
Encoding: 89 89 60
Width: 857
GlyphClass: 1
Flags: W
LayerCount: 2
Fore
SplineSet
375 73 m 1,0,-1
 375 210 l 1,1,-1
 513 210 l 1,2,-1
 513 73 l 1,3,-1
 375 73 l 1,0,-1
375 224 m 1,4,-1
 375 362 l 1,5,-1
 512 362 l 1,6,-1
 512 224 l 1,7,-1
 375 224 l 1,4,-1
375 376 m 1,8,-1
 375 514 l 1,9,-1
 512 514 l 1,10,-1
 512 376 l 1,11,-1
 375 376 l 1,8,-1
223 527 m 1,12,-1
 223 665 l 1,13,-1
 361 665 l 1,14,-1
 361 527 l 1,15,-1
 223 527 l 1,12,-1
526 527 m 1,16,-1
 526 665 l 1,17,-1
 664 665 l 1,18,-1
 664 527 l 1,19,-1
 526 527 l 1,16,-1
72 679 m 1,20,-1
 72 816 l 1,21,-1
 210 816 l 1,22,-1
 210 679 l 1,23,-1
 72 679 l 1,20,-1
678 679 m 1,24,-1
 678 817 l 1,25,-1
 816 817 l 1,26,-1
 816 679 l 1,27,-1
 678 679 l 1,24,-1
72 830 m 1,28,-1
 72 968 l 1,29,-1
 209 968 l 1,30,-1
 209 830 l 1,31,-1
 72 830 l 1,28,-1
678 830 m 1,32,-1
 678 968 l 1,33,-1
 816 968 l 1,34,-1
 816 830 l 1,35,-1
 678 830 l 1,32,-1
72 982 m 1,36,-1
 72 1120 l 1,37,-1
 209 1120 l 1,38,-1
 209 982 l 1,39,-1
 72 982 l 1,36,-1
678 982 m 1,40,-1
 678 1120 l 1,41,-1
 816 1120 l 1,42,-1
 816 982 l 1,43,-1
 678 982 l 1,40,-1
EndSplineSet
EndChar

StartChar: Z
Encoding: 90 90 61
Width: 857
GlyphClass: 1
Flags: W
LayerCount: 2
Fore
SplineSet
72 73 m 1,0,-1
 72 210 l 1,1,-1
 209 210 l 1,2,-1
 209 73 l 1,3,-1
 72 73 l 1,0,-1
223 73 m 1,4,-1
 223 210 l 1,5,-1
 361 210 l 1,6,-1
 361 73 l 1,7,-1
 223 73 l 1,4,-1
375 73 m 1,8,-1
 375 210 l 1,9,-1
 512 210 l 1,10,-1
 512 73 l 1,11,-1
 375 73 l 1,8,-1
526 73 m 1,12,-1
 526 210 l 1,13,-1
 664 210 l 1,14,-1
 664 73 l 1,15,-1
 526 73 l 1,12,-1
678 73 m 1,16,-1
 678 210 l 1,17,-1
 816 210 l 1,18,-1
 816 73 l 1,19,-1
 678 73 l 1,16,-1
72 224 m 1,20,-1
 72 362 l 1,21,-1
 209 362 l 1,22,-1
 209 224 l 1,23,-1
 72 224 l 1,20,-1
223 375 m 1,24,-1
 223 513 l 1,25,-1
 361 513 l 1,26,-1
 361 375 l 1,27,-1
 223 375 l 1,24,-1
375 527 m 1,28,-1
 375 665 l 1,29,-1
 512 665 l 1,30,-1
 512 527 l 1,31,-1
 375 527 l 1,28,-1
526 679 m 1,32,-1
 526 817 l 1,33,-1
 664 817 l 1,34,-1
 664 679 l 1,35,-1
 526 679 l 1,32,-1
678 830 m 1,36,-1
 678 968 l 1,37,-1
 816 968 l 1,38,-1
 816 830 l 1,39,-1
 678 830 l 1,36,-1
72 982 m 1,40,-1
 72 1120 l 1,41,-1
 209 1120 l 1,42,-1
 209 982 l 1,43,-1
 72 982 l 1,40,-1
223 982 m 1,44,-1
 223 1120 l 1,45,-1
 361 1120 l 1,46,-1
 361 982 l 1,47,-1
 223 982 l 1,44,-1
375 982 m 1,48,-1
 375 1120 l 1,49,-1
 512 1120 l 1,50,-1
 512 982 l 1,51,-1
 375 982 l 1,48,-1
526 982 m 1,52,-1
 526 1120 l 1,53,-1
 664 1120 l 1,54,-1
 664 982 l 1,55,-1
 526 982 l 1,52,-1
678 982 m 1,56,-1
 678 1120 l 1,57,-1
 816 1120 l 1,58,-1
 816 982 l 1,59,-1
 678 982 l 1,56,-1
EndSplineSet
EndChar

StartChar: bracketleft
Encoding: 91 91 62
Width: 857
GlyphClass: 1
Flags: W
LayerCount: 2
Fore
SplineSet
224 73 m 1,0,-1
 224 210 l 1,1,-1
 361 210 l 1,2,-1
 361 73 l 1,3,-1
 224 73 l 1,0,-1
375 73 m 1,4,-1
 375 210 l 1,5,-1
 513 210 l 1,6,-1
 513 73 l 1,7,-1
 375 73 l 1,4,-1
527 73 m 1,8,-1
 527 210 l 1,9,-1
 664 210 l 1,10,-1
 664 73 l 1,11,-1
 527 73 l 1,8,-1
224 224 m 1,12,-1
 224 362 l 1,13,-1
 361 362 l 1,14,-1
 361 224 l 1,15,-1
 224 224 l 1,12,-1
224 376 m 1,16,-1
 224 514 l 1,17,-1
 361 514 l 1,18,-1
 361 376 l 1,19,-1
 224 376 l 1,16,-1
224 527 m 1,20,-1
 224 665 l 1,21,-1
 361 665 l 1,22,-1
 361 527 l 1,23,-1
 224 527 l 1,20,-1
224 679 m 1,24,-1
 224 816 l 1,25,-1
 361 816 l 1,26,-1
 361 679 l 1,27,-1
 224 679 l 1,24,-1
224 830 m 1,28,-1
 224 968 l 1,29,-1
 361 968 l 1,30,-1
 361 830 l 1,31,-1
 224 830 l 1,28,-1
224 982 m 1,32,-1
 224 1120 l 1,33,-1
 361 1120 l 1,34,-1
 361 982 l 1,35,-1
 224 982 l 1,32,-1
375 982 m 1,36,-1
 375 1120 l 1,37,-1
 513 1120 l 1,38,-1
 513 982 l 1,39,-1
 375 982 l 1,36,-1
526 982 m 1,40,-1
 526 1120 l 1,41,-1
 664 1120 l 1,42,-1
 664 982 l 1,43,-1
 526 982 l 1,40,-1
EndSplineSet
EndChar

StartChar: backslash
Encoding: 92 92 63
Width: 857
GlyphClass: 1
Flags: W
LayerCount: 2
Fore
SplineSet
678 224 m 1,0,-1
 678 362 l 1,1,-1
 816 362 l 1,2,-1
 816 224 l 1,3,-1
 678 224 l 1,0,-1
526 376 m 1,4,-1
 526 514 l 1,5,-1
 664 514 l 1,6,-1
 664 376 l 1,7,-1
 526 376 l 1,4,-1
375 527 m 1,8,-1
 375 665 l 1,9,-1
 513 665 l 1,10,-1
 513 527 l 1,11,-1
 375 527 l 1,8,-1
223 679 m 1,12,-1
 223 817 l 1,13,-1
 361 817 l 1,14,-1
 361 679 l 1,15,-1
 223 679 l 1,12,-1
72 830 m 1,16,-1
 72 969 l 1,17,-1
 210 969 l 1,18,-1
 210 830 l 1,19,-1
 72 830 l 1,16,-1
EndSplineSet
EndChar

StartChar: bracketright
Encoding: 93 93 64
Width: 857
GlyphClass: 1
Flags: W
LayerCount: 2
Fore
SplineSet
224 73 m 1,0,-1
 224 210 l 1,1,-1
 361 210 l 1,2,-1
 361 73 l 1,3,-1
 224 73 l 1,0,-1
375 73 m 1,4,-1
 375 210 l 1,5,-1
 512 210 l 1,6,-1
 512 73 l 1,7,-1
 375 73 l 1,4,-1
527 73 m 1,8,-1
 527 210 l 1,9,-1
 664 210 l 1,10,-1
 664 73 l 1,11,-1
 527 73 l 1,8,-1
526 224 m 1,12,-1
 526 362 l 1,13,-1
 664 362 l 1,14,-1
 664 224 l 1,15,-1
 526 224 l 1,12,-1
526 376 m 1,16,-1
 526 514 l 1,17,-1
 664 514 l 1,18,-1
 664 376 l 1,19,-1
 526 376 l 1,16,-1
526 527 m 1,20,-1
 526 665 l 1,21,-1
 664 665 l 1,22,-1
 664 527 l 1,23,-1
 526 527 l 1,20,-1
526 679 m 1,24,-1
 526 817 l 1,25,-1
 664 817 l 1,26,-1
 664 679 l 1,27,-1
 526 679 l 1,24,-1
526 830 m 1,28,-1
 526 968 l 1,29,-1
 664 968 l 1,30,-1
 664 830 l 1,31,-1
 526 830 l 1,28,-1
224 982 m 1,32,-1
 224 1120 l 1,33,-1
 361 1120 l 1,34,-1
 361 982 l 1,35,-1
 224 982 l 1,32,-1
375 982 m 1,36,-1
 375 1120 l 1,37,-1
 512 1120 l 1,38,-1
 512 982 l 1,39,-1
 375 982 l 1,36,-1
526 982 m 1,40,-1
 526 1120 l 1,41,-1
 664 1120 l 1,42,-1
 664 982 l 1,43,-1
 526 982 l 1,40,-1
EndSplineSet
EndChar

StartChar: asciicircum
Encoding: 94 94 65
Width: 857
GlyphClass: 1
Flags: W
LayerCount: 2
Fore
SplineSet
72 679 m 1,0,-1
 72 817 l 1,1,-1
 210 817 l 1,2,-1
 210 679 l 1,3,-1
 72 679 l 1,0,-1
678 679 m 1,4,-1
 678 817 l 1,5,-1
 816 817 l 1,6,-1
 816 679 l 1,7,-1
 678 679 l 1,4,-1
223 830 m 1,8,-1
 223 968 l 1,9,-1
 361 968 l 1,10,-1
 361 830 l 1,11,-1
 223 830 l 1,8,-1
526 830 m 1,12,-1
 526 968 l 1,13,-1
 664 968 l 1,14,-1
 664 830 l 1,15,-1
 526 830 l 1,12,-1
375 982 m 1,16,-1
 375 1120 l 1,17,-1
 513 1120 l 1,18,-1
 513 982 l 1,19,-1
 375 982 l 1,16,-1
EndSplineSet
EndChar

StartChar: underscore
Encoding: 95 95 66
Width: 857
GlyphClass: 1
Flags: W
LayerCount: 2
Fore
SplineSet
72 73 m 1,0,-1
 72 210 l 1,1,-1
 210 210 l 1,2,-1
 210 73 l 1,3,-1
 72 73 l 1,0,-1
223 73 m 1,4,-1
 223 210 l 1,5,-1
 361 210 l 1,6,-1
 361 73 l 1,7,-1
 223 73 l 1,4,-1
375 73 m 1,8,-1
 375 210 l 1,9,-1
 513 210 l 1,10,-1
 513 73 l 1,11,-1
 375 73 l 1,8,-1
526 73 m 1,12,-1
 526 210 l 1,13,-1
 664 210 l 1,14,-1
 664 73 l 1,15,-1
 526 73 l 1,12,-1
678 73 m 1,16,-1
 678 210 l 1,17,-1
 816 210 l 1,18,-1
 816 73 l 1,19,-1
 678 73 l 1,16,-1
EndSplineSet
EndChar

StartChar: grave
Encoding: 96 96 67
Width: 585
GlyphClass: 1
Flags: W
LayerCount: 2
Fore
SplineSet
375 678 m 1,0,-1
 375 816 l 1,1,-1
 513 816 l 1,2,-1
 513 678 l 1,3,-1
 375 678 l 1,0,-1
223 830 m 1,4,-1
 223 968 l 1,5,-1
 361 968 l 1,6,-1
 361 830 l 1,7,-1
 223 830 l 1,4,-1
72 981 m 1,8,-1
 72 1120 l 1,9,-1
 210 1120 l 1,10,-1
 210 981 l 1,11,-1
 72 981 l 1,8,-1
EndSplineSet
EndChar

StartChar: a
Encoding: 97 97 68
Width: 857
GlyphClass: 1
Flags: W
LayerCount: 2
Fore
SplineSet
72 73 m 1,0,-1
 72 210 l 1,1,-1
 209 210 l 1,2,-1
 209 73 l 1,3,-1
 72 73 l 1,0,-1
678 73 m 1,4,-1
 678 210 l 1,5,-1
 816 210 l 1,6,-1
 816 73 l 1,7,-1
 678 73 l 1,4,-1
72 224 m 1,8,-1
 72 362 l 1,9,-1
 209 362 l 1,10,-1
 209 224 l 1,11,-1
 72 224 l 1,8,-1
678 224 m 1,12,-1
 678 362 l 1,13,-1
 816 362 l 1,14,-1
 816 224 l 1,15,-1
 678 224 l 1,12,-1
72 375 m 1,16,-1
 72 513 l 1,17,-1
 209 513 l 1,18,-1
 209 375 l 1,19,-1
 72 375 l 1,16,-1
223 375 m 1,20,-1
 223 513 l 1,21,-1
 361 513 l 1,22,-1
 361 375 l 1,23,-1
 223 375 l 1,20,-1
375 376 m 1,24,-1
 375 513 l 1,25,-1
 512 513 l 1,26,-1
 512 376 l 1,27,-1
 375 376 l 1,24,-1
526 376 m 1,28,-1
 526 514 l 1,29,-1
 664 514 l 1,30,-1
 664 376 l 1,31,-1
 526 376 l 1,28,-1
678 376 m 1,32,-1
 678 514 l 1,33,-1
 816 514 l 1,34,-1
 816 376 l 1,35,-1
 678 376 l 1,32,-1
72 527 m 1,36,-1
 72 665 l 1,37,-1
 209 665 l 1,38,-1
 209 527 l 1,39,-1
 72 527 l 1,36,-1
678 527 m 1,40,-1
 678 665 l 1,41,-1
 816 665 l 1,42,-1
 816 527 l 1,43,-1
 678 527 l 1,40,-1
72 679 m 1,44,-1
 72 816 l 1,45,-1
 209 816 l 1,46,-1
 209 679 l 1,47,-1
 72 679 l 1,44,-1
678 679 m 1,48,-1
 678 817 l 1,49,-1
 816 817 l 1,50,-1
 816 679 l 1,51,-1
 678 679 l 1,48,-1
223 830 m 1,52,-1
 223 968 l 1,53,-1
 360 968 l 1,54,-1
 360 830 l 1,55,-1
 223 830 l 1,52,-1
526 832 m 1,56,-1
 526 970 l 1,57,-1
 664 970 l 1,58,-1
 664 832 l 1,59,-1
 526 832 l 1,56,-1
375 982 m 1,60,-1
 375 1120 l 1,61,-1
 512 1120 l 1,62,-1
 512 982 l 1,63,-1
 375 982 l 1,60,-1
EndSplineSet
EndChar

StartChar: b
Encoding: 98 98 69
Width: 857
GlyphClass: 1
Flags: W
LayerCount: 2
Fore
SplineSet
72 73 m 1,0,-1
 72 210 l 1,1,-1
 209 210 l 1,2,-1
 209 73 l 1,3,-1
 72 73 l 1,0,-1
223 73 m 1,4,-1
 223 210 l 1,5,-1
 361 210 l 1,6,-1
 361 73 l 1,7,-1
 223 73 l 1,4,-1
375 73 m 1,8,-1
 375 210 l 1,9,-1
 512 210 l 1,10,-1
 512 73 l 1,11,-1
 375 73 l 1,8,-1
526 73 m 1,12,-1
 526 210 l 1,13,-1
 664 210 l 1,14,-1
 664 73 l 1,15,-1
 526 73 l 1,12,-1
72 224 m 1,16,-1
 72 361 l 1,17,-1
 209 361 l 1,18,-1
 209 224 l 1,19,-1
 72 224 l 1,16,-1
678 224 m 1,20,-1
 678 362 l 1,21,-1
 816 362 l 1,22,-1
 816 224 l 1,23,-1
 678 224 l 1,20,-1
72 375 m 1,24,-1
 72 513 l 1,25,-1
 209 513 l 1,26,-1
 209 375 l 1,27,-1
 72 375 l 1,24,-1
678 376 m 1,28,-1
 678 514 l 1,29,-1
 816 514 l 1,30,-1
 816 376 l 1,31,-1
 678 376 l 1,28,-1
72 527 m 1,32,-1
 72 665 l 1,33,-1
 209 665 l 1,34,-1
 209 527 l 1,35,-1
 72 527 l 1,32,-1
223 527 m 1,36,-1
 223 665 l 1,37,-1
 361 665 l 1,38,-1
 361 527 l 1,39,-1
 223 527 l 1,36,-1
375 527 m 1,40,-1
 375 665 l 1,41,-1
 512 665 l 1,42,-1
 512 527 l 1,43,-1
 375 527 l 1,40,-1
526 527 m 1,44,-1
 526 665 l 1,45,-1
 664 665 l 1,46,-1
 664 527 l 1,47,-1
 526 527 l 1,44,-1
72 678 m 1,48,-1
 72 816 l 1,49,-1
 209 816 l 1,50,-1
 209 678 l 1,51,-1
 72 678 l 1,48,-1
678 679 m 1,52,-1
 678 817 l 1,53,-1
 816 817 l 1,54,-1
 816 679 l 1,55,-1
 678 679 l 1,52,-1
72 830 m 1,56,-1
 72 968 l 1,57,-1
 209 968 l 1,58,-1
 209 830 l 1,59,-1
 72 830 l 1,56,-1
678 830 m 1,60,-1
 678 968 l 1,61,-1
 816 968 l 1,62,-1
 816 830 l 1,63,-1
 678 830 l 1,60,-1
72 981 m 1,64,-1
 72 1120 l 1,65,-1
 209 1120 l 1,66,-1
 209 981 l 1,67,-1
 72 981 l 1,64,-1
223 982 m 1,68,-1
 223 1120 l 1,69,-1
 361 1120 l 1,70,-1
 361 982 l 1,71,-1
 223 982 l 1,68,-1
375 982 m 1,72,-1
 375 1120 l 1,73,-1
 512 1120 l 1,74,-1
 512 982 l 1,75,-1
 375 982 l 1,72,-1
526 982 m 1,76,-1
 526 1120 l 1,77,-1
 664 1120 l 1,78,-1
 664 982 l 1,79,-1
 526 982 l 1,76,-1
EndSplineSet
EndChar

StartChar: c
Encoding: 99 99 70
Width: 857
GlyphClass: 1
Flags: W
LayerCount: 2
Fore
SplineSet
223 73 m 1,0,-1
 223 210 l 1,1,-1
 361 210 l 1,2,-1
 361 73 l 1,3,-1
 223 73 l 1,0,-1
375 73 m 1,4,-1
 375 210 l 1,5,-1
 513 210 l 1,6,-1
 513 73 l 1,7,-1
 375 73 l 1,4,-1
526 73 m 1,8,-1
 526 210 l 1,9,-1
 664 210 l 1,10,-1
 664 73 l 1,11,-1
 526 73 l 1,8,-1
72 224 m 1,12,-1
 72 362 l 1,13,-1
 210 362 l 1,14,-1
 210 224 l 1,15,-1
 72 224 l 1,12,-1
678 224 m 1,16,-1
 678 362 l 1,17,-1
 816 362 l 1,18,-1
 816 224 l 1,19,-1
 678 224 l 1,16,-1
72 376 m 1,20,-1
 72 513 l 1,21,-1
 209 513 l 1,22,-1
 209 376 l 1,23,-1
 72 376 l 1,20,-1
72 527 m 1,24,-1
 72 665 l 1,25,-1
 209 665 l 1,26,-1
 209 527 l 1,27,-1
 72 527 l 1,24,-1
72 679 m 1,28,-1
 72 816 l 1,29,-1
 209 816 l 1,30,-1
 209 679 l 1,31,-1
 72 679 l 1,28,-1
72 830 m 1,32,-1
 72 968 l 1,33,-1
 209 968 l 1,34,-1
 209 830 l 1,35,-1
 72 830 l 1,32,-1
678 830 m 1,36,-1
 678 968 l 1,37,-1
 816 968 l 1,38,-1
 816 830 l 1,39,-1
 678 830 l 1,36,-1
223 982 m 1,40,-1
 223 1120 l 1,41,-1
 361 1120 l 1,42,-1
 361 982 l 1,43,-1
 223 982 l 1,40,-1
375 982 m 1,44,-1
 375 1120 l 1,45,-1
 512 1120 l 1,46,-1
 512 982 l 1,47,-1
 375 982 l 1,44,-1
526 982 m 1,48,-1
 526 1120 l 1,49,-1
 664 1120 l 1,50,-1
 664 982 l 1,51,-1
 526 982 l 1,48,-1
EndSplineSet
EndChar

StartChar: d
Encoding: 100 100 71
Width: 857
GlyphClass: 1
Flags: W
LayerCount: 2
Fore
SplineSet
72 73 m 1,0,-1
 72 210 l 1,1,-1
 209 210 l 1,2,-1
 209 73 l 1,3,-1
 72 73 l 1,0,-1
223 73 m 1,4,-1
 223 210 l 1,5,-1
 361 210 l 1,6,-1
 361 73 l 1,7,-1
 223 73 l 1,4,-1
375 73 m 1,8,-1
 375 210 l 1,9,-1
 512 210 l 1,10,-1
 512 73 l 1,11,-1
 375 73 l 1,8,-1
72 224 m 1,12,-1
 72 362 l 1,13,-1
 209 362 l 1,14,-1
 209 224 l 1,15,-1
 72 224 l 1,12,-1
526 224 m 1,16,-1
 526 362 l 1,17,-1
 664 362 l 1,18,-1
 664 224 l 1,19,-1
 526 224 l 1,16,-1
72 375 m 1,20,-1
 72 513 l 1,21,-1
 209 513 l 1,22,-1
 209 375 l 1,23,-1
 72 375 l 1,20,-1
678 376 m 1,24,-1
 678 514 l 1,25,-1
 816 514 l 1,26,-1
 816 376 l 1,27,-1
 678 376 l 1,24,-1
72 527 m 1,28,-1
 72 665 l 1,29,-1
 209 665 l 1,30,-1
 209 527 l 1,31,-1
 72 527 l 1,28,-1
678 527 m 1,32,-1
 678 665 l 1,33,-1
 816 665 l 1,34,-1
 816 527 l 1,35,-1
 678 527 l 1,32,-1
72 679 m 1,36,-1
 72 816 l 1,37,-1
 209 816 l 1,38,-1
 209 679 l 1,39,-1
 72 679 l 1,36,-1
678 679 m 1,40,-1
 678 817 l 1,41,-1
 816 817 l 1,42,-1
 816 679 l 1,43,-1
 678 679 l 1,40,-1
72 830 m 1,44,-1
 72 968 l 1,45,-1
 209 968 l 1,46,-1
 209 830 l 1,47,-1
 72 830 l 1,44,-1
526 830 m 1,48,-1
 526 968 l 1,49,-1
 664 968 l 1,50,-1
 664 830 l 1,51,-1
 526 830 l 1,48,-1
72 981 m 1,52,-1
 72 1120 l 1,53,-1
 209 1120 l 1,54,-1
 209 981 l 1,55,-1
 72 981 l 1,52,-1
223 982 m 1,56,-1
 223 1120 l 1,57,-1
 361 1120 l 1,58,-1
 361 982 l 1,59,-1
 223 982 l 1,56,-1
375 982 m 1,60,-1
 375 1120 l 1,61,-1
 512 1120 l 1,62,-1
 512 982 l 1,63,-1
 375 982 l 1,60,-1
EndSplineSet
EndChar

StartChar: e
Encoding: 101 101 72
Width: 857
GlyphClass: 1
Flags: W
LayerCount: 2
Fore
SplineSet
72 73 m 1,0,-1
 72 210 l 1,1,-1
 209 210 l 1,2,-1
 209 73 l 1,3,-1
 72 73 l 1,0,-1
223 73 m 1,4,-1
 223 210 l 1,5,-1
 361 210 l 1,6,-1
 361 73 l 1,7,-1
 223 73 l 1,4,-1
375 73 m 1,8,-1
 375 210 l 1,9,-1
 512 210 l 1,10,-1
 512 73 l 1,11,-1
 375 73 l 1,8,-1
526 73 m 1,12,-1
 526 210 l 1,13,-1
 664 210 l 1,14,-1
 664 73 l 1,15,-1
 526 73 l 1,12,-1
678 73 m 1,16,-1
 678 210 l 1,17,-1
 816 210 l 1,18,-1
 816 73 l 1,19,-1
 678 73 l 1,16,-1
72 224 m 1,20,-1
 72 362 l 1,21,-1
 209 362 l 1,22,-1
 209 224 l 1,23,-1
 72 224 l 1,20,-1
72 375 m 1,24,-1
 72 513 l 1,25,-1
 209 513 l 1,26,-1
 209 375 l 1,27,-1
 72 375 l 1,24,-1
72 527 m 1,28,-1
 72 665 l 1,29,-1
 209 665 l 1,30,-1
 209 527 l 1,31,-1
 72 527 l 1,28,-1
223 527 m 1,32,-1
 223 665 l 1,33,-1
 361 665 l 1,34,-1
 361 527 l 1,35,-1
 223 527 l 1,32,-1
375 527 m 1,36,-1
 375 665 l 1,37,-1
 512 665 l 1,38,-1
 512 527 l 1,39,-1
 375 527 l 1,36,-1
526 527 m 1,40,-1
 526 665 l 1,41,-1
 664 665 l 1,42,-1
 664 527 l 1,43,-1
 526 527 l 1,40,-1
72 679 m 1,44,-1
 72 816 l 1,45,-1
 209 816 l 1,46,-1
 209 679 l 1,47,-1
 72 679 l 1,44,-1
72 830 m 1,48,-1
 72 968 l 1,49,-1
 209 968 l 1,50,-1
 209 830 l 1,51,-1
 72 830 l 1,48,-1
72 981 m 1,52,-1
 72 1120 l 1,53,-1
 209 1120 l 1,54,-1
 209 981 l 1,55,-1
 72 981 l 1,52,-1
223 982 m 1,56,-1
 223 1120 l 1,57,-1
 361 1120 l 1,58,-1
 361 982 l 1,59,-1
 223 982 l 1,56,-1
375 982 m 1,60,-1
 375 1120 l 1,61,-1
 512 1120 l 1,62,-1
 512 982 l 1,63,-1
 375 982 l 1,60,-1
526 982 m 1,64,-1
 526 1120 l 1,65,-1
 664 1120 l 1,66,-1
 664 982 l 1,67,-1
 526 982 l 1,64,-1
678 982 m 1,68,-1
 678 1120 l 1,69,-1
 816 1120 l 1,70,-1
 816 982 l 1,71,-1
 678 982 l 1,68,-1
EndSplineSet
EndChar

StartChar: f
Encoding: 102 102 73
Width: 857
GlyphClass: 1
Flags: W
LayerCount: 2
Fore
SplineSet
72 73 m 1,0,-1
 72 210 l 1,1,-1
 210 210 l 1,2,-1
 210 73 l 1,3,-1
 72 73 l 1,0,-1
72 224 m 1,4,-1
 72 362 l 1,5,-1
 210 362 l 1,6,-1
 210 224 l 1,7,-1
 72 224 l 1,4,-1
72 376 m 1,8,-1
 72 513 l 1,9,-1
 209 513 l 1,10,-1
 209 376 l 1,11,-1
 72 376 l 1,8,-1
72 527 m 1,12,-1
 72 665 l 1,13,-1
 209 665 l 1,14,-1
 209 527 l 1,15,-1
 72 527 l 1,12,-1
223 527 m 1,16,-1
 223 665 l 1,17,-1
 361 665 l 1,18,-1
 361 527 l 1,19,-1
 223 527 l 1,16,-1
375 527 m 1,20,-1
 375 665 l 1,21,-1
 513 665 l 1,22,-1
 513 527 l 1,23,-1
 375 527 l 1,20,-1
526 527 m 1,24,-1
 526 665 l 1,25,-1
 664 665 l 1,26,-1
 664 527 l 1,27,-1
 526 527 l 1,24,-1
72 679 m 1,28,-1
 72 816 l 1,29,-1
 209 816 l 1,30,-1
 209 679 l 1,31,-1
 72 679 l 1,28,-1
72 830 m 1,32,-1
 72 968 l 1,33,-1
 209 968 l 1,34,-1
 209 830 l 1,35,-1
 72 830 l 1,32,-1
72 982 m 1,36,-1
 72 1120 l 1,37,-1
 209 1120 l 1,38,-1
 209 982 l 1,39,-1
 72 982 l 1,36,-1
223 982 m 1,40,-1
 223 1120 l 1,41,-1
 361 1120 l 1,42,-1
 361 982 l 1,43,-1
 223 982 l 1,40,-1
375 982 m 1,44,-1
 375 1120 l 1,45,-1
 513 1120 l 1,46,-1
 513 982 l 1,47,-1
 375 982 l 1,44,-1
526 982 m 1,48,-1
 526 1120 l 1,49,-1
 664 1120 l 1,50,-1
 664 982 l 1,51,-1
 526 982 l 1,48,-1
678 982 m 1,52,-1
 678 1120 l 1,53,-1
 816 1120 l 1,54,-1
 816 982 l 1,55,-1
 678 982 l 1,52,-1
EndSplineSet
EndChar

StartChar: g
Encoding: 103 103 74
Width: 857
GlyphClass: 1
Flags: W
LayerCount: 2
Fore
SplineSet
223 73 m 1,0,-1
 223 210 l 1,1,-1
 361 210 l 1,2,-1
 361 73 l 1,3,-1
 223 73 l 1,0,-1
375 73 m 1,4,-1
 375 210 l 1,5,-1
 512 210 l 1,6,-1
 512 73 l 1,7,-1
 375 73 l 1,4,-1
526 73 m 1,8,-1
 526 210 l 1,9,-1
 664 210 l 1,10,-1
 664 73 l 1,11,-1
 526 73 l 1,8,-1
678 73 m 1,12,-1
 678 210 l 1,13,-1
 816 210 l 1,14,-1
 816 73 l 1,15,-1
 678 73 l 1,12,-1
72 224 m 1,16,-1
 72 362 l 1,17,-1
 209 362 l 1,18,-1
 209 224 l 1,19,-1
 72 224 l 1,16,-1
678 224 m 1,20,-1
 678 362 l 1,21,-1
 816 362 l 1,22,-1
 816 224 l 1,23,-1
 678 224 l 1,20,-1
72 375 m 1,24,-1
 72 513 l 1,25,-1
 209 513 l 1,26,-1
 209 375 l 1,27,-1
 72 375 l 1,24,-1
678 376 m 1,28,-1
 678 514 l 1,29,-1
 816 514 l 1,30,-1
 816 376 l 1,31,-1
 678 376 l 1,28,-1
72 527 m 1,32,-1
 72 665 l 1,33,-1
 209 665 l 1,34,-1
 209 527 l 1,35,-1
 72 527 l 1,32,-1
375 527 m 1,36,-1
 375 665 l 1,37,-1
 512 665 l 1,38,-1
 512 527 l 1,39,-1
 375 527 l 1,36,-1
526 527 m 1,40,-1
 526 665 l 1,41,-1
 664 665 l 1,42,-1
 664 527 l 1,43,-1
 526 527 l 1,40,-1
678 527 m 1,44,-1
 678 665 l 1,45,-1
 816 665 l 1,46,-1
 816 527 l 1,47,-1
 678 527 l 1,44,-1
72 679 m 1,48,-1
 72 816 l 1,49,-1
 209 816 l 1,50,-1
 209 679 l 1,51,-1
 72 679 l 1,48,-1
72 830 m 1,52,-1
 72 968 l 1,53,-1
 209 968 l 1,54,-1
 209 830 l 1,55,-1
 72 830 l 1,52,-1
678 830 m 1,56,-1
 678 968 l 1,57,-1
 816 968 l 1,58,-1
 816 830 l 1,59,-1
 678 830 l 1,56,-1
223 982 m 1,60,-1
 223 1120 l 1,61,-1
 361 1120 l 1,62,-1
 361 982 l 1,63,-1
 223 982 l 1,60,-1
375 982 m 1,64,-1
 375 1120 l 1,65,-1
 512 1120 l 1,66,-1
 512 982 l 1,67,-1
 375 982 l 1,64,-1
526 982 m 1,68,-1
 526 1120 l 1,69,-1
 664 1120 l 1,70,-1
 664 982 l 1,71,-1
 526 982 l 1,68,-1
EndSplineSet
EndChar

StartChar: h
Encoding: 104 104 75
Width: 857
GlyphClass: 1
Flags: W
LayerCount: 2
Fore
SplineSet
72 73 m 1,0,-1
 72 210 l 1,1,-1
 209 210 l 1,2,-1
 209 73 l 1,3,-1
 72 73 l 1,0,-1
678 73 m 1,4,-1
 678 210 l 1,5,-1
 816 210 l 1,6,-1
 816 73 l 1,7,-1
 678 73 l 1,4,-1
72 224 m 1,8,-1
 72 362 l 1,9,-1
 209 362 l 1,10,-1
 209 224 l 1,11,-1
 72 224 l 1,8,-1
678 224 m 1,12,-1
 678 362 l 1,13,-1
 816 362 l 1,14,-1
 816 224 l 1,15,-1
 678 224 l 1,12,-1
72 375 m 1,16,-1
 72 513 l 1,17,-1
 209 513 l 1,18,-1
 209 375 l 1,19,-1
 72 375 l 1,16,-1
678 376 m 1,20,-1
 678 514 l 1,21,-1
 816 514 l 1,22,-1
 816 376 l 1,23,-1
 678 376 l 1,20,-1
72 527 m 1,24,-1
 72 665 l 1,25,-1
 209 665 l 1,26,-1
 209 527 l 1,27,-1
 72 527 l 1,24,-1
223 527 m 1,28,-1
 223 665 l 1,29,-1
 361 665 l 1,30,-1
 361 527 l 1,31,-1
 223 527 l 1,28,-1
375 527 m 1,32,-1
 375 665 l 1,33,-1
 512 665 l 1,34,-1
 512 527 l 1,35,-1
 375 527 l 1,32,-1
526 527 m 1,36,-1
 526 665 l 1,37,-1
 664 665 l 1,38,-1
 664 527 l 1,39,-1
 526 527 l 1,36,-1
678 527 m 1,40,-1
 678 665 l 1,41,-1
 816 665 l 1,42,-1
 816 527 l 1,43,-1
 678 527 l 1,40,-1
72 679 m 1,44,-1
 72 816 l 1,45,-1
 209 816 l 1,46,-1
 209 679 l 1,47,-1
 72 679 l 1,44,-1
678 679 m 1,48,-1
 678 817 l 1,49,-1
 816 817 l 1,50,-1
 816 679 l 1,51,-1
 678 679 l 1,48,-1
72 830 m 1,52,-1
 72 968 l 1,53,-1
 209 968 l 1,54,-1
 209 830 l 1,55,-1
 72 830 l 1,52,-1
678 830 m 1,56,-1
 678 968 l 1,57,-1
 816 968 l 1,58,-1
 816 830 l 1,59,-1
 678 830 l 1,56,-1
72 981 m 1,60,-1
 72 1120 l 1,61,-1
 209 1120 l 1,62,-1
 209 981 l 1,63,-1
 72 981 l 1,60,-1
678 982 m 1,64,-1
 678 1120 l 1,65,-1
 816 1120 l 1,66,-1
 816 982 l 1,67,-1
 678 982 l 1,64,-1
EndSplineSet
EndChar

StartChar: i
Encoding: 105 105 76
Width: 857
GlyphClass: 1
Flags: W
LayerCount: 2
Fore
SplineSet
224 73 m 1,0,-1
 224 210 l 1,1,-1
 361 210 l 1,2,-1
 361 73 l 1,3,-1
 224 73 l 1,0,-1
375 73 m 1,4,-1
 375 210 l 1,5,-1
 513 210 l 1,6,-1
 513 73 l 1,7,-1
 375 73 l 1,4,-1
527 73 m 1,8,-1
 527 210 l 1,9,-1
 664 210 l 1,10,-1
 664 73 l 1,11,-1
 527 73 l 1,8,-1
375 224 m 1,12,-1
 375 362 l 1,13,-1
 513 362 l 1,14,-1
 513 224 l 1,15,-1
 375 224 l 1,12,-1
375 376 m 1,16,-1
 375 514 l 1,17,-1
 513 514 l 1,18,-1
 513 376 l 1,19,-1
 375 376 l 1,16,-1
375 527 m 1,20,-1
 375 665 l 1,21,-1
 512 665 l 1,22,-1
 512 527 l 1,23,-1
 375 527 l 1,20,-1
375 679 m 1,24,-1
 375 816 l 1,25,-1
 512 816 l 1,26,-1
 512 679 l 1,27,-1
 375 679 l 1,24,-1
375 830 m 1,28,-1
 375 968 l 1,29,-1
 512 968 l 1,30,-1
 512 830 l 1,31,-1
 375 830 l 1,28,-1
224 982 m 1,32,-1
 224 1120 l 1,33,-1
 361 1120 l 1,34,-1
 361 982 l 1,35,-1
 224 982 l 1,32,-1
375 982 m 1,36,-1
 375 1120 l 1,37,-1
 512 1120 l 1,38,-1
 512 982 l 1,39,-1
 375 982 l 1,36,-1
526 982 m 1,40,-1
 526 1120 l 1,41,-1
 664 1120 l 1,42,-1
 664 982 l 1,43,-1
 526 982 l 1,40,-1
EndSplineSet
EndChar

StartChar: j
Encoding: 106 106 77
Width: 857
GlyphClass: 1
Flags: W
LayerCount: 2
Fore
SplineSet
223 73 m 1,0,-1
 223 210 l 1,1,-1
 361 210 l 1,2,-1
 361 73 l 1,3,-1
 223 73 l 1,0,-1
375 73 m 1,4,-1
 375 210 l 1,5,-1
 512 210 l 1,6,-1
 512 73 l 1,7,-1
 375 73 l 1,4,-1
72 224 m 1,8,-1
 72 362 l 1,9,-1
 209 362 l 1,10,-1
 209 224 l 1,11,-1
 72 224 l 1,8,-1
526 224 m 1,12,-1
 526 362 l 1,13,-1
 664 362 l 1,14,-1
 664 224 l 1,15,-1
 526 224 l 1,12,-1
526 376 m 1,16,-1
 526 514 l 1,17,-1
 664 514 l 1,18,-1
 664 376 l 1,19,-1
 526 376 l 1,16,-1
526 527 m 1,20,-1
 526 665 l 1,21,-1
 664 665 l 1,22,-1
 664 527 l 1,23,-1
 526 527 l 1,20,-1
526 679 m 1,24,-1
 526 817 l 1,25,-1
 664 817 l 1,26,-1
 664 679 l 1,27,-1
 526 679 l 1,24,-1
526 830 m 1,28,-1
 526 968 l 1,29,-1
 664 968 l 1,30,-1
 664 830 l 1,31,-1
 526 830 l 1,28,-1
375 982 m 1,32,-1
 375 1120 l 1,33,-1
 512 1120 l 1,34,-1
 512 982 l 1,35,-1
 375 982 l 1,32,-1
526 982 m 1,36,-1
 526 1120 l 1,37,-1
 664 1120 l 1,38,-1
 664 982 l 1,39,-1
 526 982 l 1,36,-1
678 982 m 1,40,-1
 678 1120 l 1,41,-1
 816 1120 l 1,42,-1
 816 982 l 1,43,-1
 678 982 l 1,40,-1
EndSplineSet
EndChar

StartChar: k
Encoding: 107 107 78
Width: 857
GlyphClass: 1
Flags: W
LayerCount: 2
Fore
SplineSet
72 73 m 1,0,-1
 72 210 l 1,1,-1
 210 210 l 1,2,-1
 210 73 l 1,3,-1
 72 73 l 1,0,-1
678 73 m 1,4,-1
 678 210 l 1,5,-1
 816 210 l 1,6,-1
 816 73 l 1,7,-1
 678 73 l 1,4,-1
72 224 m 1,8,-1
 72 362 l 1,9,-1
 210 362 l 1,10,-1
 210 224 l 1,11,-1
 72 224 l 1,8,-1
526 224 m 1,12,-1
 526 362 l 1,13,-1
 664 362 l 1,14,-1
 664 224 l 1,15,-1
 526 224 l 1,12,-1
72 376 m 1,16,-1
 72 513 l 1,17,-1
 209 513 l 1,18,-1
 209 376 l 1,19,-1
 72 376 l 1,16,-1
375 376 m 1,20,-1
 375 514 l 1,21,-1
 513 514 l 1,22,-1
 513 376 l 1,23,-1
 375 376 l 1,20,-1
72 527 m 1,24,-1
 72 665 l 1,25,-1
 209 665 l 1,26,-1
 209 527 l 1,27,-1
 72 527 l 1,24,-1
223 527 m 1,28,-1
 223 665 l 1,29,-1
 361 665 l 1,30,-1
 361 527 l 1,31,-1
 223 527 l 1,28,-1
72 679 m 1,32,-1
 72 816 l 1,33,-1
 209 816 l 1,34,-1
 209 679 l 1,35,-1
 72 679 l 1,32,-1
375 679 m 1,36,-1
 375 816 l 1,37,-1
 512 816 l 1,38,-1
 512 679 l 1,39,-1
 375 679 l 1,36,-1
72 830 m 1,40,-1
 72 968 l 1,41,-1
 209 968 l 1,42,-1
 209 830 l 1,43,-1
 72 830 l 1,40,-1
526 830 m 1,44,-1
 526 968 l 1,45,-1
 664 968 l 1,46,-1
 664 830 l 1,47,-1
 526 830 l 1,44,-1
72 982 m 1,48,-1
 72 1120 l 1,49,-1
 209 1120 l 1,50,-1
 209 982 l 1,51,-1
 72 982 l 1,48,-1
678 982 m 1,52,-1
 678 1120 l 1,53,-1
 816 1120 l 1,54,-1
 816 982 l 1,55,-1
 678 982 l 1,52,-1
EndSplineSet
EndChar

StartChar: l
Encoding: 108 108 79
Width: 857
GlyphClass: 1
Flags: W
LayerCount: 2
Fore
SplineSet
72 73 m 1,0,-1
 72 210 l 1,1,-1
 210 210 l 1,2,-1
 210 73 l 1,3,-1
 72 73 l 1,0,-1
223 73 m 1,4,-1
 223 210 l 1,5,-1
 361 210 l 1,6,-1
 361 73 l 1,7,-1
 223 73 l 1,4,-1
375 73 m 1,8,-1
 375 210 l 1,9,-1
 513 210 l 1,10,-1
 513 73 l 1,11,-1
 375 73 l 1,8,-1
526 73 m 1,12,-1
 526 210 l 1,13,-1
 664 210 l 1,14,-1
 664 73 l 1,15,-1
 526 73 l 1,12,-1
678 73 m 1,16,-1
 678 210 l 1,17,-1
 816 210 l 1,18,-1
 816 73 l 1,19,-1
 678 73 l 1,16,-1
72 224 m 1,20,-1
 72 362 l 1,21,-1
 210 362 l 1,22,-1
 210 224 l 1,23,-1
 72 224 l 1,20,-1
72 376 m 1,24,-1
 72 514 l 1,25,-1
 210 514 l 1,26,-1
 210 376 l 1,27,-1
 72 376 l 1,24,-1
72 527 m 1,28,-1
 72 665 l 1,29,-1
 210 665 l 1,30,-1
 210 527 l 1,31,-1
 72 527 l 1,28,-1
72 679 m 1,32,-1
 72 816 l 1,33,-1
 210 816 l 1,34,-1
 210 679 l 1,35,-1
 72 679 l 1,32,-1
72 830 m 1,36,-1
 72 968 l 1,37,-1
 209 968 l 1,38,-1
 209 830 l 1,39,-1
 72 830 l 1,36,-1
72 982 m 1,40,-1
 72 1120 l 1,41,-1
 209 1120 l 1,42,-1
 209 982 l 1,43,-1
 72 982 l 1,40,-1
EndSplineSet
EndChar

StartChar: m
Encoding: 109 109 80
Width: 857
GlyphClass: 1
Flags: W
LayerCount: 2
Fore
SplineSet
72 73 m 1,0,-1
 72 210 l 1,1,-1
 209 210 l 1,2,-1
 209 73 l 1,3,-1
 72 73 l 1,0,-1
678 73 m 1,4,-1
 678 210 l 1,5,-1
 816 210 l 1,6,-1
 816 73 l 1,7,-1
 678 73 l 1,4,-1
72 224 m 1,8,-1
 72 362 l 1,9,-1
 209 362 l 1,10,-1
 209 224 l 1,11,-1
 72 224 l 1,8,-1
678 224 m 1,12,-1
 678 362 l 1,13,-1
 816 362 l 1,14,-1
 816 224 l 1,15,-1
 678 224 l 1,12,-1
72 375 m 1,16,-1
 72 513 l 1,17,-1
 209 513 l 1,18,-1
 209 375 l 1,19,-1
 72 375 l 1,16,-1
678 376 m 1,20,-1
 678 514 l 1,21,-1
 816 514 l 1,22,-1
 816 376 l 1,23,-1
 678 376 l 1,20,-1
72 527 m 1,24,-1
 72 665 l 1,25,-1
 209 665 l 1,26,-1
 209 527 l 1,27,-1
 72 527 l 1,24,-1
375 527 m 1,28,-1
 375 665 l 1,29,-1
 512 665 l 1,30,-1
 512 527 l 1,31,-1
 375 527 l 1,28,-1
678 527 m 1,32,-1
 678 665 l 1,33,-1
 816 665 l 1,34,-1
 816 527 l 1,35,-1
 678 527 l 1,32,-1
72 679 m 1,36,-1
 72 816 l 1,37,-1
 209 816 l 1,38,-1
 209 679 l 1,39,-1
 72 679 l 1,36,-1
375 679 m 1,40,-1
 375 816 l 1,41,-1
 512 816 l 1,42,-1
 512 679 l 1,43,-1
 375 679 l 1,40,-1
678 679 m 1,44,-1
 678 817 l 1,45,-1
 816 817 l 1,46,-1
 816 679 l 1,47,-1
 678 679 l 1,44,-1
72 830 m 1,48,-1
 72 968 l 1,49,-1
 209 968 l 1,50,-1
 209 830 l 1,51,-1
 72 830 l 1,48,-1
223 830 m 1,52,-1
 223 968 l 1,53,-1
 361 968 l 1,54,-1
 361 830 l 1,55,-1
 223 830 l 1,52,-1
526 830 m 1,56,-1
 526 968 l 1,57,-1
 664 968 l 1,58,-1
 664 830 l 1,59,-1
 526 830 l 1,56,-1
678 830 m 1,60,-1
 678 968 l 1,61,-1
 816 968 l 1,62,-1
 816 830 l 1,63,-1
 678 830 l 1,60,-1
72 981 m 1,64,-1
 72 1120 l 1,65,-1
 209 1120 l 1,66,-1
 209 981 l 1,67,-1
 72 981 l 1,64,-1
678 982 m 1,68,-1
 678 1120 l 1,69,-1
 816 1120 l 1,70,-1
 816 982 l 1,71,-1
 678 982 l 1,68,-1
EndSplineSet
EndChar

StartChar: n
Encoding: 110 110 81
Width: 857
GlyphClass: 1
Flags: W
LayerCount: 2
Fore
SplineSet
72 73 m 1,0,-1
 72 210 l 1,1,-1
 209 210 l 1,2,-1
 209 73 l 1,3,-1
 72 73 l 1,0,-1
678 73 m 1,4,-1
 678 210 l 1,5,-1
 816 210 l 1,6,-1
 816 73 l 1,7,-1
 678 73 l 1,4,-1
72 224 m 1,8,-1
 72 362 l 1,9,-1
 209 362 l 1,10,-1
 209 224 l 1,11,-1
 72 224 l 1,8,-1
678 224 m 1,12,-1
 678 362 l 1,13,-1
 816 362 l 1,14,-1
 816 224 l 1,15,-1
 678 224 l 1,12,-1
72 375 m 1,16,-1
 72 513 l 1,17,-1
 209 513 l 1,18,-1
 209 375 l 1,19,-1
 72 375 l 1,16,-1
526 376 m 1,20,-1
 526 514 l 1,21,-1
 664 514 l 1,22,-1
 664 376 l 1,23,-1
 526 376 l 1,20,-1
678 376 m 1,24,-1
 678 514 l 1,25,-1
 816 514 l 1,26,-1
 816 376 l 1,27,-1
 678 376 l 1,24,-1
72 527 m 1,28,-1
 72 665 l 1,29,-1
 209 665 l 1,30,-1
 209 527 l 1,31,-1
 72 527 l 1,28,-1
375 527 m 1,32,-1
 375 665 l 1,33,-1
 512 665 l 1,34,-1
 512 527 l 1,35,-1
 375 527 l 1,32,-1
678 527 m 1,36,-1
 678 665 l 1,37,-1
 816 665 l 1,38,-1
 816 527 l 1,39,-1
 678 527 l 1,36,-1
72 679 m 1,40,-1
 72 816 l 1,41,-1
 209 816 l 1,42,-1
 209 679 l 1,43,-1
 72 679 l 1,40,-1
223 679 m 1,44,-1
 223 816 l 1,45,-1
 361 816 l 1,46,-1
 361 679 l 1,47,-1
 223 679 l 1,44,-1
678 679 m 1,48,-1
 678 817 l 1,49,-1
 816 817 l 1,50,-1
 816 679 l 1,51,-1
 678 679 l 1,48,-1
72 830 m 1,52,-1
 72 968 l 1,53,-1
 209 968 l 1,54,-1
 209 830 l 1,55,-1
 72 830 l 1,52,-1
678 830 m 1,56,-1
 678 968 l 1,57,-1
 816 968 l 1,58,-1
 816 830 l 1,59,-1
 678 830 l 1,56,-1
72 981 m 1,60,-1
 72 1120 l 1,61,-1
 209 1120 l 1,62,-1
 209 981 l 1,63,-1
 72 981 l 1,60,-1
678 982 m 1,64,-1
 678 1120 l 1,65,-1
 816 1120 l 1,66,-1
 816 982 l 1,67,-1
 678 982 l 1,64,-1
EndSplineSet
EndChar

StartChar: o
Encoding: 111 111 82
Width: 857
GlyphClass: 1
Flags: W
LayerCount: 2
Fore
SplineSet
223 73 m 1,0,-1
 223 210 l 1,1,-1
 361 210 l 1,2,-1
 361 73 l 1,3,-1
 223 73 l 1,0,-1
375 73 m 1,4,-1
 375 210 l 1,5,-1
 512 210 l 1,6,-1
 512 73 l 1,7,-1
 375 73 l 1,4,-1
526 73 m 1,8,-1
 526 210 l 1,9,-1
 664 210 l 1,10,-1
 664 73 l 1,11,-1
 526 73 l 1,8,-1
72 224 m 1,12,-1
 72 362 l 1,13,-1
 209 362 l 1,14,-1
 209 224 l 1,15,-1
 72 224 l 1,12,-1
678 224 m 1,16,-1
 678 362 l 1,17,-1
 816 362 l 1,18,-1
 816 224 l 1,19,-1
 678 224 l 1,16,-1
72 375 m 1,20,-1
 72 513 l 1,21,-1
 209 513 l 1,22,-1
 209 375 l 1,23,-1
 72 375 l 1,20,-1
678 376 m 1,24,-1
 678 514 l 1,25,-1
 816 514 l 1,26,-1
 816 376 l 1,27,-1
 678 376 l 1,24,-1
72 527 m 1,28,-1
 72 665 l 1,29,-1
 209 665 l 1,30,-1
 209 527 l 1,31,-1
 72 527 l 1,28,-1
678 527 m 1,32,-1
 678 665 l 1,33,-1
 816 665 l 1,34,-1
 816 527 l 1,35,-1
 678 527 l 1,32,-1
72 679 m 1,36,-1
 72 816 l 1,37,-1
 209 816 l 1,38,-1
 209 679 l 1,39,-1
 72 679 l 1,36,-1
678 679 m 1,40,-1
 678 817 l 1,41,-1
 816 817 l 1,42,-1
 816 679 l 1,43,-1
 678 679 l 1,40,-1
72 830 m 1,44,-1
 72 968 l 1,45,-1
 209 968 l 1,46,-1
 209 830 l 1,47,-1
 72 830 l 1,44,-1
678 830 m 1,48,-1
 678 968 l 1,49,-1
 816 968 l 1,50,-1
 816 830 l 1,51,-1
 678 830 l 1,48,-1
223 982 m 1,52,-1
 223 1120 l 1,53,-1
 361 1120 l 1,54,-1
 361 982 l 1,55,-1
 223 982 l 1,52,-1
375 982 m 1,56,-1
 375 1120 l 1,57,-1
 512 1120 l 1,58,-1
 512 982 l 1,59,-1
 375 982 l 1,56,-1
526 982 m 1,60,-1
 526 1120 l 1,61,-1
 664 1120 l 1,62,-1
 664 982 l 1,63,-1
 526 982 l 1,60,-1
EndSplineSet
EndChar

StartChar: p
Encoding: 112 112 83
Width: 857
GlyphClass: 1
Flags: W
LayerCount: 2
Fore
SplineSet
72 73 m 1,0,-1
 72 210 l 1,1,-1
 210 210 l 1,2,-1
 210 73 l 1,3,-1
 72 73 l 1,0,-1
72 224 m 1,4,-1
 72 362 l 1,5,-1
 209 362 l 1,6,-1
 209 224 l 1,7,-1
 72 224 l 1,4,-1
72 375 m 1,8,-1
 72 513 l 1,9,-1
 209 513 l 1,10,-1
 209 375 l 1,11,-1
 72 375 l 1,8,-1
72 527 m 1,12,-1
 72 665 l 1,13,-1
 209 665 l 1,14,-1
 209 527 l 1,15,-1
 72 527 l 1,12,-1
223 527 m 1,16,-1
 223 665 l 1,17,-1
 361 665 l 1,18,-1
 361 527 l 1,19,-1
 223 527 l 1,16,-1
375 527 m 1,20,-1
 375 665 l 1,21,-1
 513 665 l 1,22,-1
 513 527 l 1,23,-1
 375 527 l 1,20,-1
526 527 m 1,24,-1
 526 665 l 1,25,-1
 664 665 l 1,26,-1
 664 527 l 1,27,-1
 526 527 l 1,24,-1
72 679 m 1,28,-1
 72 816 l 1,29,-1
 209 816 l 1,30,-1
 209 679 l 1,31,-1
 72 679 l 1,28,-1
678 679 m 1,32,-1
 678 817 l 1,33,-1
 816 817 l 1,34,-1
 816 679 l 1,35,-1
 678 679 l 1,32,-1
72 830 m 1,36,-1
 72 968 l 1,37,-1
 209 968 l 1,38,-1
 209 830 l 1,39,-1
 72 830 l 1,36,-1
678 830 m 1,40,-1
 678 968 l 1,41,-1
 816 968 l 1,42,-1
 816 830 l 1,43,-1
 678 830 l 1,40,-1
72 982 m 1,44,-1
 72 1120 l 1,45,-1
 209 1120 l 1,46,-1
 209 982 l 1,47,-1
 72 982 l 1,44,-1
223 982 m 1,48,-1
 223 1120 l 1,49,-1
 361 1120 l 1,50,-1
 361 982 l 1,51,-1
 223 982 l 1,48,-1
375 982 m 1,52,-1
 375 1120 l 1,53,-1
 512 1120 l 1,54,-1
 512 982 l 1,55,-1
 375 982 l 1,52,-1
526 982 m 1,56,-1
 526 1120 l 1,57,-1
 664 1120 l 1,58,-1
 664 982 l 1,59,-1
 526 982 l 1,56,-1
EndSplineSet
EndChar

StartChar: q
Encoding: 113 113 84
Width: 857
GlyphClass: 1
Flags: W
LayerCount: 2
Fore
SplineSet
223 73 m 1,0,-1
 223 210 l 1,1,-1
 361 210 l 1,2,-1
 361 73 l 1,3,-1
 223 73 l 1,0,-1
375 73 m 1,4,-1
 375 210 l 1,5,-1
 512 210 l 1,6,-1
 512 73 l 1,7,-1
 375 73 l 1,4,-1
678 73 m 1,8,-1
 678 210 l 1,9,-1
 816 210 l 1,10,-1
 816 73 l 1,11,-1
 678 73 l 1,8,-1
72 224 m 1,12,-1
 72 362 l 1,13,-1
 209 362 l 1,14,-1
 209 224 l 1,15,-1
 72 224 l 1,12,-1
526 224 m 1,16,-1
 526 362 l 1,17,-1
 664 362 l 1,18,-1
 664 224 l 1,19,-1
 526 224 l 1,16,-1
72 375 m 1,20,-1
 72 513 l 1,21,-1
 209 513 l 1,22,-1
 209 375 l 1,23,-1
 72 375 l 1,20,-1
375 376 m 1,24,-1
 375 513 l 1,25,-1
 512 513 l 1,26,-1
 512 376 l 1,27,-1
 375 376 l 1,24,-1
678 376 m 1,28,-1
 678 514 l 1,29,-1
 816 514 l 1,30,-1
 816 376 l 1,31,-1
 678 376 l 1,28,-1
72 527 m 1,32,-1
 72 665 l 1,33,-1
 209 665 l 1,34,-1
 209 527 l 1,35,-1
 72 527 l 1,32,-1
678 527 m 1,36,-1
 678 665 l 1,37,-1
 816 665 l 1,38,-1
 816 527 l 1,39,-1
 678 527 l 1,36,-1
72 679 m 1,40,-1
 72 816 l 1,41,-1
 209 816 l 1,42,-1
 209 679 l 1,43,-1
 72 679 l 1,40,-1
678 679 m 1,44,-1
 678 817 l 1,45,-1
 816 817 l 1,46,-1
 816 679 l 1,47,-1
 678 679 l 1,44,-1
72 830 m 1,48,-1
 72 968 l 1,49,-1
 209 968 l 1,50,-1
 209 830 l 1,51,-1
 72 830 l 1,48,-1
678 830 m 1,52,-1
 678 968 l 1,53,-1
 816 968 l 1,54,-1
 816 830 l 1,55,-1
 678 830 l 1,52,-1
223 982 m 1,56,-1
 223 1120 l 1,57,-1
 361 1120 l 1,58,-1
 361 982 l 1,59,-1
 223 982 l 1,56,-1
375 982 m 1,60,-1
 375 1120 l 1,61,-1
 512 1120 l 1,62,-1
 512 982 l 1,63,-1
 375 982 l 1,60,-1
526 982 m 1,64,-1
 526 1120 l 1,65,-1
 664 1120 l 1,66,-1
 664 982 l 1,67,-1
 526 982 l 1,64,-1
EndSplineSet
EndChar

StartChar: r
Encoding: 114 114 85
Width: 857
GlyphClass: 1
Flags: W
LayerCount: 2
Fore
SplineSet
72 73 m 1,0,-1
 72 210 l 1,1,-1
 209 210 l 1,2,-1
 209 73 l 1,3,-1
 72 73 l 1,0,-1
678 73 m 1,4,-1
 678 210 l 1,5,-1
 816 210 l 1,6,-1
 816 73 l 1,7,-1
 678 73 l 1,4,-1
72 224 m 1,8,-1
 72 362 l 1,9,-1
 209 362 l 1,10,-1
 209 224 l 1,11,-1
 72 224 l 1,8,-1
526 224 m 1,12,-1
 526 362 l 1,13,-1
 664 362 l 1,14,-1
 664 224 l 1,15,-1
 526 224 l 1,12,-1
72 375 m 1,16,-1
 72 513 l 1,17,-1
 209 513 l 1,18,-1
 209 375 l 1,19,-1
 72 375 l 1,16,-1
375 376 m 1,20,-1
 375 514 l 1,21,-1
 512 514 l 1,22,-1
 512 376 l 1,23,-1
 375 376 l 1,20,-1
72 527 m 1,24,-1
 72 665 l 1,25,-1
 209 665 l 1,26,-1
 209 527 l 1,27,-1
 72 527 l 1,24,-1
223 527 m 1,28,-1
 223 665 l 1,29,-1
 361 665 l 1,30,-1
 361 527 l 1,31,-1
 223 527 l 1,28,-1
375 527 m 1,32,-1
 375 665 l 1,33,-1
 512 665 l 1,34,-1
 512 527 l 1,35,-1
 375 527 l 1,32,-1
526 527 m 1,36,-1
 526 665 l 1,37,-1
 664 665 l 1,38,-1
 664 527 l 1,39,-1
 526 527 l 1,36,-1
72 679 m 1,40,-1
 72 816 l 1,41,-1
 209 816 l 1,42,-1
 209 679 l 1,43,-1
 72 679 l 1,40,-1
678 679 m 1,44,-1
 678 817 l 1,45,-1
 816 817 l 1,46,-1
 816 679 l 1,47,-1
 678 679 l 1,44,-1
72 830 m 1,48,-1
 72 968 l 1,49,-1
 209 968 l 1,50,-1
 209 830 l 1,51,-1
 72 830 l 1,48,-1
678 830 m 1,52,-1
 678 968 l 1,53,-1
 816 968 l 1,54,-1
 816 830 l 1,55,-1
 678 830 l 1,52,-1
72 981 m 1,56,-1
 72 1120 l 1,57,-1
 209 1120 l 1,58,-1
 209 981 l 1,59,-1
 72 981 l 1,56,-1
223 982 m 1,60,-1
 223 1120 l 1,61,-1
 361 1120 l 1,62,-1
 361 982 l 1,63,-1
 223 982 l 1,60,-1
375 982 m 1,64,-1
 375 1120 l 1,65,-1
 512 1120 l 1,66,-1
 512 982 l 1,67,-1
 375 982 l 1,64,-1
526 982 m 1,68,-1
 526 1120 l 1,69,-1
 664 1120 l 1,70,-1
 664 982 l 1,71,-1
 526 982 l 1,68,-1
EndSplineSet
EndChar

StartChar: s
Encoding: 115 115 86
Width: 857
GlyphClass: 1
Flags: W
LayerCount: 2
Fore
SplineSet
223 73 m 1,0,-1
 223 210 l 1,1,-1
 361 210 l 1,2,-1
 361 73 l 1,3,-1
 223 73 l 1,0,-1
375 73 m 1,4,-1
 375 210 l 1,5,-1
 512 210 l 1,6,-1
 512 73 l 1,7,-1
 375 73 l 1,4,-1
526 73 m 1,8,-1
 526 210 l 1,9,-1
 664 210 l 1,10,-1
 664 73 l 1,11,-1
 526 73 l 1,8,-1
72 224 m 1,12,-1
 72 362 l 1,13,-1
 209 362 l 1,14,-1
 209 224 l 1,15,-1
 72 224 l 1,12,-1
678 224 m 1,16,-1
 678 362 l 1,17,-1
 816 362 l 1,18,-1
 816 224 l 1,19,-1
 678 224 l 1,16,-1
678 376 m 1,20,-1
 678 514 l 1,21,-1
 816 514 l 1,22,-1
 816 376 l 1,23,-1
 678 376 l 1,20,-1
223 527 m 1,24,-1
 223 665 l 1,25,-1
 361 665 l 1,26,-1
 361 527 l 1,27,-1
 223 527 l 1,24,-1
375 527 m 1,28,-1
 375 665 l 1,29,-1
 512 665 l 1,30,-1
 512 527 l 1,31,-1
 375 527 l 1,28,-1
526 527 m 1,32,-1
 526 665 l 1,33,-1
 664 665 l 1,34,-1
 664 527 l 1,35,-1
 526 527 l 1,32,-1
72 679 m 1,36,-1
 72 816 l 1,37,-1
 209 816 l 1,38,-1
 209 679 l 1,39,-1
 72 679 l 1,36,-1
72 830 m 1,40,-1
 72 968 l 1,41,-1
 209 968 l 1,42,-1
 209 830 l 1,43,-1
 72 830 l 1,40,-1
678 830 m 1,44,-1
 678 968 l 1,45,-1
 816 968 l 1,46,-1
 816 830 l 1,47,-1
 678 830 l 1,44,-1
223 982 m 1,48,-1
 223 1120 l 1,49,-1
 361 1120 l 1,50,-1
 361 982 l 1,51,-1
 223 982 l 1,48,-1
375 982 m 1,52,-1
 375 1120 l 1,53,-1
 512 1120 l 1,54,-1
 512 982 l 1,55,-1
 375 982 l 1,52,-1
526 982 m 1,56,-1
 526 1120 l 1,57,-1
 664 1120 l 1,58,-1
 664 982 l 1,59,-1
 526 982 l 1,56,-1
EndSplineSet
EndChar

StartChar: t
Encoding: 116 116 87
Width: 857
GlyphClass: 1
Flags: W
LayerCount: 2
Fore
SplineSet
375 73 m 1,0,-1
 375 210 l 1,1,-1
 513 210 l 1,2,-1
 513 73 l 1,3,-1
 375 73 l 1,0,-1
375 224 m 1,4,-1
 375 362 l 1,5,-1
 513 362 l 1,6,-1
 513 224 l 1,7,-1
 375 224 l 1,4,-1
375 376 m 1,8,-1
 375 514 l 1,9,-1
 513 514 l 1,10,-1
 513 376 l 1,11,-1
 375 376 l 1,8,-1
375 527 m 1,12,-1
 375 665 l 1,13,-1
 512 665 l 1,14,-1
 512 527 l 1,15,-1
 375 527 l 1,12,-1
375 679 m 1,16,-1
 375 816 l 1,17,-1
 512 816 l 1,18,-1
 512 679 l 1,19,-1
 375 679 l 1,16,-1
375 830 m 1,20,-1
 375 968 l 1,21,-1
 512 968 l 1,22,-1
 512 830 l 1,23,-1
 375 830 l 1,20,-1
72 982 m 1,24,-1
 72 1120 l 1,25,-1
 209 1120 l 1,26,-1
 209 982 l 1,27,-1
 72 982 l 1,24,-1
223 982 m 1,28,-1
 223 1120 l 1,29,-1
 361 1120 l 1,30,-1
 361 982 l 1,31,-1
 223 982 l 1,28,-1
375 982 m 1,32,-1
 375 1120 l 1,33,-1
 512 1120 l 1,34,-1
 512 982 l 1,35,-1
 375 982 l 1,32,-1
526 982 m 1,36,-1
 526 1120 l 1,37,-1
 664 1120 l 1,38,-1
 664 982 l 1,39,-1
 526 982 l 1,36,-1
678 982 m 1,40,-1
 678 1120 l 1,41,-1
 816 1120 l 1,42,-1
 816 982 l 1,43,-1
 678 982 l 1,40,-1
EndSplineSet
EndChar

StartChar: u
Encoding: 117 117 88
Width: 857
GlyphClass: 1
Flags: W
LayerCount: 2
Fore
SplineSet
223 73 m 1,0,-1
 223 210 l 1,1,-1
 361 210 l 1,2,-1
 361 73 l 1,3,-1
 223 73 l 1,0,-1
375 73 m 1,4,-1
 375 210 l 1,5,-1
 512 210 l 1,6,-1
 512 73 l 1,7,-1
 375 73 l 1,4,-1
526 73 m 1,8,-1
 526 210 l 1,9,-1
 664 210 l 1,10,-1
 664 73 l 1,11,-1
 526 73 l 1,8,-1
72 224 m 1,12,-1
 72 362 l 1,13,-1
 209 362 l 1,14,-1
 209 224 l 1,15,-1
 72 224 l 1,12,-1
678 224 m 1,16,-1
 678 362 l 1,17,-1
 816 362 l 1,18,-1
 816 224 l 1,19,-1
 678 224 l 1,16,-1
72 375 m 1,20,-1
 72 513 l 1,21,-1
 209 513 l 1,22,-1
 209 375 l 1,23,-1
 72 375 l 1,20,-1
678 376 m 1,24,-1
 678 514 l 1,25,-1
 816 514 l 1,26,-1
 816 376 l 1,27,-1
 678 376 l 1,24,-1
72 527 m 1,28,-1
 72 665 l 1,29,-1
 209 665 l 1,30,-1
 209 527 l 1,31,-1
 72 527 l 1,28,-1
678 527 m 1,32,-1
 678 665 l 1,33,-1
 816 665 l 1,34,-1
 816 527 l 1,35,-1
 678 527 l 1,32,-1
72 679 m 1,36,-1
 72 816 l 1,37,-1
 209 816 l 1,38,-1
 209 679 l 1,39,-1
 72 679 l 1,36,-1
678 679 m 1,40,-1
 678 817 l 1,41,-1
 816 817 l 1,42,-1
 816 679 l 1,43,-1
 678 679 l 1,40,-1
72 830 m 1,44,-1
 72 968 l 1,45,-1
 209 968 l 1,46,-1
 209 830 l 1,47,-1
 72 830 l 1,44,-1
678 830 m 1,48,-1
 678 968 l 1,49,-1
 816 968 l 1,50,-1
 816 830 l 1,51,-1
 678 830 l 1,48,-1
72 982 m 1,52,-1
 72 1120 l 1,53,-1
 209 1120 l 1,54,-1
 209 982 l 1,55,-1
 72 982 l 1,52,-1
678 982 m 1,56,-1
 678 1120 l 1,57,-1
 816 1120 l 1,58,-1
 816 982 l 1,59,-1
 678 982 l 1,56,-1
EndSplineSet
EndChar

StartChar: v
Encoding: 118 118 89
Width: 857
GlyphClass: 1
Flags: W
LayerCount: 2
Fore
SplineSet
375 73 m 1,0,-1
 375 210 l 1,1,-1
 512 210 l 1,2,-1
 512 73 l 1,3,-1
 375 73 l 1,0,-1
72 679 m 1,4,-1
 72 816 l 1,5,-1
 209 816 l 1,6,-1
 209 679 l 1,7,-1
 72 679 l 1,4,-1
678 679 m 1,8,-1
 678 817 l 1,9,-1
 816 817 l 1,10,-1
 816 679 l 1,11,-1
 678 679 l 1,8,-1
72 830 m 1,12,-1
 72 968 l 1,13,-1
 209 968 l 1,14,-1
 209 830 l 1,15,-1
 72 830 l 1,12,-1
678 830 m 1,16,-1
 678 968 l 1,17,-1
 816 968 l 1,18,-1
 816 830 l 1,19,-1
 678 830 l 1,16,-1
72 982 m 1,20,-1
 72 1120 l 1,21,-1
 209 1120 l 1,22,-1
 209 982 l 1,23,-1
 72 982 l 1,20,-1
678 982 m 1,24,-1
 678 1120 l 1,25,-1
 816 1120 l 1,26,-1
 816 982 l 1,27,-1
 678 982 l 1,24,-1
223 375 m 1,28,-1
 223 513 l 1,29,-1
 361 513 l 1,30,-1
 361 375 l 1,31,-1
 223 375 l 1,28,-1
526 376 m 1,32,-1
 526 514 l 1,33,-1
 664 514 l 1,34,-1
 664 376 l 1,35,-1
 526 376 l 1,32,-1
223 527 m 1,36,-1
 223 665 l 1,37,-1
 361 665 l 1,38,-1
 361 527 l 1,39,-1
 223 527 l 1,36,-1
526 527 m 1,40,-1
 526 665 l 1,41,-1
 664 665 l 1,42,-1
 664 527 l 1,43,-1
 526 527 l 1,40,-1
375 224 m 1,44,-1
 375 362 l 1,45,-1
 513 362 l 1,46,-1
 513 224 l 1,47,-1
 375 224 l 1,44,-1
EndSplineSet
EndChar

StartChar: w
Encoding: 119 119 90
Width: 857
GlyphClass: 1
Flags: W
LayerCount: 2
Fore
SplineSet
223 73 m 1,0,-1
 223 210 l 1,1,-1
 361 210 l 1,2,-1
 361 73 l 1,3,-1
 223 73 l 1,0,-1
526 73 m 1,4,-1
 526 210 l 1,5,-1
 664 210 l 1,6,-1
 664 73 l 1,7,-1
 526 73 l 1,4,-1
72 224 m 1,8,-1
 72 362 l 1,9,-1
 209 362 l 1,10,-1
 209 224 l 1,11,-1
 72 224 l 1,8,-1
375 224 m 1,12,-1
 375 362 l 1,13,-1
 512 362 l 1,14,-1
 512 224 l 1,15,-1
 375 224 l 1,12,-1
678 224 m 1,16,-1
 678 362 l 1,17,-1
 816 362 l 1,18,-1
 816 224 l 1,19,-1
 678 224 l 1,16,-1
72 375 m 1,20,-1
 72 513 l 1,21,-1
 209 513 l 1,22,-1
 209 375 l 1,23,-1
 72 375 l 1,20,-1
375 376 m 1,24,-1
 375 513 l 1,25,-1
 512 513 l 1,26,-1
 512 376 l 1,27,-1
 375 376 l 1,24,-1
678 376 m 1,28,-1
 678 514 l 1,29,-1
 816 514 l 1,30,-1
 816 376 l 1,31,-1
 678 376 l 1,28,-1
72 527 m 1,32,-1
 72 665 l 1,33,-1
 209 665 l 1,34,-1
 209 527 l 1,35,-1
 72 527 l 1,32,-1
375 527 m 1,36,-1
 375 665 l 1,37,-1
 512 665 l 1,38,-1
 512 527 l 1,39,-1
 375 527 l 1,36,-1
678 527 m 1,40,-1
 678 665 l 1,41,-1
 816 665 l 1,42,-1
 816 527 l 1,43,-1
 678 527 l 1,40,-1
72 679 m 1,44,-1
 72 816 l 1,45,-1
 209 816 l 1,46,-1
 209 679 l 1,47,-1
 72 679 l 1,44,-1
678 679 m 1,48,-1
 678 817 l 1,49,-1
 816 817 l 1,50,-1
 816 679 l 1,51,-1
 678 679 l 1,48,-1
72 830 m 1,52,-1
 72 968 l 1,53,-1
 209 968 l 1,54,-1
 209 830 l 1,55,-1
 72 830 l 1,52,-1
678 830 m 1,56,-1
 678 968 l 1,57,-1
 816 968 l 1,58,-1
 816 830 l 1,59,-1
 678 830 l 1,56,-1
72 981 m 1,60,-1
 72 1120 l 1,61,-1
 209 1120 l 1,62,-1
 209 981 l 1,63,-1
 72 981 l 1,60,-1
678 982 m 1,64,-1
 678 1120 l 1,65,-1
 816 1120 l 1,66,-1
 816 982 l 1,67,-1
 678 982 l 1,64,-1
EndSplineSet
EndChar

StartChar: x
Encoding: 120 120 91
Width: 857
GlyphClass: 1
Flags: W
LayerCount: 2
Fore
SplineSet
72 73 m 1,0,-1
 72 210 l 1,1,-1
 209 210 l 1,2,-1
 209 73 l 1,3,-1
 72 73 l 1,0,-1
678 73 m 1,4,-1
 678 210 l 1,5,-1
 816 210 l 1,6,-1
 816 73 l 1,7,-1
 678 73 l 1,4,-1
72 224 m 1,8,-1
 72 362 l 1,9,-1
 209 362 l 1,10,-1
 209 224 l 1,11,-1
 72 224 l 1,8,-1
678 224 m 1,12,-1
 678 362 l 1,13,-1
 816 362 l 1,14,-1
 816 224 l 1,15,-1
 678 224 l 1,12,-1
223 376 m 1,16,-1
 223 514 l 1,17,-1
 361 514 l 1,18,-1
 361 376 l 1,19,-1
 223 376 l 1,16,-1
526 376 m 1,20,-1
 526 514 l 1,21,-1
 664 514 l 1,22,-1
 664 376 l 1,23,-1
 526 376 l 1,20,-1
375 527 m 1,24,-1
 375 665 l 1,25,-1
 512 665 l 1,26,-1
 512 527 l 1,27,-1
 375 527 l 1,24,-1
223 679 m 1,28,-1
 223 816 l 1,29,-1
 361 816 l 1,30,-1
 361 679 l 1,31,-1
 223 679 l 1,28,-1
526 679 m 1,32,-1
 526 816 l 1,33,-1
 664 816 l 1,34,-1
 664 679 l 1,35,-1
 526 679 l 1,32,-1
72 830 m 1,36,-1
 72 968 l 1,37,-1
 209 968 l 1,38,-1
 209 830 l 1,39,-1
 72 830 l 1,36,-1
678 830 m 1,40,-1
 678 968 l 1,41,-1
 816 968 l 1,42,-1
 816 830 l 1,43,-1
 678 830 l 1,40,-1
72 982 m 1,44,-1
 72 1120 l 1,45,-1
 209 1120 l 1,46,-1
 209 982 l 1,47,-1
 72 982 l 1,44,-1
678 982 m 1,48,-1
 678 1120 l 1,49,-1
 816 1120 l 1,50,-1
 816 982 l 1,51,-1
 678 982 l 1,48,-1
EndSplineSet
EndChar

StartChar: y
Encoding: 121 121 92
Width: 857
GlyphClass: 1
Flags: W
LayerCount: 2
Fore
SplineSet
375 73 m 1,0,-1
 375 210 l 1,1,-1
 513 210 l 1,2,-1
 513 73 l 1,3,-1
 375 73 l 1,0,-1
375 224 m 1,4,-1
 375 362 l 1,5,-1
 512 362 l 1,6,-1
 512 224 l 1,7,-1
 375 224 l 1,4,-1
375 376 m 1,8,-1
 375 514 l 1,9,-1
 512 514 l 1,10,-1
 512 376 l 1,11,-1
 375 376 l 1,8,-1
223 527 m 1,12,-1
 223 665 l 1,13,-1
 361 665 l 1,14,-1
 361 527 l 1,15,-1
 223 527 l 1,12,-1
526 527 m 1,16,-1
 526 665 l 1,17,-1
 664 665 l 1,18,-1
 664 527 l 1,19,-1
 526 527 l 1,16,-1
72 679 m 1,20,-1
 72 816 l 1,21,-1
 210 816 l 1,22,-1
 210 679 l 1,23,-1
 72 679 l 1,20,-1
678 679 m 1,24,-1
 678 817 l 1,25,-1
 816 817 l 1,26,-1
 816 679 l 1,27,-1
 678 679 l 1,24,-1
72 830 m 1,28,-1
 72 968 l 1,29,-1
 209 968 l 1,30,-1
 209 830 l 1,31,-1
 72 830 l 1,28,-1
678 830 m 1,32,-1
 678 968 l 1,33,-1
 816 968 l 1,34,-1
 816 830 l 1,35,-1
 678 830 l 1,32,-1
72 982 m 1,36,-1
 72 1120 l 1,37,-1
 209 1120 l 1,38,-1
 209 982 l 1,39,-1
 72 982 l 1,36,-1
678 982 m 1,40,-1
 678 1120 l 1,41,-1
 816 1120 l 1,42,-1
 816 982 l 1,43,-1
 678 982 l 1,40,-1
EndSplineSet
EndChar

StartChar: z
Encoding: 122 122 93
Width: 857
GlyphClass: 1
Flags: W
LayerCount: 2
Fore
SplineSet
72 73 m 1,0,-1
 72 210 l 1,1,-1
 209 210 l 1,2,-1
 209 73 l 1,3,-1
 72 73 l 1,0,-1
223 73 m 1,4,-1
 223 210 l 1,5,-1
 361 210 l 1,6,-1
 361 73 l 1,7,-1
 223 73 l 1,4,-1
375 73 m 1,8,-1
 375 210 l 1,9,-1
 512 210 l 1,10,-1
 512 73 l 1,11,-1
 375 73 l 1,8,-1
526 73 m 1,12,-1
 526 210 l 1,13,-1
 664 210 l 1,14,-1
 664 73 l 1,15,-1
 526 73 l 1,12,-1
678 73 m 1,16,-1
 678 210 l 1,17,-1
 816 210 l 1,18,-1
 816 73 l 1,19,-1
 678 73 l 1,16,-1
72 224 m 1,20,-1
 72 362 l 1,21,-1
 209 362 l 1,22,-1
 209 224 l 1,23,-1
 72 224 l 1,20,-1
223 375 m 1,24,-1
 223 513 l 1,25,-1
 361 513 l 1,26,-1
 361 375 l 1,27,-1
 223 375 l 1,24,-1
375 527 m 1,28,-1
 375 665 l 1,29,-1
 512 665 l 1,30,-1
 512 527 l 1,31,-1
 375 527 l 1,28,-1
526 679 m 1,32,-1
 526 817 l 1,33,-1
 664 817 l 1,34,-1
 664 679 l 1,35,-1
 526 679 l 1,32,-1
678 830 m 1,36,-1
 678 968 l 1,37,-1
 816 968 l 1,38,-1
 816 830 l 1,39,-1
 678 830 l 1,36,-1
72 982 m 1,40,-1
 72 1120 l 1,41,-1
 209 1120 l 1,42,-1
 209 982 l 1,43,-1
 72 982 l 1,40,-1
223 982 m 1,44,-1
 223 1120 l 1,45,-1
 361 1120 l 1,46,-1
 361 982 l 1,47,-1
 223 982 l 1,44,-1
375 982 m 1,48,-1
 375 1120 l 1,49,-1
 512 1120 l 1,50,-1
 512 982 l 1,51,-1
 375 982 l 1,48,-1
526 982 m 1,52,-1
 526 1120 l 1,53,-1
 664 1120 l 1,54,-1
 664 982 l 1,55,-1
 526 982 l 1,52,-1
678 982 m 1,56,-1
 678 1120 l 1,57,-1
 816 1120 l 1,58,-1
 816 982 l 1,59,-1
 678 982 l 1,56,-1
EndSplineSet
EndChar

StartChar: braceleft
Encoding: 123 123 94
Width: 857
GlyphClass: 1
Flags: W
LayerCount: 2
Fore
SplineSet
375 73 m 1,0,-1
 375 210 l 1,1,-1
 513 210 l 1,2,-1
 513 73 l 1,3,-1
 375 73 l 1,0,-1
527 73 m 1,4,-1
 527 210 l 1,5,-1
 664 210 l 1,6,-1
 664 73 l 1,7,-1
 527 73 l 1,4,-1
223 224 m 1,8,-1
 223 362 l 1,9,-1
 361 362 l 1,10,-1
 361 224 l 1,11,-1
 223 224 l 1,8,-1
223 376 m 1,12,-1
 223 514 l 1,13,-1
 361 514 l 1,14,-1
 361 376 l 1,15,-1
 223 376 l 1,12,-1
72 527 m 1,16,-1
 72 665 l 1,17,-1
 210 665 l 1,18,-1
 210 527 l 1,19,-1
 72 527 l 1,16,-1
223 679 m 1,20,-1
 223 816 l 1,21,-1
 361 816 l 1,22,-1
 361 679 l 1,23,-1
 223 679 l 1,20,-1
223 830 m 1,24,-1
 223 968 l 1,25,-1
 361 968 l 1,26,-1
 361 830 l 1,27,-1
 223 830 l 1,24,-1
375 982 m 1,28,-1
 375 1120 l 1,29,-1
 513 1120 l 1,30,-1
 513 982 l 1,31,-1
 375 982 l 1,28,-1
526 982 m 1,32,-1
 526 1120 l 1,33,-1
 664 1120 l 1,34,-1
 664 982 l 1,35,-1
 526 982 l 1,32,-1
EndSplineSet
EndChar

StartChar: bar
Encoding: 124 124 95
Width: 857
GlyphClass: 1
Flags: W
LayerCount: 2
Fore
SplineSet
375 73 m 1,0,-1
 375 210 l 1,1,-1
 513 210 l 1,2,-1
 513 73 l 1,3,-1
 375 73 l 1,0,-1
375 224 m 1,4,-1
 375 362 l 1,5,-1
 513 362 l 1,6,-1
 513 224 l 1,7,-1
 375 224 l 1,4,-1
375 376 m 1,8,-1
 375 514 l 1,9,-1
 513 514 l 1,10,-1
 513 376 l 1,11,-1
 375 376 l 1,8,-1
375 527 m 1,12,-1
 375 665 l 1,13,-1
 513 665 l 1,14,-1
 513 527 l 1,15,-1
 375 527 l 1,12,-1
375 679 m 1,16,-1
 375 817 l 1,17,-1
 513 817 l 1,18,-1
 513 679 l 1,19,-1
 375 679 l 1,16,-1
375 830 m 1,20,-1
 375 968 l 1,21,-1
 512 968 l 1,22,-1
 512 830 l 1,23,-1
 375 830 l 1,20,-1
375 982 m 1,24,-1
 375 1120 l 1,25,-1
 512 1120 l 1,26,-1
 512 982 l 1,27,-1
 375 982 l 1,24,-1
EndSplineSet
EndChar

StartChar: braceright
Encoding: 125 125 96
Width: 857
GlyphClass: 1
Flags: W
LayerCount: 2
Fore
SplineSet
224 73 m 1,0,-1
 224 210 l 1,1,-1
 361 210 l 1,2,-1
 361 73 l 1,3,-1
 224 73 l 1,0,-1
375 73 m 1,4,-1
 375 210 l 1,5,-1
 512 210 l 1,6,-1
 512 73 l 1,7,-1
 375 73 l 1,4,-1
526 224 m 1,8,-1
 526 362 l 1,9,-1
 664 362 l 1,10,-1
 664 224 l 1,11,-1
 526 224 l 1,8,-1
526 376 m 1,12,-1
 526 514 l 1,13,-1
 664 514 l 1,14,-1
 664 376 l 1,15,-1
 526 376 l 1,12,-1
678 527 m 1,16,-1
 678 665 l 1,17,-1
 816 665 l 1,18,-1
 816 527 l 1,19,-1
 678 527 l 1,16,-1
526 679 m 1,20,-1
 526 817 l 1,21,-1
 664 817 l 1,22,-1
 664 679 l 1,23,-1
 526 679 l 1,20,-1
526 830 m 1,24,-1
 526 968 l 1,25,-1
 664 968 l 1,26,-1
 664 830 l 1,27,-1
 526 830 l 1,24,-1
224 982 m 1,28,-1
 224 1120 l 1,29,-1
 361 1120 l 1,30,-1
 361 982 l 1,31,-1
 224 982 l 1,28,-1
375 982 m 1,32,-1
 375 1120 l 1,33,-1
 512 1120 l 1,34,-1
 512 982 l 1,35,-1
 375 982 l 1,32,-1
EndSplineSet
EndChar

StartChar: asciitilde
Encoding: 126 126 97
Width: 857
GlyphClass: 1
Flags: W
LayerCount: 2
Fore
SplineSet
72 376 m 1,0,-1
 72 514 l 1,1,-1
 210 514 l 1,2,-1
 210 376 l 1,3,-1
 72 376 l 1,0,-1
375 376 m 1,4,-1
 375 514 l 1,5,-1
 513 514 l 1,6,-1
 513 376 l 1,7,-1
 375 376 l 1,4,-1
526 376 m 1,8,-1
 526 514 l 1,9,-1
 664 514 l 1,10,-1
 664 376 l 1,11,-1
 526 376 l 1,8,-1
223 527 m 1,12,-1
 223 665 l 1,13,-1
 361 665 l 1,14,-1
 361 527 l 1,15,-1
 223 527 l 1,12,-1
375 527 m 1,16,-1
 375 665 l 1,17,-1
 513 665 l 1,18,-1
 513 527 l 1,19,-1
 375 527 l 1,16,-1
678 527 m 1,20,-1
 678 665 l 1,21,-1
 816 665 l 1,22,-1
 816 527 l 1,23,-1
 678 527 l 1,20,-1
EndSplineSet
EndChar

StartChar: exclamdown
Encoding: 161 161 98
Width: 857
GlyphClass: 1
Flags: W
LayerCount: 2
Fore
SplineSet
107 0 m 1,0,-1
 107 1200 l 1,1,-1
 750 1200 l 1,2,-1
 750 0 l 1,3,-1
 107 0 l 1,0,-1
214 107 m 1,4,-1
 643 107 l 1,5,-1
 643 1093 l 1,6,-1
 214 1093 l 1,7,-1
 214 107 l 1,4,-1
EndSplineSet
EndChar

StartChar: cent
Encoding: 162 162 99
Width: 857
GlyphClass: 1
Flags: W
LayerCount: 2
Fore
SplineSet
375 73 m 1,0,-1
 375 210 l 1,1,-1
 513 210 l 1,2,-1
 513 73 l 1,3,-1
 375 73 l 1,0,-1
223 224 m 1,4,-1
 223 362 l 1,5,-1
 361 362 l 1,6,-1
 361 224 l 1,7,-1
 223 224 l 1,4,-1
375 224 m 1,8,-1
 375 362 l 1,9,-1
 513 362 l 1,10,-1
 513 224 l 1,11,-1
 375 224 l 1,8,-1
526 224 m 1,12,-1
 526 362 l 1,13,-1
 664 362 l 1,14,-1
 664 224 l 1,15,-1
 526 224 l 1,12,-1
72 375 m 1,16,-1
 72 513 l 1,17,-1
 209 513 l 1,18,-1
 209 375 l 1,19,-1
 72 375 l 1,16,-1
375 376 m 1,20,-1
 375 514 l 1,21,-1
 512 514 l 1,22,-1
 512 376 l 1,23,-1
 375 376 l 1,20,-1
678 376 m 1,24,-1
 678 514 l 1,25,-1
 816 514 l 1,26,-1
 816 376 l 1,27,-1
 678 376 l 1,24,-1
72 527 m 1,28,-1
 72 665 l 1,29,-1
 209 665 l 1,30,-1
 209 527 l 1,31,-1
 72 527 l 1,28,-1
375 527 m 1,32,-1
 375 665 l 1,33,-1
 512 665 l 1,34,-1
 512 527 l 1,35,-1
 375 527 l 1,32,-1
72 679 m 1,36,-1
 72 816 l 1,37,-1
 209 816 l 1,38,-1
 209 679 l 1,39,-1
 72 679 l 1,36,-1
375 679 m 1,40,-1
 375 816 l 1,41,-1
 512 816 l 1,42,-1
 512 679 l 1,43,-1
 375 679 l 1,40,-1
223 830 m 1,44,-1
 223 968 l 1,45,-1
 361 968 l 1,46,-1
 361 830 l 1,47,-1
 223 830 l 1,44,-1
375 830 m 1,48,-1
 375 968 l 1,49,-1
 512 968 l 1,50,-1
 512 830 l 1,51,-1
 375 830 l 1,48,-1
526 830 m 1,52,-1
 526 968 l 1,53,-1
 664 968 l 1,54,-1
 664 830 l 1,55,-1
 526 830 l 1,52,-1
375 982 m 1,56,-1
 375 1120 l 1,57,-1
 512 1120 l 1,58,-1
 512 982 l 1,59,-1
 375 982 l 1,56,-1
EndSplineSet
EndChar

StartChar: sterling
Encoding: 163 163 100
Width: 857
GlyphClass: 1
Flags: W
LayerCount: 2
Fore
SplineSet
107 0 m 1,0,-1
 107 1200 l 1,1,-1
 750 1200 l 1,2,-1
 750 0 l 1,3,-1
 107 0 l 1,0,-1
214 107 m 1,4,-1
 643 107 l 1,5,-1
 643 1093 l 1,6,-1
 214 1093 l 1,7,-1
 214 107 l 1,4,-1
EndSplineSet
EndChar

StartChar: currency
Encoding: 164 164 101
Width: 857
GlyphClass: 1
Flags: W
LayerCount: 2
Fore
SplineSet
107 0 m 1,0,-1
 107 1200 l 1,1,-1
 750 1200 l 1,2,-1
 750 0 l 1,3,-1
 107 0 l 1,0,-1
214 107 m 1,4,-1
 643 107 l 1,5,-1
 643 1093 l 1,6,-1
 214 1093 l 1,7,-1
 214 107 l 1,4,-1
EndSplineSet
EndChar

StartChar: yen
Encoding: 165 165 102
Width: 857
GlyphClass: 1
Flags: W
LayerCount: 2
Fore
SplineSet
107 0 m 1,0,-1
 107 1200 l 1,1,-1
 750 1200 l 1,2,-1
 750 0 l 1,3,-1
 107 0 l 1,0,-1
214 107 m 1,4,-1
 643 107 l 1,5,-1
 643 1093 l 1,6,-1
 214 1093 l 1,7,-1
 214 107 l 1,4,-1
EndSplineSet
EndChar

StartChar: brokenbar
Encoding: 166 166 103
Width: 857
GlyphClass: 1
Flags: W
LayerCount: 2
Fore
SplineSet
107 0 m 1,0,-1
 107 1200 l 1,1,-1
 750 1200 l 1,2,-1
 750 0 l 1,3,-1
 107 0 l 1,0,-1
214 107 m 1,4,-1
 643 107 l 1,5,-1
 643 1093 l 1,6,-1
 214 1093 l 1,7,-1
 214 107 l 1,4,-1
EndSplineSet
EndChar

StartChar: section
Encoding: 167 167 104
Width: 857
GlyphClass: 1
Flags: W
LayerCount: 2
Fore
SplineSet
107 0 m 1,0,-1
 107 1200 l 1,1,-1
 750 1200 l 1,2,-1
 750 0 l 1,3,-1
 107 0 l 1,0,-1
214 107 m 1,4,-1
 643 107 l 1,5,-1
 643 1093 l 1,6,-1
 214 1093 l 1,7,-1
 214 107 l 1,4,-1
EndSplineSet
EndChar

StartChar: dieresis
Encoding: 168 168 105
Width: 857
GlyphClass: 1
Flags: W
LayerCount: 2
Fore
SplineSet
107 0 m 1,0,-1
 107 1200 l 1,1,-1
 750 1200 l 1,2,-1
 750 0 l 1,3,-1
 107 0 l 1,0,-1
214 107 m 1,4,-1
 643 107 l 1,5,-1
 643 1093 l 1,6,-1
 214 1093 l 1,7,-1
 214 107 l 1,4,-1
EndSplineSet
EndChar

StartChar: copyright
Encoding: 169 169 106
Width: 857
GlyphClass: 1
Flags: W
LayerCount: 2
Fore
SplineSet
107 0 m 1,0,-1
 107 1200 l 1,1,-1
 750 1200 l 1,2,-1
 750 0 l 1,3,-1
 107 0 l 1,0,-1
214 107 m 1,4,-1
 643 107 l 1,5,-1
 643 1093 l 1,6,-1
 214 1093 l 1,7,-1
 214 107 l 1,4,-1
EndSplineSet
EndChar

StartChar: ordfeminine
Encoding: 170 170 107
Width: 857
GlyphClass: 1
Flags: W
LayerCount: 2
Fore
SplineSet
107 0 m 1,0,-1
 107 1200 l 1,1,-1
 750 1200 l 1,2,-1
 750 0 l 1,3,-1
 107 0 l 1,0,-1
214 107 m 1,4,-1
 643 107 l 1,5,-1
 643 1093 l 1,6,-1
 214 1093 l 1,7,-1
 214 107 l 1,4,-1
EndSplineSet
EndChar

StartChar: guillemotleft
Encoding: 171 171 108
Width: 857
GlyphClass: 1
Flags: W
LayerCount: 2
Fore
SplineSet
107 0 m 1,0,-1
 107 1200 l 1,1,-1
 750 1200 l 1,2,-1
 750 0 l 1,3,-1
 107 0 l 1,0,-1
214 107 m 1,4,-1
 643 107 l 1,5,-1
 643 1093 l 1,6,-1
 214 1093 l 1,7,-1
 214 107 l 1,4,-1
EndSplineSet
EndChar

StartChar: logicalnot
Encoding: 172 172 109
Width: 857
GlyphClass: 1
Flags: W
LayerCount: 2
Fore
SplineSet
107 0 m 1,0,-1
 107 1200 l 1,1,-1
 750 1200 l 1,2,-1
 750 0 l 1,3,-1
 107 0 l 1,0,-1
214 107 m 1,4,-1
 643 107 l 1,5,-1
 643 1093 l 1,6,-1
 214 1093 l 1,7,-1
 214 107 l 1,4,-1
EndSplineSet
EndChar

StartChar: registered
Encoding: 174 174 110
Width: 857
GlyphClass: 1
Flags: W
LayerCount: 2
Fore
SplineSet
107 0 m 1,0,-1
 107 1200 l 1,1,-1
 750 1200 l 1,2,-1
 750 0 l 1,3,-1
 107 0 l 1,0,-1
214 107 m 1,4,-1
 643 107 l 1,5,-1
 643 1093 l 1,6,-1
 214 1093 l 1,7,-1
 214 107 l 1,4,-1
EndSplineSet
EndChar

StartChar: macron
Encoding: 175 175 111
AltUni2: 0002c9.ffffffff.0 0002c9.ffffffff.0
Width: 857
GlyphClass: 1
Flags: W
LayerCount: 2
Fore
SplineSet
107 0 m 1,0,-1
 107 1200 l 1,1,-1
 750 1200 l 1,2,-1
 750 0 l 1,3,-1
 107 0 l 1,0,-1
214 107 m 1,4,-1
 643 107 l 1,5,-1
 643 1093 l 1,6,-1
 214 1093 l 1,7,-1
 214 107 l 1,4,-1
EndSplineSet
EndChar

StartChar: degree
Encoding: 176 176 112
Width: 857
GlyphClass: 1
Flags: W
LayerCount: 2
Fore
SplineSet
107 0 m 1,0,-1
 107 1200 l 1,1,-1
 750 1200 l 1,2,-1
 750 0 l 1,3,-1
 107 0 l 1,0,-1
214 107 m 1,4,-1
 643 107 l 1,5,-1
 643 1093 l 1,6,-1
 214 1093 l 1,7,-1
 214 107 l 1,4,-1
EndSplineSet
EndChar

StartChar: plusminus
Encoding: 177 177 113
Width: 857
GlyphClass: 1
Flags: W
LayerCount: 2
Fore
SplineSet
107 0 m 1,0,-1
 107 1200 l 1,1,-1
 750 1200 l 1,2,-1
 750 0 l 1,3,-1
 107 0 l 1,0,-1
214 107 m 1,4,-1
 643 107 l 1,5,-1
 643 1093 l 1,6,-1
 214 1093 l 1,7,-1
 214 107 l 1,4,-1
EndSplineSet
EndChar

StartChar: twosuperior
Encoding: 178 178 114
Width: 857
GlyphClass: 1
Flags: W
LayerCount: 2
Fore
SplineSet
107 0 m 1,0,-1
 107 1200 l 1,1,-1
 750 1200 l 1,2,-1
 750 0 l 1,3,-1
 107 0 l 1,0,-1
214 107 m 1,4,-1
 643 107 l 1,5,-1
 643 1093 l 1,6,-1
 214 1093 l 1,7,-1
 214 107 l 1,4,-1
EndSplineSet
EndChar

StartChar: threesuperior
Encoding: 179 179 115
Width: 857
GlyphClass: 1
Flags: W
LayerCount: 2
Fore
SplineSet
107 0 m 1,0,-1
 107 1200 l 1,1,-1
 750 1200 l 1,2,-1
 750 0 l 1,3,-1
 107 0 l 1,0,-1
214 107 m 1,4,-1
 643 107 l 1,5,-1
 643 1093 l 1,6,-1
 214 1093 l 1,7,-1
 214 107 l 1,4,-1
EndSplineSet
EndChar

StartChar: acute
Encoding: 180 180 116
Width: 857
GlyphClass: 1
Flags: W
LayerCount: 2
Fore
SplineSet
107 0 m 1,0,-1
 107 1200 l 1,1,-1
 750 1200 l 1,2,-1
 750 0 l 1,3,-1
 107 0 l 1,0,-1
214 107 m 1,4,-1
 643 107 l 1,5,-1
 643 1093 l 1,6,-1
 214 1093 l 1,7,-1
 214 107 l 1,4,-1
EndSplineSet
EndChar

StartChar: mu1
Encoding: 181 181 117
AltUni2: 0003bc.ffffffff.0 0003bc.ffffffff.0
Width: 857
GlyphClass: 1
Flags: W
LayerCount: 2
Fore
SplineSet
107 0 m 1,0,-1
 107 1200 l 1,1,-1
 750 1200 l 1,2,-1
 750 0 l 1,3,-1
 107 0 l 1,0,-1
214 107 m 1,4,-1
 643 107 l 1,5,-1
 643 1093 l 1,6,-1
 214 1093 l 1,7,-1
 214 107 l 1,4,-1
EndSplineSet
EndChar

StartChar: paragraph
Encoding: 182 182 118
Width: 857
GlyphClass: 1
Flags: W
LayerCount: 2
Fore
SplineSet
107 0 m 1,0,-1
 107 1200 l 1,1,-1
 750 1200 l 1,2,-1
 750 0 l 1,3,-1
 107 0 l 1,0,-1
214 107 m 1,4,-1
 643 107 l 1,5,-1
 643 1093 l 1,6,-1
 214 1093 l 1,7,-1
 214 107 l 1,4,-1
EndSplineSet
EndChar

StartChar: periodcentered
Encoding: 183 183 119
AltUni2: 002219.ffffffff.0 002219.ffffffff.0
Width: 857
GlyphClass: 1
Flags: W
LayerCount: 2
Fore
SplineSet
107 0 m 1,0,-1
 107 1200 l 1,1,-1
 750 1200 l 1,2,-1
 750 0 l 1,3,-1
 107 0 l 1,0,-1
214 107 m 1,4,-1
 643 107 l 1,5,-1
 643 1093 l 1,6,-1
 214 1093 l 1,7,-1
 214 107 l 1,4,-1
EndSplineSet
EndChar

StartChar: cedilla
Encoding: 184 184 120
Width: 857
GlyphClass: 1
Flags: W
LayerCount: 2
Fore
SplineSet
107 0 m 1,0,-1
 107 1200 l 1,1,-1
 750 1200 l 1,2,-1
 750 0 l 1,3,-1
 107 0 l 1,0,-1
214 107 m 1,4,-1
 643 107 l 1,5,-1
 643 1093 l 1,6,-1
 214 1093 l 1,7,-1
 214 107 l 1,4,-1
EndSplineSet
EndChar

StartChar: onesuperior
Encoding: 185 185 121
Width: 857
GlyphClass: 1
Flags: W
LayerCount: 2
Fore
SplineSet
107 0 m 1,0,-1
 107 1200 l 1,1,-1
 750 1200 l 1,2,-1
 750 0 l 1,3,-1
 107 0 l 1,0,-1
214 107 m 1,4,-1
 643 107 l 1,5,-1
 643 1093 l 1,6,-1
 214 1093 l 1,7,-1
 214 107 l 1,4,-1
EndSplineSet
EndChar

StartChar: ordmasculine
Encoding: 186 186 122
Width: 857
GlyphClass: 1
Flags: W
LayerCount: 2
Fore
SplineSet
107 0 m 1,0,-1
 107 1200 l 1,1,-1
 750 1200 l 1,2,-1
 750 0 l 1,3,-1
 107 0 l 1,0,-1
214 107 m 1,4,-1
 643 107 l 1,5,-1
 643 1093 l 1,6,-1
 214 1093 l 1,7,-1
 214 107 l 1,4,-1
EndSplineSet
EndChar

StartChar: guillemotright
Encoding: 187 187 123
Width: 857
GlyphClass: 1
Flags: W
LayerCount: 2
Fore
SplineSet
107 0 m 1,0,-1
 107 1200 l 1,1,-1
 750 1200 l 1,2,-1
 750 0 l 1,3,-1
 107 0 l 1,0,-1
214 107 m 1,4,-1
 643 107 l 1,5,-1
 643 1093 l 1,6,-1
 214 1093 l 1,7,-1
 214 107 l 1,4,-1
EndSplineSet
EndChar

StartChar: onequarter
Encoding: 188 188 124
Width: 857
GlyphClass: 1
Flags: W
LayerCount: 2
Fore
SplineSet
107 0 m 1,0,-1
 107 1200 l 1,1,-1
 750 1200 l 1,2,-1
 750 0 l 1,3,-1
 107 0 l 1,0,-1
214 107 m 1,4,-1
 643 107 l 1,5,-1
 643 1093 l 1,6,-1
 214 1093 l 1,7,-1
 214 107 l 1,4,-1
EndSplineSet
EndChar

StartChar: onehalf
Encoding: 189 189 125
Width: 857
GlyphClass: 1
Flags: W
LayerCount: 2
Fore
SplineSet
107 0 m 1,0,-1
 107 1200 l 1,1,-1
 750 1200 l 1,2,-1
 750 0 l 1,3,-1
 107 0 l 1,0,-1
214 107 m 1,4,-1
 643 107 l 1,5,-1
 643 1093 l 1,6,-1
 214 1093 l 1,7,-1
 214 107 l 1,4,-1
EndSplineSet
EndChar

StartChar: threequarters
Encoding: 190 190 126
Width: 857
GlyphClass: 1
Flags: W
LayerCount: 2
Fore
SplineSet
107 0 m 1,0,-1
 107 1200 l 1,1,-1
 750 1200 l 1,2,-1
 750 0 l 1,3,-1
 107 0 l 1,0,-1
214 107 m 1,4,-1
 643 107 l 1,5,-1
 643 1093 l 1,6,-1
 214 1093 l 1,7,-1
 214 107 l 1,4,-1
EndSplineSet
EndChar

StartChar: questiondown
Encoding: 191 191 127
Width: 857
GlyphClass: 1
Flags: W
LayerCount: 2
Fore
SplineSet
107 0 m 1,0,-1
 107 1200 l 1,1,-1
 750 1200 l 1,2,-1
 750 0 l 1,3,-1
 107 0 l 1,0,-1
214 107 m 1,4,-1
 643 107 l 1,5,-1
 643 1093 l 1,6,-1
 214 1093 l 1,7,-1
 214 107 l 1,4,-1
EndSplineSet
EndChar

StartChar: Agrave
Encoding: 192 192 128
Width: 857
GlyphClass: 1
Flags: W
LayerCount: 2
Fore
SplineSet
107 0 m 1,0,-1
 107 1200 l 1,1,-1
 750 1200 l 1,2,-1
 750 0 l 1,3,-1
 107 0 l 1,0,-1
214 107 m 1,4,-1
 643 107 l 1,5,-1
 643 1093 l 1,6,-1
 214 1093 l 1,7,-1
 214 107 l 1,4,-1
EndSplineSet
EndChar

StartChar: Aacute
Encoding: 193 193 129
Width: 857
GlyphClass: 1
Flags: W
LayerCount: 2
Fore
SplineSet
107 0 m 1,0,-1
 107 1200 l 1,1,-1
 750 1200 l 1,2,-1
 750 0 l 1,3,-1
 107 0 l 1,0,-1
214 107 m 1,4,-1
 643 107 l 1,5,-1
 643 1093 l 1,6,-1
 214 1093 l 1,7,-1
 214 107 l 1,4,-1
EndSplineSet
EndChar

StartChar: Acircumflex
Encoding: 194 194 130
Width: 857
GlyphClass: 1
Flags: W
LayerCount: 2
Fore
SplineSet
107 0 m 1,0,-1
 107 1200 l 1,1,-1
 750 1200 l 1,2,-1
 750 0 l 1,3,-1
 107 0 l 1,0,-1
214 107 m 1,4,-1
 643 107 l 1,5,-1
 643 1093 l 1,6,-1
 214 1093 l 1,7,-1
 214 107 l 1,4,-1
EndSplineSet
EndChar

StartChar: Atilde
Encoding: 195 195 131
Width: 857
GlyphClass: 1
Flags: W
LayerCount: 2
Fore
SplineSet
107 0 m 1,0,-1
 107 1200 l 1,1,-1
 750 1200 l 1,2,-1
 750 0 l 1,3,-1
 107 0 l 1,0,-1
214 107 m 1,4,-1
 643 107 l 1,5,-1
 643 1093 l 1,6,-1
 214 1093 l 1,7,-1
 214 107 l 1,4,-1
EndSplineSet
EndChar

StartChar: Adieresis
Encoding: 196 196 132
Width: 857
GlyphClass: 1
Flags: W
LayerCount: 2
Fore
SplineSet
107 0 m 1,0,-1
 107 1200 l 1,1,-1
 750 1200 l 1,2,-1
 750 0 l 1,3,-1
 107 0 l 1,0,-1
214 107 m 1,4,-1
 643 107 l 1,5,-1
 643 1093 l 1,6,-1
 214 1093 l 1,7,-1
 214 107 l 1,4,-1
EndSplineSet
EndChar

StartChar: Aring
Encoding: 197 197 133
Width: 857
GlyphClass: 1
Flags: W
LayerCount: 2
Fore
SplineSet
107 0 m 1,0,-1
 107 1200 l 1,1,-1
 750 1200 l 1,2,-1
 750 0 l 1,3,-1
 107 0 l 1,0,-1
214 107 m 1,4,-1
 643 107 l 1,5,-1
 643 1093 l 1,6,-1
 214 1093 l 1,7,-1
 214 107 l 1,4,-1
EndSplineSet
EndChar

StartChar: AE
Encoding: 198 198 134
Width: 857
GlyphClass: 1
Flags: W
LayerCount: 2
Fore
SplineSet
107 0 m 1,0,-1
 107 1200 l 1,1,-1
 750 1200 l 1,2,-1
 750 0 l 1,3,-1
 107 0 l 1,0,-1
214 107 m 1,4,-1
 643 107 l 1,5,-1
 643 1093 l 1,6,-1
 214 1093 l 1,7,-1
 214 107 l 1,4,-1
EndSplineSet
EndChar

StartChar: Ccedilla
Encoding: 199 199 135
Width: 857
GlyphClass: 1
Flags: W
LayerCount: 2
Fore
SplineSet
107 0 m 1,0,-1
 107 1200 l 1,1,-1
 750 1200 l 1,2,-1
 750 0 l 1,3,-1
 107 0 l 1,0,-1
214 107 m 1,4,-1
 643 107 l 1,5,-1
 643 1093 l 1,6,-1
 214 1093 l 1,7,-1
 214 107 l 1,4,-1
EndSplineSet
EndChar

StartChar: Egrave
Encoding: 200 200 136
Width: 857
GlyphClass: 1
Flags: W
LayerCount: 2
Fore
SplineSet
107 0 m 1,0,-1
 107 1200 l 1,1,-1
 750 1200 l 1,2,-1
 750 0 l 1,3,-1
 107 0 l 1,0,-1
214 107 m 1,4,-1
 643 107 l 1,5,-1
 643 1093 l 1,6,-1
 214 1093 l 1,7,-1
 214 107 l 1,4,-1
EndSplineSet
EndChar

StartChar: Eacute
Encoding: 201 201 137
Width: 857
GlyphClass: 1
Flags: W
LayerCount: 2
Fore
SplineSet
107 0 m 1,0,-1
 107 1200 l 1,1,-1
 750 1200 l 1,2,-1
 750 0 l 1,3,-1
 107 0 l 1,0,-1
214 107 m 1,4,-1
 643 107 l 1,5,-1
 643 1093 l 1,6,-1
 214 1093 l 1,7,-1
 214 107 l 1,4,-1
EndSplineSet
EndChar

StartChar: Ecircumflex
Encoding: 202 202 138
Width: 857
GlyphClass: 1
Flags: W
LayerCount: 2
Fore
SplineSet
107 0 m 1,0,-1
 107 1200 l 1,1,-1
 750 1200 l 1,2,-1
 750 0 l 1,3,-1
 107 0 l 1,0,-1
214 107 m 1,4,-1
 643 107 l 1,5,-1
 643 1093 l 1,6,-1
 214 1093 l 1,7,-1
 214 107 l 1,4,-1
EndSplineSet
EndChar

StartChar: Edieresis
Encoding: 203 203 139
Width: 857
GlyphClass: 1
Flags: W
LayerCount: 2
Fore
SplineSet
107 0 m 1,0,-1
 107 1200 l 1,1,-1
 750 1200 l 1,2,-1
 750 0 l 1,3,-1
 107 0 l 1,0,-1
214 107 m 1,4,-1
 643 107 l 1,5,-1
 643 1093 l 1,6,-1
 214 1093 l 1,7,-1
 214 107 l 1,4,-1
EndSplineSet
EndChar

StartChar: Igrave
Encoding: 204 204 140
Width: 857
GlyphClass: 1
Flags: W
LayerCount: 2
Fore
SplineSet
107 0 m 1,0,-1
 107 1200 l 1,1,-1
 750 1200 l 1,2,-1
 750 0 l 1,3,-1
 107 0 l 1,0,-1
214 107 m 1,4,-1
 643 107 l 1,5,-1
 643 1093 l 1,6,-1
 214 1093 l 1,7,-1
 214 107 l 1,4,-1
EndSplineSet
EndChar

StartChar: Iacute
Encoding: 205 205 141
Width: 857
GlyphClass: 1
Flags: W
LayerCount: 2
Fore
SplineSet
107 0 m 1,0,-1
 107 1200 l 1,1,-1
 750 1200 l 1,2,-1
 750 0 l 1,3,-1
 107 0 l 1,0,-1
214 107 m 1,4,-1
 643 107 l 1,5,-1
 643 1093 l 1,6,-1
 214 1093 l 1,7,-1
 214 107 l 1,4,-1
EndSplineSet
EndChar

StartChar: Icircumflex
Encoding: 206 206 142
Width: 857
GlyphClass: 1
Flags: W
LayerCount: 2
Fore
SplineSet
107 0 m 1,0,-1
 107 1200 l 1,1,-1
 750 1200 l 1,2,-1
 750 0 l 1,3,-1
 107 0 l 1,0,-1
214 107 m 1,4,-1
 643 107 l 1,5,-1
 643 1093 l 1,6,-1
 214 1093 l 1,7,-1
 214 107 l 1,4,-1
EndSplineSet
EndChar

StartChar: Idieresis
Encoding: 207 207 143
Width: 857
GlyphClass: 1
Flags: W
LayerCount: 2
Fore
SplineSet
107 0 m 1,0,-1
 107 1200 l 1,1,-1
 750 1200 l 1,2,-1
 750 0 l 1,3,-1
 107 0 l 1,0,-1
214 107 m 1,4,-1
 643 107 l 1,5,-1
 643 1093 l 1,6,-1
 214 1093 l 1,7,-1
 214 107 l 1,4,-1
EndSplineSet
EndChar

StartChar: Eth
Encoding: 208 208 144
Width: 857
GlyphClass: 1
Flags: W
LayerCount: 2
Fore
SplineSet
107 0 m 1,0,-1
 107 1200 l 1,1,-1
 750 1200 l 1,2,-1
 750 0 l 1,3,-1
 107 0 l 1,0,-1
214 107 m 1,4,-1
 643 107 l 1,5,-1
 643 1093 l 1,6,-1
 214 1093 l 1,7,-1
 214 107 l 1,4,-1
EndSplineSet
EndChar

StartChar: Ntilde
Encoding: 209 209 145
Width: 857
GlyphClass: 1
Flags: W
LayerCount: 2
Fore
SplineSet
107 0 m 1,0,-1
 107 1200 l 1,1,-1
 750 1200 l 1,2,-1
 750 0 l 1,3,-1
 107 0 l 1,0,-1
214 107 m 1,4,-1
 643 107 l 1,5,-1
 643 1093 l 1,6,-1
 214 1093 l 1,7,-1
 214 107 l 1,4,-1
EndSplineSet
EndChar

StartChar: Ograve
Encoding: 210 210 146
Width: 857
GlyphClass: 1
Flags: W
LayerCount: 2
Fore
SplineSet
107 0 m 1,0,-1
 107 1200 l 1,1,-1
 750 1200 l 1,2,-1
 750 0 l 1,3,-1
 107 0 l 1,0,-1
214 107 m 1,4,-1
 643 107 l 1,5,-1
 643 1093 l 1,6,-1
 214 1093 l 1,7,-1
 214 107 l 1,4,-1
EndSplineSet
EndChar

StartChar: Oacute
Encoding: 211 211 147
Width: 857
GlyphClass: 1
Flags: W
LayerCount: 2
Fore
SplineSet
107 0 m 1,0,-1
 107 1200 l 1,1,-1
 750 1200 l 1,2,-1
 750 0 l 1,3,-1
 107 0 l 1,0,-1
214 107 m 1,4,-1
 643 107 l 1,5,-1
 643 1093 l 1,6,-1
 214 1093 l 1,7,-1
 214 107 l 1,4,-1
EndSplineSet
EndChar

StartChar: Ocircumflex
Encoding: 212 212 148
Width: 857
GlyphClass: 1
Flags: W
LayerCount: 2
Fore
SplineSet
107 0 m 1,0,-1
 107 1200 l 1,1,-1
 750 1200 l 1,2,-1
 750 0 l 1,3,-1
 107 0 l 1,0,-1
214 107 m 1,4,-1
 643 107 l 1,5,-1
 643 1093 l 1,6,-1
 214 1093 l 1,7,-1
 214 107 l 1,4,-1
EndSplineSet
EndChar

StartChar: Otilde
Encoding: 213 213 149
Width: 857
GlyphClass: 1
Flags: W
LayerCount: 2
Fore
SplineSet
107 0 m 1,0,-1
 107 1200 l 1,1,-1
 750 1200 l 1,2,-1
 750 0 l 1,3,-1
 107 0 l 1,0,-1
214 107 m 1,4,-1
 643 107 l 1,5,-1
 643 1093 l 1,6,-1
 214 1093 l 1,7,-1
 214 107 l 1,4,-1
EndSplineSet
EndChar

StartChar: Odieresis
Encoding: 214 214 150
Width: 857
GlyphClass: 1
Flags: W
LayerCount: 2
Fore
SplineSet
107 0 m 1,0,-1
 107 1200 l 1,1,-1
 750 1200 l 1,2,-1
 750 0 l 1,3,-1
 107 0 l 1,0,-1
214 107 m 1,4,-1
 643 107 l 1,5,-1
 643 1093 l 1,6,-1
 214 1093 l 1,7,-1
 214 107 l 1,4,-1
EndSplineSet
EndChar

StartChar: multiply
Encoding: 215 215 151
Width: 857
GlyphClass: 1
Flags: W
LayerCount: 2
Fore
SplineSet
107 0 m 1,0,-1
 107 1200 l 1,1,-1
 750 1200 l 1,2,-1
 750 0 l 1,3,-1
 107 0 l 1,0,-1
214 107 m 1,4,-1
 643 107 l 1,5,-1
 643 1093 l 1,6,-1
 214 1093 l 1,7,-1
 214 107 l 1,4,-1
EndSplineSet
EndChar

StartChar: Oslash
Encoding: 216 216 152
Width: 857
GlyphClass: 1
Flags: W
LayerCount: 2
Fore
SplineSet
107 0 m 1,0,-1
 107 1200 l 1,1,-1
 750 1200 l 1,2,-1
 750 0 l 1,3,-1
 107 0 l 1,0,-1
214 107 m 1,4,-1
 643 107 l 1,5,-1
 643 1093 l 1,6,-1
 214 1093 l 1,7,-1
 214 107 l 1,4,-1
EndSplineSet
EndChar

StartChar: Ugrave
Encoding: 217 217 153
Width: 857
GlyphClass: 1
Flags: W
LayerCount: 2
Fore
SplineSet
107 0 m 1,0,-1
 107 1200 l 1,1,-1
 750 1200 l 1,2,-1
 750 0 l 1,3,-1
 107 0 l 1,0,-1
214 107 m 1,4,-1
 643 107 l 1,5,-1
 643 1093 l 1,6,-1
 214 1093 l 1,7,-1
 214 107 l 1,4,-1
EndSplineSet
EndChar

StartChar: Uacute
Encoding: 218 218 154
Width: 857
GlyphClass: 1
Flags: W
LayerCount: 2
Fore
SplineSet
107 0 m 1,0,-1
 107 1200 l 1,1,-1
 750 1200 l 1,2,-1
 750 0 l 1,3,-1
 107 0 l 1,0,-1
214 107 m 1,4,-1
 643 107 l 1,5,-1
 643 1093 l 1,6,-1
 214 1093 l 1,7,-1
 214 107 l 1,4,-1
EndSplineSet
EndChar

StartChar: Ucircumflex
Encoding: 219 219 155
Width: 857
GlyphClass: 1
Flags: W
LayerCount: 2
Fore
SplineSet
107 0 m 1,0,-1
 107 1200 l 1,1,-1
 750 1200 l 1,2,-1
 750 0 l 1,3,-1
 107 0 l 1,0,-1
214 107 m 1,4,-1
 643 107 l 1,5,-1
 643 1093 l 1,6,-1
 214 1093 l 1,7,-1
 214 107 l 1,4,-1
EndSplineSet
EndChar

StartChar: Udieresis
Encoding: 220 220 156
Width: 857
GlyphClass: 1
Flags: W
LayerCount: 2
Fore
SplineSet
107 0 m 1,0,-1
 107 1200 l 1,1,-1
 750 1200 l 1,2,-1
 750 0 l 1,3,-1
 107 0 l 1,0,-1
214 107 m 1,4,-1
 643 107 l 1,5,-1
 643 1093 l 1,6,-1
 214 1093 l 1,7,-1
 214 107 l 1,4,-1
EndSplineSet
EndChar

StartChar: Yacute
Encoding: 221 221 157
Width: 857
GlyphClass: 1
Flags: W
LayerCount: 2
Fore
SplineSet
107 0 m 1,0,-1
 107 1200 l 1,1,-1
 750 1200 l 1,2,-1
 750 0 l 1,3,-1
 107 0 l 1,0,-1
214 107 m 1,4,-1
 643 107 l 1,5,-1
 643 1093 l 1,6,-1
 214 1093 l 1,7,-1
 214 107 l 1,4,-1
EndSplineSet
EndChar

StartChar: Thorn
Encoding: 222 222 158
Width: 857
GlyphClass: 1
Flags: W
LayerCount: 2
Fore
SplineSet
107 0 m 1,0,-1
 107 1200 l 1,1,-1
 750 1200 l 1,2,-1
 750 0 l 1,3,-1
 107 0 l 1,0,-1
214 107 m 1,4,-1
 643 107 l 1,5,-1
 643 1093 l 1,6,-1
 214 1093 l 1,7,-1
 214 107 l 1,4,-1
EndSplineSet
EndChar

StartChar: germandbls
Encoding: 223 223 159
Width: 857
GlyphClass: 1
Flags: W
LayerCount: 2
Fore
SplineSet
107 0 m 1,0,-1
 107 1200 l 1,1,-1
 750 1200 l 1,2,-1
 750 0 l 1,3,-1
 107 0 l 1,0,-1
214 107 m 1,4,-1
 643 107 l 1,5,-1
 643 1093 l 1,6,-1
 214 1093 l 1,7,-1
 214 107 l 1,4,-1
EndSplineSet
EndChar

StartChar: agrave
Encoding: 224 224 160
Width: 857
GlyphClass: 1
Flags: W
LayerCount: 2
Fore
SplineSet
107 0 m 1,0,-1
 107 1200 l 1,1,-1
 750 1200 l 1,2,-1
 750 0 l 1,3,-1
 107 0 l 1,0,-1
214 107 m 1,4,-1
 643 107 l 1,5,-1
 643 1093 l 1,6,-1
 214 1093 l 1,7,-1
 214 107 l 1,4,-1
EndSplineSet
EndChar

StartChar: aacute
Encoding: 225 225 161
Width: 857
GlyphClass: 1
Flags: W
LayerCount: 2
Fore
SplineSet
107 0 m 1,0,-1
 107 1200 l 1,1,-1
 750 1200 l 1,2,-1
 750 0 l 1,3,-1
 107 0 l 1,0,-1
214 107 m 1,4,-1
 643 107 l 1,5,-1
 643 1093 l 1,6,-1
 214 1093 l 1,7,-1
 214 107 l 1,4,-1
EndSplineSet
EndChar

StartChar: acircumflex
Encoding: 226 226 162
Width: 857
GlyphClass: 1
Flags: W
LayerCount: 2
Fore
SplineSet
107 0 m 1,0,-1
 107 1200 l 1,1,-1
 750 1200 l 1,2,-1
 750 0 l 1,3,-1
 107 0 l 1,0,-1
214 107 m 1,4,-1
 643 107 l 1,5,-1
 643 1093 l 1,6,-1
 214 1093 l 1,7,-1
 214 107 l 1,4,-1
EndSplineSet
EndChar

StartChar: atilde
Encoding: 227 227 163
Width: 857
GlyphClass: 1
Flags: W
LayerCount: 2
Fore
SplineSet
107 0 m 1,0,-1
 107 1200 l 1,1,-1
 750 1200 l 1,2,-1
 750 0 l 1,3,-1
 107 0 l 1,0,-1
214 107 m 1,4,-1
 643 107 l 1,5,-1
 643 1093 l 1,6,-1
 214 1093 l 1,7,-1
 214 107 l 1,4,-1
EndSplineSet
EndChar

StartChar: adieresis
Encoding: 228 228 164
Width: 857
GlyphClass: 1
Flags: W
LayerCount: 2
Fore
SplineSet
107 0 m 1,0,-1
 107 1200 l 1,1,-1
 750 1200 l 1,2,-1
 750 0 l 1,3,-1
 107 0 l 1,0,-1
214 107 m 1,4,-1
 643 107 l 1,5,-1
 643 1093 l 1,6,-1
 214 1093 l 1,7,-1
 214 107 l 1,4,-1
EndSplineSet
EndChar

StartChar: aring
Encoding: 229 229 165
Width: 857
GlyphClass: 1
Flags: W
LayerCount: 2
Fore
SplineSet
107 0 m 1,0,-1
 107 1200 l 1,1,-1
 750 1200 l 1,2,-1
 750 0 l 1,3,-1
 107 0 l 1,0,-1
214 107 m 1,4,-1
 643 107 l 1,5,-1
 643 1093 l 1,6,-1
 214 1093 l 1,7,-1
 214 107 l 1,4,-1
EndSplineSet
EndChar

StartChar: ae
Encoding: 230 230 166
Width: 857
GlyphClass: 1
Flags: W
LayerCount: 2
Fore
SplineSet
107 0 m 1,0,-1
 107 1200 l 1,1,-1
 750 1200 l 1,2,-1
 750 0 l 1,3,-1
 107 0 l 1,0,-1
214 107 m 1,4,-1
 643 107 l 1,5,-1
 643 1093 l 1,6,-1
 214 1093 l 1,7,-1
 214 107 l 1,4,-1
EndSplineSet
EndChar

StartChar: ccedilla
Encoding: 231 231 167
Width: 857
GlyphClass: 1
Flags: W
LayerCount: 2
Fore
SplineSet
107 0 m 1,0,-1
 107 1200 l 1,1,-1
 750 1200 l 1,2,-1
 750 0 l 1,3,-1
 107 0 l 1,0,-1
214 107 m 1,4,-1
 643 107 l 1,5,-1
 643 1093 l 1,6,-1
 214 1093 l 1,7,-1
 214 107 l 1,4,-1
EndSplineSet
EndChar

StartChar: egrave
Encoding: 232 232 168
Width: 857
GlyphClass: 1
Flags: W
LayerCount: 2
Fore
SplineSet
107 0 m 1,0,-1
 107 1200 l 1,1,-1
 750 1200 l 1,2,-1
 750 0 l 1,3,-1
 107 0 l 1,0,-1
214 107 m 1,4,-1
 643 107 l 1,5,-1
 643 1093 l 1,6,-1
 214 1093 l 1,7,-1
 214 107 l 1,4,-1
EndSplineSet
EndChar

StartChar: eacute
Encoding: 233 233 169
Width: 857
GlyphClass: 1
Flags: W
LayerCount: 2
Fore
SplineSet
107 0 m 1,0,-1
 107 1200 l 1,1,-1
 750 1200 l 1,2,-1
 750 0 l 1,3,-1
 107 0 l 1,0,-1
214 107 m 1,4,-1
 643 107 l 1,5,-1
 643 1093 l 1,6,-1
 214 1093 l 1,7,-1
 214 107 l 1,4,-1
EndSplineSet
EndChar

StartChar: ecircumflex
Encoding: 234 234 170
Width: 857
GlyphClass: 1
Flags: W
LayerCount: 2
Fore
SplineSet
107 0 m 1,0,-1
 107 1200 l 1,1,-1
 750 1200 l 1,2,-1
 750 0 l 1,3,-1
 107 0 l 1,0,-1
214 107 m 1,4,-1
 643 107 l 1,5,-1
 643 1093 l 1,6,-1
 214 1093 l 1,7,-1
 214 107 l 1,4,-1
EndSplineSet
EndChar

StartChar: edieresis
Encoding: 235 235 171
Width: 857
GlyphClass: 1
Flags: W
LayerCount: 2
Fore
SplineSet
107 0 m 1,0,-1
 107 1200 l 1,1,-1
 750 1200 l 1,2,-1
 750 0 l 1,3,-1
 107 0 l 1,0,-1
214 107 m 1,4,-1
 643 107 l 1,5,-1
 643 1093 l 1,6,-1
 214 1093 l 1,7,-1
 214 107 l 1,4,-1
EndSplineSet
EndChar

StartChar: igrave
Encoding: 236 236 172
Width: 857
GlyphClass: 1
Flags: W
LayerCount: 2
Fore
SplineSet
107 0 m 1,0,-1
 107 1200 l 1,1,-1
 750 1200 l 1,2,-1
 750 0 l 1,3,-1
 107 0 l 1,0,-1
214 107 m 1,4,-1
 643 107 l 1,5,-1
 643 1093 l 1,6,-1
 214 1093 l 1,7,-1
 214 107 l 1,4,-1
EndSplineSet
EndChar

StartChar: iacute
Encoding: 237 237 173
Width: 857
GlyphClass: 1
Flags: W
LayerCount: 2
Fore
SplineSet
107 0 m 1,0,-1
 107 1200 l 1,1,-1
 750 1200 l 1,2,-1
 750 0 l 1,3,-1
 107 0 l 1,0,-1
214 107 m 1,4,-1
 643 107 l 1,5,-1
 643 1093 l 1,6,-1
 214 1093 l 1,7,-1
 214 107 l 1,4,-1
EndSplineSet
EndChar

StartChar: icircumflex
Encoding: 238 238 174
Width: 857
GlyphClass: 1
Flags: W
LayerCount: 2
Fore
SplineSet
107 0 m 1,0,-1
 107 1200 l 1,1,-1
 750 1200 l 1,2,-1
 750 0 l 1,3,-1
 107 0 l 1,0,-1
214 107 m 1,4,-1
 643 107 l 1,5,-1
 643 1093 l 1,6,-1
 214 1093 l 1,7,-1
 214 107 l 1,4,-1
EndSplineSet
EndChar

StartChar: idieresis
Encoding: 239 239 175
Width: 857
GlyphClass: 1
Flags: W
LayerCount: 2
Fore
SplineSet
107 0 m 1,0,-1
 107 1200 l 1,1,-1
 750 1200 l 1,2,-1
 750 0 l 1,3,-1
 107 0 l 1,0,-1
214 107 m 1,4,-1
 643 107 l 1,5,-1
 643 1093 l 1,6,-1
 214 1093 l 1,7,-1
 214 107 l 1,4,-1
EndSplineSet
EndChar

StartChar: eth
Encoding: 240 240 176
Width: 857
GlyphClass: 1
Flags: W
LayerCount: 2
Fore
SplineSet
107 0 m 1,0,-1
 107 1200 l 1,1,-1
 750 1200 l 1,2,-1
 750 0 l 1,3,-1
 107 0 l 1,0,-1
214 107 m 1,4,-1
 643 107 l 1,5,-1
 643 1093 l 1,6,-1
 214 1093 l 1,7,-1
 214 107 l 1,4,-1
EndSplineSet
EndChar

StartChar: ntilde
Encoding: 241 241 177
Width: 857
GlyphClass: 1
Flags: W
LayerCount: 2
Fore
SplineSet
107 0 m 1,0,-1
 107 1200 l 1,1,-1
 750 1200 l 1,2,-1
 750 0 l 1,3,-1
 107 0 l 1,0,-1
214 107 m 1,4,-1
 643 107 l 1,5,-1
 643 1093 l 1,6,-1
 214 1093 l 1,7,-1
 214 107 l 1,4,-1
EndSplineSet
EndChar

StartChar: ograve
Encoding: 242 242 178
Width: 857
GlyphClass: 1
Flags: W
LayerCount: 2
Fore
SplineSet
107 0 m 1,0,-1
 107 1200 l 1,1,-1
 750 1200 l 1,2,-1
 750 0 l 1,3,-1
 107 0 l 1,0,-1
214 107 m 1,4,-1
 643 107 l 1,5,-1
 643 1093 l 1,6,-1
 214 1093 l 1,7,-1
 214 107 l 1,4,-1
EndSplineSet
EndChar

StartChar: oacute
Encoding: 243 243 179
Width: 857
GlyphClass: 1
Flags: W
LayerCount: 2
Fore
SplineSet
107 0 m 1,0,-1
 107 1200 l 1,1,-1
 750 1200 l 1,2,-1
 750 0 l 1,3,-1
 107 0 l 1,0,-1
214 107 m 1,4,-1
 643 107 l 1,5,-1
 643 1093 l 1,6,-1
 214 1093 l 1,7,-1
 214 107 l 1,4,-1
EndSplineSet
EndChar

StartChar: ocircumflex
Encoding: 244 244 180
Width: 857
GlyphClass: 1
Flags: W
LayerCount: 2
Fore
SplineSet
107 0 m 1,0,-1
 107 1200 l 1,1,-1
 750 1200 l 1,2,-1
 750 0 l 1,3,-1
 107 0 l 1,0,-1
214 107 m 1,4,-1
 643 107 l 1,5,-1
 643 1093 l 1,6,-1
 214 1093 l 1,7,-1
 214 107 l 1,4,-1
EndSplineSet
EndChar

StartChar: otilde
Encoding: 245 245 181
Width: 857
GlyphClass: 1
Flags: W
LayerCount: 2
Fore
SplineSet
107 0 m 1,0,-1
 107 1200 l 1,1,-1
 750 1200 l 1,2,-1
 750 0 l 1,3,-1
 107 0 l 1,0,-1
214 107 m 1,4,-1
 643 107 l 1,5,-1
 643 1093 l 1,6,-1
 214 1093 l 1,7,-1
 214 107 l 1,4,-1
EndSplineSet
EndChar

StartChar: odieresis
Encoding: 246 246 182
Width: 857
GlyphClass: 1
Flags: W
LayerCount: 2
Fore
SplineSet
107 0 m 1,0,-1
 107 1200 l 1,1,-1
 750 1200 l 1,2,-1
 750 0 l 1,3,-1
 107 0 l 1,0,-1
214 107 m 1,4,-1
 643 107 l 1,5,-1
 643 1093 l 1,6,-1
 214 1093 l 1,7,-1
 214 107 l 1,4,-1
EndSplineSet
EndChar

StartChar: divide
Encoding: 247 247 183
Width: 857
GlyphClass: 1
Flags: W
LayerCount: 2
Fore
SplineSet
107 0 m 1,0,-1
 107 1200 l 1,1,-1
 750 1200 l 1,2,-1
 750 0 l 1,3,-1
 107 0 l 1,0,-1
214 107 m 1,4,-1
 643 107 l 1,5,-1
 643 1093 l 1,6,-1
 214 1093 l 1,7,-1
 214 107 l 1,4,-1
EndSplineSet
EndChar

StartChar: oslash
Encoding: 248 248 184
Width: 857
GlyphClass: 1
Flags: W
LayerCount: 2
Fore
SplineSet
107 0 m 1,0,-1
 107 1200 l 1,1,-1
 750 1200 l 1,2,-1
 750 0 l 1,3,-1
 107 0 l 1,0,-1
214 107 m 1,4,-1
 643 107 l 1,5,-1
 643 1093 l 1,6,-1
 214 1093 l 1,7,-1
 214 107 l 1,4,-1
EndSplineSet
EndChar

StartChar: ugrave
Encoding: 249 249 185
Width: 857
GlyphClass: 1
Flags: W
LayerCount: 2
Fore
SplineSet
107 0 m 1,0,-1
 107 1200 l 1,1,-1
 750 1200 l 1,2,-1
 750 0 l 1,3,-1
 107 0 l 1,0,-1
214 107 m 1,4,-1
 643 107 l 1,5,-1
 643 1093 l 1,6,-1
 214 1093 l 1,7,-1
 214 107 l 1,4,-1
EndSplineSet
EndChar

StartChar: uacute
Encoding: 250 250 186
Width: 857
GlyphClass: 1
Flags: W
LayerCount: 2
Fore
SplineSet
107 0 m 1,0,-1
 107 1200 l 1,1,-1
 750 1200 l 1,2,-1
 750 0 l 1,3,-1
 107 0 l 1,0,-1
214 107 m 1,4,-1
 643 107 l 1,5,-1
 643 1093 l 1,6,-1
 214 1093 l 1,7,-1
 214 107 l 1,4,-1
EndSplineSet
EndChar

StartChar: ucircumflex
Encoding: 251 251 187
Width: 857
GlyphClass: 1
Flags: W
LayerCount: 2
Fore
SplineSet
107 0 m 1,0,-1
 107 1200 l 1,1,-1
 750 1200 l 1,2,-1
 750 0 l 1,3,-1
 107 0 l 1,0,-1
214 107 m 1,4,-1
 643 107 l 1,5,-1
 643 1093 l 1,6,-1
 214 1093 l 1,7,-1
 214 107 l 1,4,-1
EndSplineSet
EndChar

StartChar: udieresis
Encoding: 252 252 188
Width: 857
GlyphClass: 1
Flags: W
LayerCount: 2
Fore
SplineSet
107 0 m 1,0,-1
 107 1200 l 1,1,-1
 750 1200 l 1,2,-1
 750 0 l 1,3,-1
 107 0 l 1,0,-1
214 107 m 1,4,-1
 643 107 l 1,5,-1
 643 1093 l 1,6,-1
 214 1093 l 1,7,-1
 214 107 l 1,4,-1
EndSplineSet
EndChar

StartChar: yacute
Encoding: 253 253 189
Width: 857
GlyphClass: 1
Flags: W
LayerCount: 2
Fore
SplineSet
107 0 m 1,0,-1
 107 1200 l 1,1,-1
 750 1200 l 1,2,-1
 750 0 l 1,3,-1
 107 0 l 1,0,-1
214 107 m 1,4,-1
 643 107 l 1,5,-1
 643 1093 l 1,6,-1
 214 1093 l 1,7,-1
 214 107 l 1,4,-1
EndSplineSet
EndChar

StartChar: thorn
Encoding: 254 254 190
Width: 857
GlyphClass: 1
Flags: W
LayerCount: 2
Fore
SplineSet
107 0 m 1,0,-1
 107 1200 l 1,1,-1
 750 1200 l 1,2,-1
 750 0 l 1,3,-1
 107 0 l 1,0,-1
214 107 m 1,4,-1
 643 107 l 1,5,-1
 643 1093 l 1,6,-1
 214 1093 l 1,7,-1
 214 107 l 1,4,-1
EndSplineSet
EndChar

StartChar: ydieresis
Encoding: 255 255 191
Width: 857
GlyphClass: 1
Flags: W
LayerCount: 2
Fore
SplineSet
107 0 m 1,0,-1
 107 1200 l 1,1,-1
 750 1200 l 1,2,-1
 750 0 l 1,3,-1
 107 0 l 1,0,-1
214 107 m 1,4,-1
 643 107 l 1,5,-1
 643 1093 l 1,6,-1
 214 1093 l 1,7,-1
 214 107 l 1,4,-1
EndSplineSet
EndChar

StartChar: glyph98
Encoding: 65541 -1 194
Width: 857
GlyphClass: 1
Flags: W
LayerCount: 2
Fore
SplineSet
223 73 m 1,0,-1
 223 210 l 1,1,-1
 361 210 l 1,2,-1
 361 73 l 1,3,-1
 223 73 l 1,0,-1
375 73 m 1,4,-1
 375 210 l 1,5,-1
 512 210 l 1,6,-1
 512 73 l 1,7,-1
 375 73 l 1,4,-1
526 73 m 1,8,-1
 526 210 l 1,9,-1
 664 210 l 1,10,-1
 664 73 l 1,11,-1
 526 73 l 1,8,-1
72 224 m 1,12,-1
 72 361 l 1,13,-1
 209 361 l 1,14,-1
 209 224 l 1,15,-1
 72 224 l 1,12,-1
678 224 m 1,16,-1
 678 362 l 1,17,-1
 816 362 l 1,18,-1
 816 224 l 1,19,-1
 678 224 l 1,16,-1
72 375 m 1,20,-1
 72 513 l 1,21,-1
 209 513 l 1,22,-1
 209 375 l 1,23,-1
 72 375 l 1,20,-1
678 376 m 1,24,-1
 678 514 l 1,25,-1
 816 514 l 1,26,-1
 816 376 l 1,27,-1
 678 376 l 1,24,-1
72 527 m 1,28,-1
 72 665 l 1,29,-1
 209 665 l 1,30,-1
 209 527 l 1,31,-1
 72 527 l 1,28,-1
223 527 m 1,32,-1
 223 665 l 1,33,-1
 361 665 l 1,34,-1
 361 527 l 1,35,-1
 223 527 l 1,32,-1
375 527 m 1,36,-1
 375 665 l 1,37,-1
 512 665 l 1,38,-1
 512 527 l 1,39,-1
 375 527 l 1,36,-1
526 527 m 1,40,-1
 526 665 l 1,41,-1
 664 665 l 1,42,-1
 664 527 l 1,43,-1
 526 527 l 1,40,-1
678 527 m 1,44,-1
 678 665 l 1,45,-1
 816 665 l 1,46,-1
 816 527 l 1,47,-1
 678 527 l 1,44,-1
72 678 m 1,48,-1
 72 816 l 1,49,-1
 209 816 l 1,50,-1
 209 678 l 1,51,-1
 72 678 l 1,48,-1
678 679 m 1,52,-1
 678 817 l 1,53,-1
 816 817 l 1,54,-1
 816 679 l 1,55,-1
 678 679 l 1,52,-1
72 830 m 1,56,-1
 72 968 l 1,57,-1
 209 968 l 1,58,-1
 209 830 l 1,59,-1
 72 830 l 1,56,-1
678 830 m 1,60,-1
 678 968 l 1,61,-1
 816 968 l 1,62,-1
 816 830 l 1,63,-1
 678 830 l 1,60,-1
223 982 m 1,64,-1
 223 1120 l 1,65,-1
 361 1120 l 1,66,-1
 361 982 l 1,67,-1
 223 982 l 1,64,-1
375 982 m 1,68,-1
 375 1120 l 1,69,-1
 512 1120 l 1,70,-1
 512 982 l 1,71,-1
 375 982 l 1,68,-1
526 982 m 1,72,-1
 526 1120 l 1,73,-1
 664 1120 l 1,74,-1
 664 982 l 1,75,-1
 526 982 l 1,72,-1
EndSplineSet
EndChar

StartChar: glyph99
Encoding: 65542 -1 195
Width: 857
GlyphClass: 1
Flags: W
LayerCount: 2
Fore
SplineSet
375 73 m 1,0,-1
 375 210 l 1,1,-1
 512 210 l 1,2,-1
 512 73 l 1,3,-1
 375 73 l 1,0,-1
526 73 m 1,4,-1
 526 210 l 1,5,-1
 664 210 l 1,6,-1
 664 73 l 1,7,-1
 526 73 l 1,4,-1
678 73 m 1,8,-1
 678 210 l 1,9,-1
 816 210 l 1,10,-1
 816 73 l 1,11,-1
 678 73 l 1,8,-1
223 224 m 1,12,-1
 223 362 l 1,13,-1
 361 362 l 1,14,-1
 361 224 l 1,15,-1
 223 224 l 1,12,-1
72 375 m 1,16,-1
 72 513 l 1,17,-1
 209 513 l 1,18,-1
 209 375 l 1,19,-1
 72 375 l 1,16,-1
223 375 m 1,20,-1
 223 513 l 1,21,-1
 361 513 l 1,22,-1
 361 375 l 1,23,-1
 223 375 l 1,20,-1
375 376 m 1,24,-1
 375 514 l 1,25,-1
 512 514 l 1,26,-1
 512 376 l 1,27,-1
 375 376 l 1,24,-1
526 376 m 1,28,-1
 526 514 l 1,29,-1
 664 514 l 1,30,-1
 664 376 l 1,31,-1
 526 376 l 1,28,-1
223 527 m 1,32,-1
 223 665 l 1,33,-1
 361 665 l 1,34,-1
 361 527 l 1,35,-1
 223 527 l 1,32,-1
72 679 m 1,36,-1
 72 816 l 1,37,-1
 209 816 l 1,38,-1
 209 679 l 1,39,-1
 72 679 l 1,36,-1
223 679 m 1,40,-1
 223 816 l 1,41,-1
 361 816 l 1,42,-1
 361 679 l 1,43,-1
 223 679 l 1,40,-1
375 679 m 1,44,-1
 375 816 l 1,45,-1
 512 816 l 1,46,-1
 512 679 l 1,47,-1
 375 679 l 1,44,-1
526 679 m 1,48,-1
 526 817 l 1,49,-1
 664 817 l 1,50,-1
 664 679 l 1,51,-1
 526 679 l 1,48,-1
223 830 m 1,52,-1
 223 968 l 1,53,-1
 361 968 l 1,54,-1
 361 830 l 1,55,-1
 223 830 l 1,52,-1
375 982 m 1,56,-1
 375 1120 l 1,57,-1
 512 1120 l 1,58,-1
 512 982 l 1,59,-1
 375 982 l 1,56,-1
526 982 m 1,60,-1
 526 1120 l 1,61,-1
 664 1120 l 1,62,-1
 664 982 l 1,63,-1
 526 982 l 1,60,-1
678 982 m 1,64,-1
 678 1120 l 1,65,-1
 816 1120 l 1,66,-1
 816 982 l 1,67,-1
 678 982 l 1,64,-1
EndSplineSet
EndChar

StartChar: glyph100
Encoding: 65543 -1 196
Width: 857
GlyphClass: 1
Flags: W
LayerCount: 2
Fore
SplineSet
72 73 m 1,0,-1
 72 210 l 1,1,-1
 209 210 l 1,2,-1
 209 73 l 1,3,-1
 72 73 l 1,0,-1
223 73 m 1,4,-1
 223 210 l 1,5,-1
 361 210 l 1,6,-1
 361 73 l 1,7,-1
 223 73 l 1,4,-1
375 73 m 1,8,-1
 375 210 l 1,9,-1
 512 210 l 1,10,-1
 512 73 l 1,11,-1
 375 73 l 1,8,-1
526 73 m 1,12,-1
 526 210 l 1,13,-1
 664 210 l 1,14,-1
 664 73 l 1,15,-1
 526 73 l 1,12,-1
678 73 m 1,16,-1
 678 210 l 1,17,-1
 816 210 l 1,18,-1
 816 73 l 1,19,-1
 678 73 l 1,16,-1
223 527 m 1,20,-1
 223 665 l 1,21,-1
 361 665 l 1,22,-1
 361 527 l 1,23,-1
 223 527 l 1,20,-1
375 527 m 1,24,-1
 375 665 l 1,25,-1
 512 665 l 1,26,-1
 512 527 l 1,27,-1
 375 527 l 1,24,-1
526 527 m 1,28,-1
 526 665 l 1,29,-1
 664 665 l 1,30,-1
 664 527 l 1,31,-1
 526 527 l 1,28,-1
72 982 m 1,32,-1
 72 1120 l 1,33,-1
 209 1120 l 1,34,-1
 209 982 l 1,35,-1
 72 982 l 1,32,-1
223 982 m 1,36,-1
 223 1120 l 1,37,-1
 361 1120 l 1,38,-1
 361 982 l 1,39,-1
 223 982 l 1,36,-1
375 982 m 1,40,-1
 375 1120 l 1,41,-1
 512 1120 l 1,42,-1
 512 982 l 1,43,-1
 375 982 l 1,40,-1
526 982 m 1,44,-1
 526 1120 l 1,45,-1
 664 1120 l 1,46,-1
 664 982 l 1,47,-1
 526 982 l 1,44,-1
678 982 m 1,48,-1
 678 1120 l 1,49,-1
 816 1120 l 1,50,-1
 816 982 l 1,51,-1
 678 982 l 1,48,-1
EndSplineSet
EndChar

StartChar: glyph101
Encoding: 65544 -1 197
Width: 857
GlyphClass: 1
Flags: W
LayerCount: 2
Fore
SplineSet
375 73 m 1,0,-1
 375 210 l 1,1,-1
 513 210 l 1,2,-1
 513 73 l 1,3,-1
 375 73 l 1,0,-1
375 224 m 1,4,-1
 375 362 l 1,5,-1
 513 362 l 1,6,-1
 513 224 l 1,7,-1
 375 224 l 1,4,-1
375 376 m 1,8,-1
 375 514 l 1,9,-1
 513 514 l 1,10,-1
 513 376 l 1,11,-1
 375 376 l 1,8,-1
EndSplineSet
EndChar

StartChar: glyph102
Encoding: 65545 -1 198
Width: 857
GlyphClass: 1
Flags: W
LayerCount: 2
Fore
SplineSet
224 73 m 1,0,-1
 224 210 l 1,1,-1
 361 210 l 1,2,-1
 361 73 l 1,3,-1
 224 73 l 1,0,-1
375 224 m 1,4,-1
 375 362 l 1,5,-1
 513 362 l 1,6,-1
 513 224 l 1,7,-1
 375 224 l 1,4,-1
375 376 m 1,8,-1
 375 514 l 1,9,-1
 513 514 l 1,10,-1
 513 376 l 1,11,-1
 375 376 l 1,8,-1
224 527 m 1,12,-1
 224 665 l 1,13,-1
 361 665 l 1,14,-1
 361 527 l 1,15,-1
 224 527 l 1,12,-1
375 527 m 1,16,-1
 375 665 l 1,17,-1
 513 665 l 1,18,-1
 513 527 l 1,19,-1
 375 527 l 1,16,-1
527 527 m 1,20,-1
 527 665 l 1,21,-1
 664 665 l 1,22,-1
 664 527 l 1,23,-1
 527 527 l 1,20,-1
375 679 m 1,24,-1
 375 816 l 1,25,-1
 512 816 l 1,26,-1
 512 679 l 1,27,-1
 375 679 l 1,24,-1
375 830 m 1,28,-1
 375 968 l 1,29,-1
 512 968 l 1,30,-1
 512 830 l 1,31,-1
 375 830 l 1,28,-1
526 982 m 1,32,-1
 526 1120 l 1,33,-1
 664 1120 l 1,34,-1
 664 982 l 1,35,-1
 526 982 l 1,32,-1
EndSplineSet
EndChar

StartChar: glyph103
Encoding: 65546 -1 199
Width: 857
GlyphClass: 1
Flags: W
LayerCount: 2
Fore
SplineSet
224 73 m 1,0,-1
 224 210 l 1,1,-1
 361 210 l 1,2,-1
 361 73 l 1,3,-1
 224 73 l 1,0,-1
527 73 m 1,4,-1
 527 210 l 1,5,-1
 665 210 l 1,6,-1
 665 73 l 1,7,-1
 527 73 l 1,4,-1
224 224 m 1,8,-1
 224 362 l 1,9,-1
 361 362 l 1,10,-1
 361 224 l 1,11,-1
 224 224 l 1,8,-1
526 224 m 1,12,-1
 526 362 l 1,13,-1
 665 362 l 1,14,-1
 665 224 l 1,15,-1
 526 224 l 1,12,-1
224 376 m 1,16,-1
 224 514 l 1,17,-1
 361 514 l 1,18,-1
 361 376 l 1,19,-1
 224 376 l 1,16,-1
526 376 m 1,20,-1
 526 514 l 1,21,-1
 665 514 l 1,22,-1
 665 376 l 1,23,-1
 526 376 l 1,20,-1
EndSplineSet
EndChar

StartChar: glyph104
Encoding: 65547 -1 200
Width: 857
GlyphClass: 1
Flags: W
LayerCount: 2
Fore
SplineSet
72 73 m 1,0,-1
 72 210 l 1,1,-1
 210 210 l 1,2,-1
 210 73 l 1,3,-1
 72 73 l 1,0,-1
375 73 m 1,4,-1
 375 210 l 1,5,-1
 513 210 l 1,6,-1
 513 73 l 1,7,-1
 375 73 l 1,4,-1
678 73 m 1,8,-1
 678 210 l 1,9,-1
 816 210 l 1,10,-1
 816 73 l 1,11,-1
 678 73 l 1,8,-1
EndSplineSet
EndChar

StartChar: glyph105
Encoding: 65548 -1 201
Width: 857
GlyphClass: 1
Flags: W
LayerCount: 2
Fore
SplineSet
375 224 m 1,0,-1
 375 362 l 1,1,-1
 513 362 l 1,2,-1
 513 224 l 1,3,-1
 375 224 l 1,0,-1
375 376 m 1,4,-1
 375 514 l 1,5,-1
 513 514 l 1,6,-1
 513 376 l 1,7,-1
 375 376 l 1,4,-1
375 527 m 1,8,-1
 375 665 l 1,9,-1
 513 665 l 1,10,-1
 513 527 l 1,11,-1
 375 527 l 1,8,-1
224 679 m 1,12,-1
 224 816 l 1,13,-1
 361 816 l 1,14,-1
 361 679 l 1,15,-1
 224 679 l 1,12,-1
375 679 m 1,16,-1
 375 817 l 1,17,-1
 513 817 l 1,18,-1
 513 679 l 1,19,-1
 375 679 l 1,16,-1
527 679 m 1,20,-1
 527 817 l 1,21,-1
 664 817 l 1,22,-1
 664 679 l 1,23,-1
 527 679 l 1,20,-1
375 830 m 1,24,-1
 375 969 l 1,25,-1
 512 969 l 1,26,-1
 512 830 l 1,27,-1
 375 830 l 1,24,-1
EndSplineSet
EndChar

StartChar: glyph106
Encoding: 65549 -1 202
Width: 857
GlyphClass: 1
Flags: W
LayerCount: 2
Fore
SplineSet
375 224 m 1,0,-1
 375 362 l 1,1,-1
 513 362 l 1,2,-1
 513 224 l 1,3,-1
 375 224 l 1,0,-1
224 376 m 1,4,-1
 224 514 l 1,5,-1
 361 514 l 1,6,-1
 361 376 l 1,7,-1
 224 376 l 1,4,-1
375 376 m 1,8,-1
 375 514 l 1,9,-1
 513 514 l 1,10,-1
 513 376 l 1,11,-1
 375 376 l 1,8,-1
527 376 m 1,12,-1
 527 514 l 1,13,-1
 664 514 l 1,14,-1
 664 376 l 1,15,-1
 527 376 l 1,12,-1
375 527 m 1,16,-1
 375 665 l 1,17,-1
 513 665 l 1,18,-1
 513 527 l 1,19,-1
 375 527 l 1,16,-1
224 679 m 1,20,-1
 224 816 l 1,21,-1
 361 816 l 1,22,-1
 361 679 l 1,23,-1
 224 679 l 1,20,-1
375 679 m 1,24,-1
 375 816 l 1,25,-1
 512 816 l 1,26,-1
 512 679 l 1,27,-1
 375 679 l 1,24,-1
526 679 m 1,28,-1
 526 817 l 1,29,-1
 664 817 l 1,30,-1
 664 679 l 1,31,-1
 526 679 l 1,28,-1
375 830 m 1,32,-1
 375 969 l 1,33,-1
 512 969 l 1,34,-1
 512 830 l 1,35,-1
 375 830 l 1,32,-1
EndSplineSet
EndChar

StartChar: glyph107
Encoding: 65550 -1 203
Width: 857
GlyphClass: 1
Flags: W
LayerCount: 2
Fore
SplineSet
375 73 m 1,0,-1
 375 210 l 1,1,-1
 513 210 l 1,2,-1
 513 73 l 1,3,-1
 375 73 l 1,0,-1
375 224 m 1,4,-1
 375 362 l 1,5,-1
 512 362 l 1,6,-1
 512 224 l 1,7,-1
 375 224 l 1,4,-1
375 376 m 1,8,-1
 375 514 l 1,9,-1
 512 514 l 1,10,-1
 512 376 l 1,11,-1
 375 376 l 1,8,-1
223 527 m 1,12,-1
 223 665 l 1,13,-1
 361 665 l 1,14,-1
 361 527 l 1,15,-1
 223 527 l 1,12,-1
375 527 m 1,16,-1
 375 665 l 1,17,-1
 512 665 l 1,18,-1
 512 527 l 1,19,-1
 375 527 l 1,16,-1
526 527 m 1,20,-1
 526 665 l 1,21,-1
 664 665 l 1,22,-1
 664 527 l 1,23,-1
 526 527 l 1,20,-1
72 679 m 1,24,-1
 72 816 l 1,25,-1
 209 816 l 1,26,-1
 209 679 l 1,27,-1
 72 679 l 1,24,-1
375 679 m 1,28,-1
 375 816 l 1,29,-1
 512 816 l 1,30,-1
 512 679 l 1,31,-1
 375 679 l 1,28,-1
678 679 m 1,32,-1
 678 817 l 1,33,-1
 816 817 l 1,34,-1
 816 679 l 1,35,-1
 678 679 l 1,32,-1
72 830 m 1,36,-1
 72 968 l 1,37,-1
 209 968 l 1,38,-1
 209 830 l 1,39,-1
 72 830 l 1,36,-1
375 830 m 1,40,-1
 375 968 l 1,41,-1
 512 968 l 1,42,-1
 512 830 l 1,43,-1
 375 830 l 1,40,-1
678 830 m 1,44,-1
 678 968 l 1,45,-1
 816 968 l 1,46,-1
 816 830 l 1,47,-1
 678 830 l 1,44,-1
72 982 m 1,48,-1
 72 1120 l 1,49,-1
 209 1120 l 1,50,-1
 209 982 l 1,51,-1
 72 982 l 1,48,-1
375 982 m 1,52,-1
 375 1120 l 1,53,-1
 512 1120 l 1,54,-1
 512 982 l 1,55,-1
 375 982 l 1,52,-1
678 982 m 1,56,-1
 678 1120 l 1,57,-1
 816 1120 l 1,58,-1
 816 982 l 1,59,-1
 678 982 l 1,56,-1
EndSplineSet
EndChar

StartChar: glyph108
Encoding: 65551 -1 204
Width: 857
GlyphClass: 1
Flags: W
LayerCount: 2
Fore
SplineSet
72 73 m 1,0,-1
 72 210 l 1,1,-1
 209 210 l 1,2,-1
 209 73 l 1,3,-1
 72 73 l 1,0,-1
223 73 m 1,4,-1
 223 210 l 1,5,-1
 361 210 l 1,6,-1
 361 73 l 1,7,-1
 223 73 l 1,4,-1
526 73 m 1,8,-1
 526 210 l 1,9,-1
 664 210 l 1,10,-1
 664 73 l 1,11,-1
 526 73 l 1,8,-1
678 73 m 1,12,-1
 678 210 l 1,13,-1
 816 210 l 1,14,-1
 816 73 l 1,15,-1
 678 73 l 1,12,-1
223 224 m 1,16,-1
 223 362 l 1,17,-1
 361 362 l 1,18,-1
 361 224 l 1,19,-1
 223 224 l 1,16,-1
526 224 m 1,20,-1
 526 362 l 1,21,-1
 664 362 l 1,22,-1
 664 224 l 1,23,-1
 526 224 l 1,20,-1
72 375 m 1,24,-1
 72 513 l 1,25,-1
 209 513 l 1,26,-1
 209 375 l 1,27,-1
 72 375 l 1,24,-1
678 376 m 1,28,-1
 678 514 l 1,29,-1
 816 514 l 1,30,-1
 816 376 l 1,31,-1
 678 376 l 1,28,-1
72 527 m 1,32,-1
 72 665 l 1,33,-1
 209 665 l 1,34,-1
 209 527 l 1,35,-1
 72 527 l 1,32,-1
678 527 m 1,36,-1
 678 665 l 1,37,-1
 816 665 l 1,38,-1
 816 527 l 1,39,-1
 678 527 l 1,36,-1
72 679 m 1,40,-1
 72 816 l 1,41,-1
 209 816 l 1,42,-1
 209 679 l 1,43,-1
 72 679 l 1,40,-1
678 679 m 1,44,-1
 678 817 l 1,45,-1
 816 817 l 1,46,-1
 816 679 l 1,47,-1
 678 679 l 1,44,-1
72 830 m 1,48,-1
 72 968 l 1,49,-1
 209 968 l 1,50,-1
 209 830 l 1,51,-1
 72 830 l 1,48,-1
678 830 m 1,52,-1
 678 968 l 1,53,-1
 816 968 l 1,54,-1
 816 830 l 1,55,-1
 678 830 l 1,52,-1
223 982 m 1,56,-1
 223 1120 l 1,57,-1
 361 1120 l 1,58,-1
 361 982 l 1,59,-1
 223 982 l 1,56,-1
375 982 m 1,60,-1
 375 1120 l 1,61,-1
 512 1120 l 1,62,-1
 512 982 l 1,63,-1
 375 982 l 1,60,-1
526 982 m 1,64,-1
 526 1120 l 1,65,-1
 664 1120 l 1,66,-1
 664 982 l 1,67,-1
 526 982 l 1,64,-1
EndSplineSet
EndChar

StartChar: glyph109
Encoding: 65552 -1 205
Width: 857
GlyphClass: 1
Flags: W
LayerCount: 2
Fore
SplineSet
72 73 m 1,0,-1
 72 210 l 1,1,-1
 209 210 l 1,2,-1
 209 73 l 1,3,-1
 72 73 l 1,0,-1
223 73 m 1,4,-1
 223 210 l 1,5,-1
 361 210 l 1,6,-1
 361 73 l 1,7,-1
 223 73 l 1,4,-1
375 73 m 1,8,-1
 375 210 l 1,9,-1
 512 210 l 1,10,-1
 512 73 l 1,11,-1
 375 73 l 1,8,-1
526 73 m 1,12,-1
 526 210 l 1,13,-1
 664 210 l 1,14,-1
 664 73 l 1,15,-1
 526 73 l 1,12,-1
678 224 m 1,16,-1
 678 362 l 1,17,-1
 816 362 l 1,18,-1
 816 224 l 1,19,-1
 678 224 l 1,16,-1
223 375 m 1,20,-1
 223 513 l 1,21,-1
 361 513 l 1,22,-1
 361 375 l 1,23,-1
 223 375 l 1,20,-1
375 376 m 1,24,-1
 375 514 l 1,25,-1
 512 514 l 1,26,-1
 512 376 l 1,27,-1
 375 376 l 1,24,-1
526 376 m 1,28,-1
 526 514 l 1,29,-1
 664 514 l 1,30,-1
 664 376 l 1,31,-1
 526 376 l 1,28,-1
72 527 m 1,32,-1
 72 665 l 1,33,-1
 209 665 l 1,34,-1
 209 527 l 1,35,-1
 72 527 l 1,32,-1
223 679 m 1,36,-1
 223 816 l 1,37,-1
 361 816 l 1,38,-1
 361 679 l 1,39,-1
 223 679 l 1,36,-1
375 679 m 1,40,-1
 375 816 l 1,41,-1
 512 816 l 1,42,-1
 512 679 l 1,43,-1
 375 679 l 1,40,-1
526 679 m 1,44,-1
 526 817 l 1,45,-1
 664 817 l 1,46,-1
 664 679 l 1,47,-1
 526 679 l 1,44,-1
375 830 m 1,48,-1
 375 968 l 1,49,-1
 512 968 l 1,50,-1
 512 830 l 1,51,-1
 375 830 l 1,48,-1
223 982 m 1,52,-1
 223 1120 l 1,53,-1
 361 1120 l 1,54,-1
 361 982 l 1,55,-1
 223 982 l 1,52,-1
526 982 m 1,56,-1
 526 1120 l 1,57,-1
 664 1120 l 1,58,-1
 664 982 l 1,59,-1
 526 982 l 1,56,-1
EndSplineSet
EndChar

StartChar: glyph110
Encoding: 65553 -1 206
Width: 857
GlyphClass: 1
Flags: W
LayerCount: 2
Fore
SplineSet
527 224 m 1,0,-1
 527 362 l 1,1,-1
 664 362 l 1,2,-1
 664 224 l 1,3,-1
 527 224 l 1,0,-1
375 376 m 1,4,-1
 375 514 l 1,5,-1
 512 514 l 1,6,-1
 512 376 l 1,7,-1
 375 376 l 1,4,-1
526 376 m 1,8,-1
 526 514 l 1,9,-1
 664 514 l 1,10,-1
 664 376 l 1,11,-1
 526 376 l 1,8,-1
224 527 m 1,12,-1
 224 665 l 1,13,-1
 361 665 l 1,14,-1
 361 527 l 1,15,-1
 224 527 l 1,12,-1
375 527 m 1,16,-1
 375 665 l 1,17,-1
 512 665 l 1,18,-1
 512 527 l 1,19,-1
 375 527 l 1,16,-1
526 527 m 1,20,-1
 526 665 l 1,21,-1
 664 665 l 1,22,-1
 664 527 l 1,23,-1
 526 527 l 1,20,-1
375 679 m 1,24,-1
 375 817 l 1,25,-1
 512 817 l 1,26,-1
 512 679 l 1,27,-1
 375 679 l 1,24,-1
526 679 m 1,28,-1
 526 817 l 1,29,-1
 664 817 l 1,30,-1
 664 679 l 1,31,-1
 526 679 l 1,28,-1
526 830 m 1,32,-1
 526 969 l 1,33,-1
 664 969 l 1,34,-1
 664 830 l 1,35,-1
 526 830 l 1,32,-1
EndSplineSet
EndChar

StartChar: glyph111
Encoding: 65554 -1 207
Width: 857
GlyphClass: 1
Flags: W
LayerCount: 2
Fore
SplineSet
210 969 m 1,0,-1
 210 831 l 1,1,-1
 72 831 l 1,2,-1
 72 969 l 1,3,-1
 210 969 l 1,0,-1
210 817 m 1,4,-1
 210 679 l 1,5,-1
 72 679 l 1,6,-1
 72 817 l 1,7,-1
 210 817 l 1,4,-1
210 665 m 1,8,-1
 210 527 l 1,9,-1
 72 527 l 1,10,-1
 72 665 l 1,11,-1
 210 665 l 1,8,-1
210 514 m 1,12,-1
 210 376 l 1,13,-1
 72 376 l 1,14,-1
 72 514 l 1,15,-1
 210 514 l 1,12,-1
210 362 m 1,16,-1
 210 224 l 1,17,-1
 72 224 l 1,18,-1
 72 362 l 1,19,-1
 210 362 l 1,16,-1
361 1120 m 1,20,-1
 361 982 l 1,21,-1
 224 982 l 1,22,-1
 224 1120 l 1,23,-1
 361 1120 l 1,20,-1
361 211 m 1,24,-1
 361 73 l 1,25,-1
 224 73 l 1,26,-1
 224 211 l 1,27,-1
 361 211 l 1,24,-1
513 969 m 1,28,-1
 513 831 l 1,29,-1
 375 831 l 1,30,-1
 375 969 l 1,31,-1
 513 969 l 1,28,-1
513 817 m 1,32,-1
 513 679 l 1,33,-1
 375 679 l 1,34,-1
 375 817 l 1,35,-1
 513 817 l 1,32,-1
513 665 m 1,36,-1
 513 527 l 1,37,-1
 375 527 l 1,38,-1
 375 665 l 1,39,-1
 513 665 l 1,36,-1
513 514 m 1,40,-1
 513 376 l 1,41,-1
 375 376 l 1,42,-1
 375 514 l 1,43,-1
 513 514 l 1,40,-1
513 362 m 1,44,-1
 513 224 l 1,45,-1
 375 224 l 1,46,-1
 375 362 l 1,47,-1
 513 362 l 1,44,-1
665 1120 m 1,48,-1
 665 982 l 1,49,-1
 527 982 l 1,50,-1
 527 1120 l 1,51,-1
 665 1120 l 1,48,-1
665 665 m 1,52,-1
 665 527 l 1,53,-1
 527 527 l 1,54,-1
 527 665 l 1,55,-1
 665 665 l 1,52,-1
665 211 m 1,56,-1
 665 73 l 1,57,-1
 527 73 l 1,58,-1
 527 211 l 1,59,-1
 665 211 l 1,56,-1
816 1120 m 1,60,-1
 816 982 l 1,61,-1
 678 982 l 1,62,-1
 678 1120 l 1,63,-1
 816 1120 l 1,60,-1
816 665 m 1,64,-1
 816 527 l 1,65,-1
 678 527 l 1,66,-1
 678 665 l 1,67,-1
 816 665 l 1,64,-1
816 211 m 1,68,-1
 816 73 l 1,69,-1
 678 73 l 1,70,-1
 678 211 l 1,71,-1
 816 211 l 1,68,-1
EndSplineSet
EndChar

StartChar: glyph112
Encoding: 65555 -1 208
Width: 857
GlyphClass: 1
Flags: W
LayerCount: 2
Fore
SplineSet
72 73 m 1,0,-1
 72 210 l 1,1,-1
 209 210 l 1,2,-1
 209 73 l 1,3,-1
 72 73 l 1,0,-1
223 73 m 1,4,-1
 223 210 l 1,5,-1
 361 210 l 1,6,-1
 361 73 l 1,7,-1
 223 73 l 1,4,-1
375 73 m 1,8,-1
 375 210 l 1,9,-1
 512 210 l 1,10,-1
 512 73 l 1,11,-1
 375 73 l 1,8,-1
526 73 m 1,12,-1
 526 210 l 1,13,-1
 664 210 l 1,14,-1
 664 73 l 1,15,-1
 526 73 l 1,12,-1
678 73 m 1,16,-1
 678 210 l 1,17,-1
 816 210 l 1,18,-1
 816 73 l 1,19,-1
 678 73 l 1,16,-1
72 224 m 1,20,-1
 72 362 l 1,21,-1
 209 362 l 1,22,-1
 209 224 l 1,23,-1
 72 224 l 1,20,-1
72 375 m 1,24,-1
 72 513 l 1,25,-1
 209 513 l 1,26,-1
 209 375 l 1,27,-1
 72 375 l 1,24,-1
678 376 m 1,28,-1
 678 514 l 1,29,-1
 816 514 l 1,30,-1
 816 376 l 1,31,-1
 678 376 l 1,28,-1
72 527 m 1,32,-1
 72 665 l 1,33,-1
 209 665 l 1,34,-1
 209 527 l 1,35,-1
 72 527 l 1,32,-1
526 527 m 1,36,-1
 526 665 l 1,37,-1
 664 665 l 1,38,-1
 664 527 l 1,39,-1
 526 527 l 1,36,-1
72 679 m 1,40,-1
 72 816 l 1,41,-1
 209 816 l 1,42,-1
 209 679 l 1,43,-1
 72 679 l 1,40,-1
375 679 m 1,44,-1
 375 816 l 1,45,-1
 512 816 l 1,46,-1
 512 679 l 1,47,-1
 375 679 l 1,44,-1
72 830 m 1,48,-1
 72 968 l 1,49,-1
 209 968 l 1,50,-1
 209 830 l 1,51,-1
 72 830 l 1,48,-1
223 830 m 1,52,-1
 223 968 l 1,53,-1
 361 968 l 1,54,-1
 361 830 l 1,55,-1
 223 830 l 1,52,-1
72 981 m 1,56,-1
 72 1120 l 1,57,-1
 209 1120 l 1,58,-1
 209 981 l 1,59,-1
 72 981 l 1,56,-1
223 982 m 1,60,-1
 223 1120 l 1,61,-1
 361 1120 l 1,62,-1
 361 982 l 1,63,-1
 223 982 l 1,60,-1
375 982 m 1,64,-1
 375 1120 l 1,65,-1
 512 1120 l 1,66,-1
 512 982 l 1,67,-1
 375 982 l 1,64,-1
526 982 m 1,68,-1
 526 1120 l 1,69,-1
 664 1120 l 1,70,-1
 664 982 l 1,71,-1
 526 982 l 1,68,-1
678 982 m 1,72,-1
 678 1120 l 1,73,-1
 816 1120 l 1,74,-1
 816 982 l 1,75,-1
 678 982 l 1,72,-1
EndSplineSet
EndChar

StartChar: glyph113
Encoding: 65556 -1 209
Width: 857
GlyphClass: 1
Flags: W
LayerCount: 2
Fore
SplineSet
72 73 m 1,0,-1
 72 210 l 1,1,-1
 209 210 l 1,2,-1
 209 73 l 1,3,-1
 72 73 l 1,0,-1
223 73 m 1,4,-1
 223 210 l 1,5,-1
 361 210 l 1,6,-1
 361 73 l 1,7,-1
 223 73 l 1,4,-1
375 73 m 1,8,-1
 375 210 l 1,9,-1
 512 210 l 1,10,-1
 512 73 l 1,11,-1
 375 73 l 1,8,-1
526 73 m 1,12,-1
 526 210 l 1,13,-1
 664 210 l 1,14,-1
 664 73 l 1,15,-1
 526 73 l 1,12,-1
678 73 m 1,16,-1
 678 210 l 1,17,-1
 816 210 l 1,18,-1
 816 73 l 1,19,-1
 678 73 l 1,16,-1
678 224 m 1,20,-1
 678 362 l 1,21,-1
 816 362 l 1,22,-1
 816 224 l 1,23,-1
 678 224 l 1,20,-1
72 375 m 1,24,-1
 72 513 l 1,25,-1
 209 513 l 1,26,-1
 209 375 l 1,27,-1
 72 375 l 1,24,-1
678 376 m 1,28,-1
 678 514 l 1,29,-1
 816 514 l 1,30,-1
 816 376 l 1,31,-1
 678 376 l 1,28,-1
223 527 m 1,32,-1
 223 665 l 1,33,-1
 361 665 l 1,34,-1
 361 527 l 1,35,-1
 223 527 l 1,32,-1
678 527 m 1,36,-1
 678 665 l 1,37,-1
 816 665 l 1,38,-1
 816 527 l 1,39,-1
 678 527 l 1,36,-1
375 679 m 1,40,-1
 375 816 l 1,41,-1
 512 816 l 1,42,-1
 512 679 l 1,43,-1
 375 679 l 1,40,-1
678 679 m 1,44,-1
 678 817 l 1,45,-1
 816 817 l 1,46,-1
 816 679 l 1,47,-1
 678 679 l 1,44,-1
526 830 m 1,48,-1
 526 968 l 1,49,-1
 664 968 l 1,50,-1
 664 830 l 1,51,-1
 526 830 l 1,48,-1
678 830 m 1,52,-1
 678 968 l 1,53,-1
 816 968 l 1,54,-1
 816 830 l 1,55,-1
 678 830 l 1,52,-1
72 981 m 1,56,-1
 72 1120 l 1,57,-1
 209 1120 l 1,58,-1
 209 981 l 1,59,-1
 72 981 l 1,56,-1
223 981 m 1,60,-1
 223 1120 l 1,61,-1
 361 1120 l 1,62,-1
 361 981 l 1,63,-1
 223 981 l 1,60,-1
375 982 m 1,64,-1
 375 1120 l 1,65,-1
 512 1120 l 1,66,-1
 512 982 l 1,67,-1
 375 982 l 1,64,-1
526 982 m 1,68,-1
 526 1120 l 1,69,-1
 664 1120 l 1,70,-1
 664 982 l 1,71,-1
 526 982 l 1,68,-1
678 982 m 1,72,-1
 678 1120 l 1,73,-1
 816 1120 l 1,74,-1
 816 982 l 1,75,-1
 678 982 l 1,72,-1
EndSplineSet
EndChar

StartChar: glyph114
Encoding: 65557 -1 210
Width: 857
GlyphClass: 1
Flags: W
LayerCount: 2
Fore
SplineSet
72 73 m 1,0,-1
 72 210 l 1,1,-1
 209 210 l 1,2,-1
 209 73 l 1,3,-1
 72 73 l 1,0,-1
223 73 m 1,4,-1
 223 210 l 1,5,-1
 361 210 l 1,6,-1
 361 73 l 1,7,-1
 223 73 l 1,4,-1
375 224 m 1,8,-1
 375 362 l 1,9,-1
 513 362 l 1,10,-1
 513 224 l 1,11,-1
 375 224 l 1,8,-1
375 376 m 1,12,-1
 375 514 l 1,13,-1
 513 514 l 1,14,-1
 513 376 l 1,15,-1
 375 376 l 1,12,-1
72 527 m 1,16,-1
 72 665 l 1,17,-1
 209 665 l 1,18,-1
 209 527 l 1,19,-1
 72 527 l 1,16,-1
223 527 m 1,20,-1
 223 665 l 1,21,-1
 361 665 l 1,22,-1
 361 527 l 1,23,-1
 223 527 l 1,20,-1
375 527 m 1,24,-1
 375 665 l 1,25,-1
 513 665 l 1,26,-1
 513 527 l 1,27,-1
 375 527 l 1,24,-1
526 527 m 1,28,-1
 526 665 l 1,29,-1
 664 665 l 1,30,-1
 664 527 l 1,31,-1
 526 527 l 1,28,-1
678 527 m 1,32,-1
 678 665 l 1,33,-1
 816 665 l 1,34,-1
 816 527 l 1,35,-1
 678 527 l 1,32,-1
375 679 m 1,36,-1
 375 816 l 1,37,-1
 512 816 l 1,38,-1
 512 679 l 1,39,-1
 375 679 l 1,36,-1
375 830 m 1,40,-1
 375 968 l 1,41,-1
 512 968 l 1,42,-1
 512 830 l 1,43,-1
 375 830 l 1,40,-1
72 982 m 1,44,-1
 72 1120 l 1,45,-1
 209 1120 l 1,46,-1
 209 982 l 1,47,-1
 72 982 l 1,44,-1
223 982 m 1,48,-1
 223 1120 l 1,49,-1
 361 1120 l 1,50,-1
 361 982 l 1,51,-1
 223 982 l 1,48,-1
EndSplineSet
EndChar

StartChar: glyph115
Encoding: 65558 -1 211
Width: 857
GlyphClass: 1
Flags: W
LayerCount: 2
Fore
SplineSet
526 73 m 1,0,-1
 526 210 l 1,1,-1
 664 210 l 1,2,-1
 664 73 l 1,3,-1
 526 73 l 1,0,-1
678 73 m 1,4,-1
 678 210 l 1,5,-1
 816 210 l 1,6,-1
 816 73 l 1,7,-1
 678 73 l 1,4,-1
375 224 m 1,8,-1
 375 362 l 1,9,-1
 512 362 l 1,10,-1
 512 224 l 1,11,-1
 375 224 l 1,8,-1
375 376 m 1,12,-1
 375 514 l 1,13,-1
 512 514 l 1,14,-1
 512 376 l 1,15,-1
 375 376 l 1,12,-1
72 527 m 1,16,-1
 72 665 l 1,17,-1
 209 665 l 1,18,-1
 209 527 l 1,19,-1
 72 527 l 1,16,-1
223 527 m 1,20,-1
 223 665 l 1,21,-1
 361 665 l 1,22,-1
 361 527 l 1,23,-1
 223 527 l 1,20,-1
375 527 m 1,24,-1
 375 665 l 1,25,-1
 512 665 l 1,26,-1
 512 527 l 1,27,-1
 375 527 l 1,24,-1
526 527 m 1,28,-1
 526 665 l 1,29,-1
 664 665 l 1,30,-1
 664 527 l 1,31,-1
 526 527 l 1,28,-1
678 527 m 1,32,-1
 678 665 l 1,33,-1
 816 665 l 1,34,-1
 816 527 l 1,35,-1
 678 527 l 1,32,-1
375 679 m 1,36,-1
 375 816 l 1,37,-1
 512 816 l 1,38,-1
 512 679 l 1,39,-1
 375 679 l 1,36,-1
375 830 m 1,40,-1
 375 968 l 1,41,-1
 512 968 l 1,42,-1
 512 830 l 1,43,-1
 375 830 l 1,40,-1
526 982 m 1,44,-1
 526 1120 l 1,45,-1
 664 1120 l 1,46,-1
 664 982 l 1,47,-1
 526 982 l 1,44,-1
678 982 m 1,48,-1
 678 1120 l 1,49,-1
 816 1120 l 1,50,-1
 816 982 l 1,51,-1
 678 982 l 1,48,-1
EndSplineSet
EndChar

StartChar: glyph116
Encoding: 65559 -1 212
Width: 857
GlyphClass: 1
Flags: W
LayerCount: 2
Fore
SplineSet
375 679 m 1,0,-1
 375 817 l 1,1,-1
 513 817 l 1,2,-1
 513 679 l 1,3,-1
 375 679 l 1,0,-1
527 679 m 1,4,-1
 527 817 l 1,5,-1
 664 817 l 1,6,-1
 664 679 l 1,7,-1
 527 679 l 1,4,-1
375 830 m 1,8,-1
 375 968 l 1,9,-1
 513 968 l 1,10,-1
 513 830 l 1,11,-1
 375 830 l 1,8,-1
526 982 m 1,12,-1
 526 1120 l 1,13,-1
 664 1120 l 1,14,-1
 664 982 l 1,15,-1
 526 982 l 1,12,-1
EndSplineSet
EndChar

StartChar: glyph117
Encoding: 65560 -1 213
Width: 857
GlyphClass: 1
Flags: W
LayerCount: 2
Fore
SplineSet
224 679 m 1,0,-1
 224 817 l 1,1,-1
 361 817 l 1,2,-1
 361 679 l 1,3,-1
 224 679 l 1,0,-1
375 831 m 1,4,-1
 375 968 l 1,5,-1
 513 968 l 1,6,-1
 513 831 l 1,7,-1
 375 831 l 1,4,-1
224 982 m 1,8,-1
 224 1120 l 1,9,-1
 361 1120 l 1,10,-1
 361 982 l 1,11,-1
 224 982 l 1,8,-1
375 982 m 1,12,-1
 375 1120 l 1,13,-1
 513 1120 l 1,14,-1
 513 982 l 1,15,-1
 375 982 l 1,12,-1
EndSplineSet
EndChar

StartChar: glyph118
Encoding: 65561 -1 214
Width: 857
GlyphClass: 1
Flags: W
LayerCount: 2
Fore
SplineSet
72 679 m 1,0,-1
 72 816 l 1,1,-1
 210 816 l 1,2,-1
 210 679 l 1,3,-1
 72 679 l 1,0,-1
223 679 m 1,4,-1
 223 817 l 1,5,-1
 361 817 l 1,6,-1
 361 679 l 1,7,-1
 223 679 l 1,4,-1
526 679 m 1,8,-1
 526 817 l 1,9,-1
 664 817 l 1,10,-1
 664 679 l 1,11,-1
 526 679 l 1,8,-1
678 679 m 1,12,-1
 678 817 l 1,13,-1
 816 817 l 1,14,-1
 816 679 l 1,15,-1
 678 679 l 1,12,-1
72 830 m 1,16,-1
 72 968 l 1,17,-1
 210 968 l 1,18,-1
 210 830 l 1,19,-1
 72 830 l 1,16,-1
526 830 m 1,20,-1
 526 968 l 1,21,-1
 664 968 l 1,22,-1
 664 830 l 1,23,-1
 526 830 l 1,20,-1
223 982 m 1,24,-1
 223 1120 l 1,25,-1
 361 1120 l 1,26,-1
 361 982 l 1,27,-1
 223 982 l 1,24,-1
678 982 m 1,28,-1
 678 1120 l 1,29,-1
 816 1120 l 1,30,-1
 816 982 l 1,31,-1
 678 982 l 1,28,-1
EndSplineSet
EndChar

StartChar: glyph119
Encoding: 65562 -1 215
Width: 857
GlyphClass: 1
Flags: W
LayerCount: 2
Fore
SplineSet
72 679 m 1,0,-1
 72 816 l 1,1,-1
 210 816 l 1,2,-1
 210 679 l 1,3,-1
 72 679 l 1,0,-1
526 679 m 1,4,-1
 526 817 l 1,5,-1
 664 817 l 1,6,-1
 664 679 l 1,7,-1
 526 679 l 1,4,-1
223 830 m 1,8,-1
 223 968 l 1,9,-1
 361 968 l 1,10,-1
 361 830 l 1,11,-1
 223 830 l 1,8,-1
678 831 m 1,12,-1
 678 968 l 1,13,-1
 816 968 l 1,14,-1
 816 831 l 1,15,-1
 678 831 l 1,12,-1
72 982 m 1,16,-1
 72 1120 l 1,17,-1
 210 1120 l 1,18,-1
 210 982 l 1,19,-1
 72 982 l 1,16,-1
223 982 m 1,20,-1
 223 1120 l 1,21,-1
 361 1120 l 1,22,-1
 361 982 l 1,23,-1
 223 982 l 1,20,-1
526 982 m 1,24,-1
 526 1120 l 1,25,-1
 664 1120 l 1,26,-1
 664 982 l 1,27,-1
 526 982 l 1,24,-1
678 982 m 1,28,-1
 678 1120 l 1,29,-1
 816 1120 l 1,30,-1
 816 982 l 1,31,-1
 678 982 l 1,28,-1
EndSplineSet
EndChar

StartChar: glyph120
Encoding: 65563 -1 216
Width: 857
GlyphClass: 1
Flags: W
LayerCount: 2
Fore
SplineSet
375 376 m 1,0,-1
 375 514 l 1,1,-1
 513 514 l 1,2,-1
 513 376 l 1,3,-1
 375 376 l 1,0,-1
224 527 m 1,4,-1
 224 665 l 1,5,-1
 361 665 l 1,6,-1
 361 527 l 1,7,-1
 224 527 l 1,4,-1
375 527 m 1,8,-1
 375 665 l 1,9,-1
 513 665 l 1,10,-1
 513 527 l 1,11,-1
 375 527 l 1,8,-1
527 527 m 1,12,-1
 527 665 l 1,13,-1
 665 665 l 1,14,-1
 665 527 l 1,15,-1
 527 527 l 1,12,-1
375 679 m 1,16,-1
 375 817 l 1,17,-1
 513 817 l 1,18,-1
 513 679 l 1,19,-1
 375 679 l 1,16,-1
EndSplineSet
EndChar

StartChar: glyph121
Encoding: 65564 -1 217
Width: 857
GlyphClass: 1
Flags: W
LayerCount: 2
Fore
SplineSet
107 0 m 1,0,-1
 107 1200 l 1,1,-1
 750 1200 l 1,2,-1
 750 0 l 1,3,-1
 107 0 l 1,0,-1
214 107 m 1,4,-1
 643 107 l 1,5,-1
 643 1093 l 1,6,-1
 214 1093 l 1,7,-1
 214 107 l 1,4,-1
EndSplineSet
EndChar

StartChar: glyph122
Encoding: 65565 -1 218
Width: 857
GlyphClass: 1
Flags: W
LayerCount: 2
Fore
SplineSet
107 0 m 1,0,-1
 107 1200 l 1,1,-1
 750 1200 l 1,2,-1
 750 0 l 1,3,-1
 107 0 l 1,0,-1
214 107 m 1,4,-1
 643 107 l 1,5,-1
 643 1093 l 1,6,-1
 214 1093 l 1,7,-1
 214 107 l 1,4,-1
EndSplineSet
EndChar

StartChar: glyph123
Encoding: 65566 -1 219
Width: 857
GlyphClass: 1
Flags: W
LayerCount: 2
Fore
SplineSet
107 0 m 1,0,-1
 107 1200 l 1,1,-1
 750 1200 l 1,2,-1
 750 0 l 1,3,-1
 107 0 l 1,0,-1
214 107 m 1,4,-1
 643 107 l 1,5,-1
 643 1093 l 1,6,-1
 214 1093 l 1,7,-1
 214 107 l 1,4,-1
EndSplineSet
EndChar

StartChar: glyph124
Encoding: 65567 -1 220
Width: 857
GlyphClass: 1
Flags: W
LayerCount: 2
Fore
SplineSet
107 0 m 1,0,-1
 107 1200 l 1,1,-1
 750 1200 l 1,2,-1
 750 0 l 1,3,-1
 107 0 l 1,0,-1
214 107 m 1,4,-1
 643 107 l 1,5,-1
 643 1093 l 1,6,-1
 214 1093 l 1,7,-1
 214 107 l 1,4,-1
EndSplineSet
EndChar

StartChar: glyph125
Encoding: 65568 -1 221
Width: 857
GlyphClass: 1
Flags: W
LayerCount: 2
Fore
SplineSet
107 0 m 1,0,-1
 107 1200 l 1,1,-1
 750 1200 l 1,2,-1
 750 0 l 1,3,-1
 107 0 l 1,0,-1
214 107 m 1,4,-1
 643 107 l 1,5,-1
 643 1093 l 1,6,-1
 214 1093 l 1,7,-1
 214 107 l 1,4,-1
EndSplineSet
EndChar

StartChar: glyph126
Encoding: 65569 -1 222
Width: 857
GlyphClass: 1
Flags: W
LayerCount: 2
Fore
SplineSet
107 0 m 1,0,-1
 107 1200 l 1,1,-1
 750 1200 l 1,2,-1
 750 0 l 1,3,-1
 107 0 l 1,0,-1
214 107 m 1,4,-1
 643 107 l 1,5,-1
 643 1093 l 1,6,-1
 214 1093 l 1,7,-1
 214 107 l 1,4,-1
EndSplineSet
EndChar

StartChar: glyph127
Encoding: 65570 -1 223
Width: 857
GlyphClass: 1
Flags: W
LayerCount: 2
Fore
SplineSet
107 0 m 1,0,-1
 107 1200 l 1,1,-1
 750 1200 l 1,2,-1
 750 0 l 1,3,-1
 107 0 l 1,0,-1
214 107 m 1,4,-1
 643 107 l 1,5,-1
 643 1093 l 1,6,-1
 214 1093 l 1,7,-1
 214 107 l 1,4,-1
EndSplineSet
EndChar

StartChar: glyph128
Encoding: 65571 -1 224
Width: 857
GlyphClass: 1
Flags: W
LayerCount: 2
Fore
SplineSet
107 0 m 1,0,-1
 107 1200 l 1,1,-1
 750 1200 l 1,2,-1
 750 0 l 1,3,-1
 107 0 l 1,0,-1
214 107 m 1,4,-1
 643 107 l 1,5,-1
 643 1093 l 1,6,-1
 214 1093 l 1,7,-1
 214 107 l 1,4,-1
EndSplineSet
EndChar

StartChar: glyph129
Encoding: 65572 -1 225
Width: 857
GlyphClass: 1
Flags: W
LayerCount: 2
Fore
SplineSet
107 0 m 1,0,-1
 107 1200 l 1,1,-1
 750 1200 l 1,2,-1
 750 0 l 1,3,-1
 107 0 l 1,0,-1
214 107 m 1,4,-1
 643 107 l 1,5,-1
 643 1093 l 1,6,-1
 214 1093 l 1,7,-1
 214 107 l 1,4,-1
EndSplineSet
EndChar

StartChar: glyph130
Encoding: 65573 -1 226
Width: 857
GlyphClass: 1
Flags: W
LayerCount: 2
Fore
SplineSet
107 0 m 1,0,-1
 107 1200 l 1,1,-1
 750 1200 l 1,2,-1
 750 0 l 1,3,-1
 107 0 l 1,0,-1
214 107 m 1,4,-1
 643 107 l 1,5,-1
 643 1093 l 1,6,-1
 214 1093 l 1,7,-1
 214 107 l 1,4,-1
EndSplineSet
EndChar

StartChar: glyph144
Encoding: 65575 -1 228
Width: 857
GlyphClass: 1
Flags: W
LayerCount: 2
Fore
SplineSet
107 0 m 1,0,-1
 107 1200 l 1,1,-1
 750 1200 l 1,2,-1
 750 0 l 1,3,-1
 107 0 l 1,0,-1
214 107 m 1,4,-1
 643 107 l 1,5,-1
 643 1093 l 1,6,-1
 214 1093 l 1,7,-1
 214 107 l 1,4,-1
EndSplineSet
EndChar

StartChar: Euro
Encoding: 8364 8364 229
Width: 857
GlyphClass: 1
Flags: W
LayerCount: 2
Fore
SplineSet
375 73 m 1,0,-1
 375 210 l 1,1,-1
 512 210 l 1,2,-1
 512 73 l 1,3,-1
 375 73 l 1,0,-1
526 73 m 1,4,-1
 526 210 l 1,5,-1
 664 210 l 1,6,-1
 664 73 l 1,7,-1
 526 73 l 1,4,-1
678 73 m 1,8,-1
 678 210 l 1,9,-1
 816 210 l 1,10,-1
 816 73 l 1,11,-1
 678 73 l 1,8,-1
223 224 m 1,12,-1
 223 362 l 1,13,-1
 361 362 l 1,14,-1
 361 224 l 1,15,-1
 223 224 l 1,12,-1
72 375 m 1,16,-1
 72 513 l 1,17,-1
 209 513 l 1,18,-1
 209 375 l 1,19,-1
 72 375 l 1,16,-1
223 375 m 1,20,-1
 223 513 l 1,21,-1
 361 513 l 1,22,-1
 361 375 l 1,23,-1
 223 375 l 1,20,-1
375 376 m 1,24,-1
 375 514 l 1,25,-1
 512 514 l 1,26,-1
 512 376 l 1,27,-1
 375 376 l 1,24,-1
526 376 m 1,28,-1
 526 514 l 1,29,-1
 664 514 l 1,30,-1
 664 376 l 1,31,-1
 526 376 l 1,28,-1
223 527 m 1,32,-1
 223 665 l 1,33,-1
 361 665 l 1,34,-1
 361 527 l 1,35,-1
 223 527 l 1,32,-1
72 679 m 1,36,-1
 72 816 l 1,37,-1
 209 816 l 1,38,-1
 209 679 l 1,39,-1
 72 679 l 1,36,-1
223 679 m 1,40,-1
 223 816 l 1,41,-1
 361 816 l 1,42,-1
 361 679 l 1,43,-1
 223 679 l 1,40,-1
375 679 m 1,44,-1
 375 816 l 1,45,-1
 512 816 l 1,46,-1
 512 679 l 1,47,-1
 375 679 l 1,44,-1
526 679 m 1,48,-1
 526 817 l 1,49,-1
 664 817 l 1,50,-1
 664 679 l 1,51,-1
 526 679 l 1,48,-1
223 830 m 1,52,-1
 223 968 l 1,53,-1
 361 968 l 1,54,-1
 361 830 l 1,55,-1
 223 830 l 1,52,-1
375 982 m 1,56,-1
 375 1120 l 1,57,-1
 512 1120 l 1,58,-1
 512 982 l 1,59,-1
 375 982 l 1,56,-1
526 982 m 1,60,-1
 526 1120 l 1,61,-1
 664 1120 l 1,62,-1
 664 982 l 1,63,-1
 526 982 l 1,60,-1
678 982 m 1,64,-1
 678 1120 l 1,65,-1
 816 1120 l 1,66,-1
 816 982 l 1,67,-1
 678 982 l 1,64,-1
EndSplineSet
EndChar
